/* XPM */
static const char * test_plugin_xpm[] = {
"16 16 2 1",
" 	c None",
".	c #000000",
"                ",
"                ",
"                ",
"                ",
"... ... ... ... ",
" .  .   .    .  ",
" .  ..  ...  .  ",
" .  .     .  .  ",
" .  ... ...  .  ",
"                ",
"............... ",
"                ",
"                ",
"                ",
"                ",
"                "};
