/* XPM */
static char * file_type_symlink_xpm[] = {
"16 16 5 1",
" 	c None",
".	c #FF0000",
"+	c #FF8200",
"@	c #FFFF00",
"#	c #000000",
"                ",
"       ..       ",
"      .++.      ",
"      .@@.      ",
"     .+@@+.     ",
"     .@##@.     ",
"    .+@##@+.    ",
"    .@@##@@.    ",
"   .+@@@@@@+.   ",
"   .@@@##@@@.   ",
"  .++++++++++.  ",
"  ............  ",
"                ",
"                ",
"                ",
"                "};
