/* XPM */
static const char * file_roller_xpm[] = {
"48 52 670 2",
"  	c None",
". 	c #E3AC16",
"+ 	c #D6B653",
"@ 	c #1B1B1B",
"# 	c #E7D4A8",
"$ 	c #AF5010",
"% 	c #EBDDBA",
"& 	c #670A0A",
"* 	c #690A0A",
"= 	c #E3D5B4",
"- 	c #640B0B",
"; 	c #35291A",
"> 	c #C6BA9D",
", 	c #5A0D0D",
"' 	c #624218",
") 	c #734B17",
"! 	c #412F19",
"~ 	c #D78214",
"{ 	c #E8D7AF",
"] 	c #7F0C0C",
"^ 	c #634218",
"/ 	c #D78714",
"( 	c #F6F0DF",
"_ 	c #F4E5B5",
": 	c #E0C785",
"< 	c #900D0D",
"[ 	c #A36515",
"} 	c #D89114",
"| 	c #F6E8C1",
"1 	c #F8F3E7",
"2 	c #F7F1E3",
"3 	c #EBC87C",
"4 	c #A39574",
"5 	c #786C4D",
"6 	c #664418",
"7 	c #D28514",
"8 	c #F4EDD6",
"9 	c #F4EEDA",
"0 	c #DC9B46",
"a 	c #D89614",
"b 	c #D4B34D",
"c 	c #DBC076",
"d 	c #DFB84A",
"e 	c #D88C14",
"f 	c #E5BA81",
"g 	c #BFB59D",
"h 	c #EDCF8D",
"i 	c #F6EAC5",
"j 	c #E3B116",
"k 	c #DFA515",
"l 	c #D88F15",
"m 	c #E3A85B",
"n 	c #E9BD83",
"o 	c #520707",
"p 	c #E3AC5B",
"q 	c #B26D15",
"r 	c #E7B472",
"s 	c #EBC87D",
"t 	c #CA7213",
"u 	c #C36912",
"v 	c #F5EEDB",
"w 	c #E7B676",
"x 	c #ECE0B9",
"y 	c #D9C187",
"z 	c #C67013",
"A 	c #A43D0F",
"B 	c #F5EDDB",
"C 	c #945C16",
"D 	c #7F5217",
"E 	c #D79014",
"F 	c #E9BE7A",
"G 	c #DBCFAD",
"H 	c #636363",
"I 	c #F5EDD9",
"J 	c #7C4F16",
"K 	c #DC9D15",
"L 	c #E2CA91",
"M 	c #F2E9D1",
"N 	c #DEA815",
"O 	c #E0B315",
"P 	c #EADAAE",
"Q 	c #F3DF98",
"R 	c #ECDCB5",
"S 	c #885616",
"T 	c #1A1A1A",
"U 	c #595750",
"V 	c #E4AD67",
"W 	c #000000",
"X 	c #181818",
"Y 	c #B37215",
"Z 	c #E0B816",
"` 	c #DEC381",
" .	c #F7F2E4",
"..	c #F0E7C9",
"+.	c #F3EBD2",
"@.	c #E1CD7C",
"#.	c #E7BD16",
"$.	c #D89F14",
"%.	c #DAA515",
"&.	c #D79E13",
"*.	c #D78B13",
"=.	c #B3AEA5",
"-.	c #F0E6C9",
";.	c #896217",
">.	c #CBC098",
",.	c #735F20",
"'.	c #F4EDD9",
").	c #F1E9D1",
"!.	c #E2CF95",
"~.	c #E1CC78",
"{.	c #E7C216",
"].	c #E9D892",
"^.	c #EEE8CE",
"/.	c #D3C69D",
"(.	c #B96111",
"_.	c #C08214",
":.	c #8B5816",
"<.	c #939089",
"[.	c #F0E5C9",
"}.	c #040200",
"|.	c #D8C489",
"1.	c #715B15",
"2.	c #AE9A3F",
"3.	c #F8F3E2",
"4.	c #F3EACF",
"5.	c #EED47C",
"6.	c #E9E2C9",
"7.	c #BDA863",
"8.	c #904B0D",
"9.	c #9E6F15",
"0.	c #896516",
"a.	c #C07D14",
"b.	c #F7F2E8",
"c.	c #6B571B",
"d.	c #2F260B",
"e.	c #0C0902",
"f.	c #1B1405",
"g.	c #E6D39A",
"h.	c #3F310A",
"i.	c #D58113",
"j.	c #83600C",
"k.	c #F0EAD1",
"l.	c #CF8214",
"m.	c #9C550F",
"n.	c #8E6C16",
"o.	c #996D16",
"p.	c #896016",
"q.	c #826816",
"r.	c #A67115",
"s.	c #504414",
"t.	c #F1E7CE",
"u.	c #7A4E17",
"v.	c #B99939",
"w.	c #52441B",
"x.	c #B6983D",
"y.	c #D4AF3F",
"z.	c #D9B856",
"A.	c #E1CC88",
"B.	c #BFAD75",
"C.	c #503412",
"D.	c #645018",
"E.	c #665F39",
"F.	c #DA9215",
"G.	c #8C790D",
"H.	c #7A6E2C",
"I.	c #CA7613",
"J.	c #7A5F16",
"K.	c #885E16",
"L.	c #B67A11",
"M.	c #B48216",
"N.	c #806B16",
"O.	c #574B18",
"P.	c #6D5A17",
"Q.	c #F1E7CF",
"R.	c #754C17",
"S.	c #B78416",
"T.	c #E1CD6E",
"U.	c #191919",
"V.	c #55481F",
"W.	c #C0A75A",
"X.	c #DDBF66",
"Y.	c #DABA59",
"Z.	c #D6B247",
"`.	c #D4AF3E",
" +	c #D5B146",
".+	c #E3CD91",
"++	c #B89E54",
"@+	c #4C3916",
"#+	c #67592B",
"$+	c #B3A358",
"%+	c #CE8F13",
"&+	c #CBBE88",
"*+	c #A48D0F",
"=+	c #6C530F",
"-+	c #836411",
";+	c #531D08",
">+	c #CE7D13",
",+	c #775F15",
"'+	c #7A370B",
")+	c #855F17",
"!+	c #CFAD73",
"~+	c #E0A526",
"{+	c #99691A",
"]+	c #8D731B",
"^+	c #BB9316",
"/+	c #E2B042",
"(+	c #E5B216",
"_+	c #F6E7B6",
":+	c #EDCC64",
"<+	c #171717",
"[+	c #665523",
"}+	c #B49B52",
"|+	c #EBDBAD",
"1+	c #E7D49A",
"2+	c #E0C676",
"3+	c #DBBD61",
"4+	c #D9B753",
"5+	c #D7B44A",
"6+	c #D5B144",
"7+	c #DABC64",
"8+	c #E1C98D",
"9+	c #7E5B1F",
"0+	c #594816",
"a+	c #8F6B11",
"b+	c #BDB07A",
"c+	c #A39026",
"d+	c #B2A04D",
"e+	c #9E7E0F",
"f+	c #71550A",
"g+	c #CF7E14",
"h+	c #7B6415",
"i+	c #725916",
"j+	c #C38B12",
"k+	c #9B8117",
"l+	c #A18043",
"m+	c #D2B877",
"n+	c #94731D",
"o+	c #A37A16",
"p+	c #D9B440",
"q+	c #F0D592",
"r+	c #E9C14B",
"s+	c #E4B93A",
"t+	c #383017",
"u+	c #3A0606",
"v+	c #523B09",
"w+	c #3C3212",
"x+	c #D8B752",
"y+	c #E2CB83",
"z+	c #ECDEB0",
"A+	c #EBDDB1",
"B+	c #E3CB82",
"C+	c #DDC068",
"D+	c #DBBC5E",
"E+	c #D4AF41",
"F+	c #DEC476",
"G+	c #DEC57F",
"H+	c #63481E",
"I+	c #6F5A17",
"J+	c #AC9B5E",
"K+	c #BEAD6B",
"L+	c #AD8610",
"M+	c #93790E",
"N+	c #CA7A13",
"O+	c #7B6015",
"P+	c #987417",
"Q+	c #8B6116",
"R+	c #C4A371",
"S+	c #E4C97D",
"T+	c #D29B1F",
"U+	c #7D5411",
"V+	c #EECF7E",
"W+	c #E9C149",
"X+	c #D8A832",
"Y+	c #373017",
"Z+	c #AF9D68",
"`+	c #D3B47E",
" @	c #A1934C",
".@	c #362D11",
"+@	c #D7B54D",
"@@	c #E1C980",
"#@	c #E8D7A2",
"$@	c #EEE0B7",
"%@	c #E6D192",
"&@	c #DEC26D",
"*@	c #DCBE63",
"=@	c #D9B957",
"-@	c #D6B349",
";@	c #D3AE3C",
">@	c #D3AF41",
",@	c #E1CB8D",
"'@	c #9E8748",
")@	c #644E1C",
"!@	c #836B19",
"~@	c #B1A256",
"{@	c #BBAB5B",
"]@	c #6A4D16",
"^@	c #926016",
"/@	c #E8C083",
"(@	c #F4E9D0",
"_@	c #D3A330",
":@	c #765E27",
"<@	c #AC8B2D",
"[@	c #D19A30",
"}@	c #372F19",
"|@	c #B6A46F",
"1@	c #DEC582",
"2@	c #E6C049",
"3@	c #E2C469",
"4@	c #39321A",
"5@	c #BC9C3C",
"6@	c #D0B154",
"7@	c #D9BB61",
"8@	c #E0C779",
"9@	c #E3CC89",
"0@	c #EBDDAF",
"a@	c #EADBAB",
"b@	c #E3CA83",
"c@	c #D7B44C",
"d@	c #D4B041",
"e@	c #D2AB35",
"f@	c #D7B554",
"g@	c #CFB774",
"h@	c #91783C",
"i@	c #6F551C",
"j@	c #8E7218",
"k@	c #B78B2A",
"l@	c #BD8124",
"m@	c #E6BF7A",
"n@	c #EFDFB9",
"o@	c #D5AD39",
"p@	c #78642E",
"q@	c #86662C",
"r@	c #493D18",
"s@	c #BDAC76",
"t@	c #DEC787",
"u@	c #E6BF4A",
"v@	c #E4B116",
"w@	c #B59630",
"x@	c #C1B05E",
"y@	c #73661E",
"z@	c #161616",
"A@	c #231B04",
"B@	c #897024",
"C@	c #AC8E36",
"D@	c #BEA044",
"E@	c #D5B658",
"F@	c #DEC26E",
"G@	c #E1C87F",
"H@	c #E7D399",
"I@	c #ECDCB0",
"J@	c #E9D7A2",
"K@	c #DBBD60",
"L@	c #D8B650",
"M@	c #D2AB38",
"N@	c #CEA730",
"O@	c #D0A830",
"P@	c #DBC06F",
"Q@	c #AA9456",
"R@	c #6E551F",
"S@	c #906F23",
"T@	c #A49170",
"U@	c #E4D7BA",
"V@	c #D4AB33",
"W@	c #594614",
"X@	c #0F0F0F",
"Y@	c #554518",
"Z@	c #CDA772",
"`@	c #E7D28C",
" #	c #E7BE3E",
".#	c #E4BA3C",
"+#	c #7A6319",
"@#	c #9A8D50",
"##	c #766B39",
"$#	c #464023",
"%#	c #0E0E0E",
"&#	c #111111",
"*#	c #1C1604",
"=#	c #AE9756",
"-#	c #A0873A",
";#	c #B4963B",
">#	c #D1B253",
",#	c #DCC16C",
"'#	c #E0C87F",
")#	c #E7D39A",
"!#	c #EBDBAC",
"~#	c #E4CE8E",
"{#	c #D5B860",
"]#	c #D3B75E",
"^#	c #E0CC8D",
"/#	c #E1CE8E",
"(#	c #D3B659",
"_#	c #CFAC4B",
":#	c #7C570E",
"<#	c #907C5E",
"[#	c #DFD6BB",
"}#	c #A78627",
"|#	c #0A0A0A",
"1#	c #392F0E",
"2#	c #CFB777",
"3#	c #E8D595",
"4#	c #E7BE3C",
"5#	c #B8972B",
"6#	c #A59751",
"7#	c #706637",
"8#	c #63592F",
"9#	c #101010",
"0#	c #0B0B0B",
"a#	c #1C1C1C",
"b#	c #141413",
"c#	c #35301E",
"d#	c #261E06",
"e#	c #9F8D59",
"f#	c #A08842",
"g#	c #AB8E35",
"h#	c #CCAB4B",
"i#	c #DABD64",
"j#	c #E0C677",
"k#	c #E2CB86",
"l#	c #EBDBB1",
"m#	c #E3D19D",
"n#	c #E5D4A2",
"o#	c #CEB361",
"p#	c #AC8A23",
"q#	c #AC8A22",
"r#	c #B8911D",
"s#	c #D3BD81",
"t#	c #E6D8B9",
"u#	c #AF8C24",
"v#	c #342B0C",
"w#	c #8A7B4D",
"x#	c #EEDEA4",
"y#	c #E5BD41",
"z#	c #625018",
"A#	c #A0924E",
"B#	c #5B522B",
"C#	c #363636",
"D#	c #F4F4F4",
"E#	c #252525",
"F#	c #1E1E1D",
"G#	c #282723",
"H#	c #393732",
"I#	c #A4A39F",
"J#	c #564F3A",
"K#	c #221B06",
"L#	c #948865",
"M#	c #AF9B60",
"N#	c #A88A31",
"O#	c #C3A342",
"P#	c #D5B44F",
"Q#	c #DFC471",
"R#	c #DCC88A",
"S#	c #DDCA95",
"T#	c #D3C086",
"U#	c #A08329",
"V#	c #947820",
"W#	c #A28220",
"X#	c #B99B42",
"Y#	c #ECE2C4",
"Z#	c #BE9520",
"`#	c #372C10",
" $	c #6E6135",
".$	c #E3B833",
"+$	c #E5B316",
"@$	c #B3932A",
"#$	c #696033",
"$$	c #62550A",
"%$	c #0D0D0D",
"&$	c #121212",
"*$	c #040404",
"=$	c #EFEFEF",
"-$	c #C4C4C3",
";$	c #8D8C86",
">$	c #A09D92",
",$	c #ADAA9D",
"'$	c #B9B6AA",
")$	c #7B7254",
"!$	c #261D06",
"~$	c #817551",
"{$	c #B7A56C",
"]$	c #A6882D",
"^$	c #BA9831",
"/$	c #CEAB40",
"($	c #D9BA5E",
"_$	c #D0BD80",
":$	c #DACA99",
"<$	c #A58A34",
"[$	c #8C701E",
"}$	c #8F731D",
"|$	c #AC8D30",
"1$	c #E7DDBC",
"2$	c #C8A538",
"3$	c #664F13",
"4$	c #433812",
"5$	c #8F7F4E",
"6$	c #5A4A17",
"7$	c #9F924F",
"8$	c #968946",
"9$	c #453505",
"0$	c #959595",
"a$	c #484848",
"b$	c #8D8C87",
"c$	c #A29E92",
"d$	c #B1AD9D",
"e$	c #BDB8A8",
"f$	c #C8C4B4",
"g$	c #959080",
"h$	c #2E260F",
"i$	c #6C603C",
"j$	c #C0AD74",
"k$	c #A88C34",
"l$	c #B5932A",
"m$	c #C7A541",
"n$	c #C3A95D",
"o$	c #C1B077",
"p$	c #907627",
"q$	c #866B1C",
"r$	c #A0842E",
"s$	c #E4DABB",
"t$	c #C8A843",
"u$	c #735D18",
"v$	c #5F4D17",
"w$	c #594D20",
"x$	c #8C7D3C",
"y$	c #3A341A",
"z$	c #605308",
"A$	c #5B5B5B",
"B$	c #E4E4E4",
"C$	c #DCDCDC",
"D$	c #373737",
"E$	c #EEEDEC",
"F$	c #9E9C96",
"G$	c #AFACA0",
"H$	c #BEBAAA",
"I$	c #CAC6B4",
"J$	c #D5D1C0",
"K$	c #B2AFA6",
"L$	c #403923",
"M$	c #554929",
"N$	c #A6976D",
"O$	c #AE933F",
"P$	c #AD8C2C",
"Q$	c #AF933E",
"R$	c #AA965A",
"S$	c #8C7223",
"T$	c #8A6F1B",
"U$	c #CFC5A1",
"V$	c #CDB158",
"W$	c #755D16",
"X$	c #5F4C13",
"Y$	c #79642D",
"Z$	c #564D26",
"`$	c #280B03",
" %	c #1E1E1E",
".%	c #F0F0F0",
"+%	c #2C2C2C",
"@%	c #ECEBEA",
"#%	c #ABA9A4",
"$%	c #BCB9AE",
"%%	c #CAC6B6",
"&%	c #D6D2C0",
"*%	c #E2DDCB",
"=%	c #C3BFB4",
"-%	c #3B3521",
";%	c #2A230E",
">%	c #8F835D",
",%	c #AB8D32",
"'%	c #A58832",
")%	c #927E3B",
"!%	c #8D7325",
"~%	c #8C711D",
"{%	c #A58421",
"]%	c #806519",
"^%	c #514110",
"/%	c #9A7B1F",
"(%	c #272415",
"_%	c #E2E2E2",
":%	c #D2D2D2",
"<%	c #EDECEB",
"[%	c #B9B8B4",
"}%	c #C9C6BD",
"|%	c #D7D3C5",
"1%	c #E3DECD",
"2%	c #EEE9D8",
"3%	c #D5D2C6",
"4%	c #999893",
"5%	c #302B1D",
"6%	c #6F633E",
"7%	c #BEA354",
"8%	c #8D7731",
"9%	c #8A7123",
"0%	c #91751D",
"a%	c #997A1F",
"b%	c #8A6F1C",
"c%	c #856A1A",
"d%	c #886B1B",
"e%	c #0B0A08",
"f%	c #212121",
"g%	c #C0C0C0",
"h%	c #1F1F1F",
"i%	c #ECEBEB",
"j%	c #C6C5C2",
"k%	c #D7D5CD",
"l%	c #E4E1D3",
"m%	c #F0ECDD",
"n%	c #F7F3E4",
"o%	c #F2EFE4",
"p%	c #C0BFBC",
"q%	c #434137",
"r%	c #574C2B",
"s%	c #B3A169",
"t%	c #91782A",
"u%	c #9D7F1F",
"v%	c #9B7C1F",
"w%	c #826719",
"x%	c #896E1B",
"y%	c #29210A",
"z%	c #2F2F2F",
"A%	c #BBBBBB",
"B%	c #202020",
"C%	c #D4D4D2",
"D%	c #E4E3DE",
"E%	c #F1EFE6",
"F%	c #EAE8E0",
"G%	c #F3F2EC",
"H%	c #EFEFED",
"I%	c #F6F6F6",
"J%	c #646464",
"K%	c #3A2F10",
"L%	c #725B15",
"M%	c #7C6419",
"N%	c #816819",
"O%	c #7C6318",
"P%	c #302709",
"Q%	c #A3A3A3",
"R%	c #232323",
"S%	c #EBEBEB",
"T%	c #E0DFDE",
"U%	c #E4E3E2",
"V%	c #E9E8E7",
"W%	c #EBEAEA",
"X%	c #F2F2F2",
"Y%	c #FFFFFF",
"Z%	c #B8B8B8",
"`%	c #68645B",
" &	c #221F14",
".&	c #140F02",
"+&	c #080700",
"@&	c #8E8E8E",
"#&	c #282828",
"$&	c #F7F7F7",
"%&	c #F3F3F3",
"&&	c #464646",
"*&	c #2A2A2A",
"=&	c #7A7A7A",
"-&	c #404040",
";&	c #8A8A8A",
">&	c #7F7F7F",
",&	c #343434",
"'&	c #151515",
")&	c #C8C8C8",
"!&	c #9A9A9A",
"~&	c #696969",
"{&	c #737373",
"]&	c #303030",
"^&	c #0C0C0C",
"/&	c #080808",
"(&	c #131313",
"_&	c #333333",
":&	c #1D1D1D",
"<&	c #494949",
"                                                          . + @                                 ",
"                                                          # $ @                                 ",
"                                                          % &                                   ",
"                                                          % *                                   ",
"                                                          = -                                   ",
"                                                      @ ; > , ' ) @ @                           ",
"                                                  @ !   ~ { ] ~ ~ ~ ^ @ @                       ",
"                                                ^ / ( _ ~ : < ~ ~ ~ ~ ~ ) @ @ @                 ",
"                                                [ ~ } | 1 2 3 ~ ~ ~ ~ ~ ~ ~ 4 5 @               ",
"                                              ~ 6 ~ 7 ~ ~ } 8 1 9 0 a b c d e ~ @               ",
"                                              ~ @ ~ f @ @ g ~ ~ h i j ~ k l @ m @               ",
"                                            ~   @ ~ n         o p q ~ @     @ r @               ",
"                                          ~     @ ~ s       t u v q @       @ w @               ",
"                                        ~ ~     @ ~ x y @ z A @ B C @       @ r @               ",
"                                        ~   @ @ D ~ ~ E F G H @ I J @ @ @   @ w @               ",
"                                        ~ @ D K L M / a N O P Q R S @ T @ T U V @               ",
"                                    W X Y Z `  ...+.a @.#.$.%.&.*.S T T T =.-.;.T               ",
"                                  W >.,.~ '.( ).!.~.} {.].^./.(._.:.T T <.[.~ S T               ",
"                                }.|.1.@ ~ @ 2.3.4.5.} 6.7.8.9.0.a.S @ @ b.~ ~ :.T               ",
"                    c.d.e.W W f.g.h.W @ i.@ @ @ j.k.l.m.n.o.p.q.r.S s.@ t.~ C u.T               ",
"                v.w.x.y.z.A.B.C.D.W   E.F.G.H.@ @ @ I.J.K.L.M.N.} :.O.P.Q.R.S.T.U.              ",
"                V.W.X.Y.Z.`. +.+++@+#+$+%+&+*+=+-+;+>+,+M.'+)+!+~+{+]+^+/+(+_+:+T U.<+          ",
"              [+}+|+1+2+3+4+5+6+7+8+9+0+a+b+c+d+e+f+g+h+i+j+k+l+m+n+o+p+q+r+s+t+u+v+U.          ",
"              w+x+y+z+A+B+C+D+x+Z.E+F+G+H+I+J+K+L+M+N+O+P+Q+R+S+T+U+V+W+X+Y+T Z+`+ @U.          ",
"              .@+@C+@@#@$@%@&@*@=@-@;@>@,@'@)@!@~@{@%+]@^@/@(@_@:@<@[@<+}@|@1@2@3@4@U.          ",
"              .@5@6@7@8@9@0@a@b@X.Y.c@d@e@f@g@h@i@j@k@l@m@n@o@p@q@X r@s@t@u@v@w@x@y@z@          ",
"              A@B@C@D@E@F@G@H@I@J@X.K@L@M@N@O@P@Q@R@S@T@U@V@W@X@Y@Z@`@ #.#+#@###$#%#            ",
"    &#          *#=#-#;#>#,#8@'#)#!#~#{#]#^#/#(#_#:#<#[#}#|#1#2#3#4#(+5#6#7#8#9#9#              ",
"    0#a#      b#c#d#e#f#g#h#i#&@j#k#l#m#n#o#p#q#r#s#t#u#v#w#x#4#y#z#@#A#B#X@&#                  ",
"    C#D#E#F#G#H#I#J#K#L#M#N#O#P#K@Q#R#S#T#U#V#W#X#Y#Z#`# $.$+$@$6##$$$%$&$                      ",
"      *$=$-$;$>$,$'$)$!$~${$]$^$/$($_$:$<$[$}$|$1$2$3$4$5$6$7$8$9$%$&#                          ",
"    T 0$a$=$b$c$d$e$f$g$h$i$j$k$l$m$n$o$p$q$r$s$t$u$v$w$x$y$z$%#&$                              ",
"    A$B$C$D$E$F$G$H$I$J$K$L$M$N$O$P$Q$R$S$T$U$V$W$X$Y$Z$`$%$&$                                  ",
"       %.%C$+%@%#%$%%%&%*%=%-%;%>%,%'%)%!%~%{%]%^%/%(%%$<+                                      ",
"    W _%C#.%:%E#<%[%}%|%1%2%3%4%5%6%7%8%9%0%a%b%c%d%e%                                          ",
"      W _%f%.%g%h%i%j%k%l%m%n%o%p%q%r%s%t%u%v%w%x%y%W                                           ",
"        W _%z%.%A%B%i%C%D%E%F%G%H%I%J%K%L%M%N%O%P%W                                             ",
"          W _%X .%Q%R%S%T%U%V%U%W%X%Y%Z%`% &.&+&W                                               ",
"            W _%9#.%@&#&$&=$X%%&I%C$&&z%*&0#                                                    ",
"              W _%*$.%=&B%-&;&>&,&f%B%'&                                                        ",
"                W _%W =$)&!&~&{&]&%$^&                                                          ",
"                  W _%/&(&_&:&/&/&                                                              ",
"                    W _%<&W &&                                                                  ",
"                      W W                                                                       ",
"                                                                                                ",
"                                                                                                ",
"                                                                                                ",
"                                                                                                ",
"                                                                                                ",
"                                                                                                ",
"                                                                                                ",
"                                                                                                "};
