/* XPM */
static const char * file_roller_small_xpm[] = {
"16 16 101 2",
"  	c None",
". 	c #94886F",
"+ 	c #612612",
"@ 	c #9F712E",
"# 	c #EAC98F",
"$ 	c #CA782C",
"% 	c #B77317",
"& 	c #715327",
"* 	c #A67430",
"= 	c #92692D",
"- 	c #D5A66D",
"; 	c #C69134",
"> 	c #9A7529",
", 	c #876539",
"' 	c #B2813A",
") 	c #B78F47",
"! 	c #A58768",
"~ 	c #4F3719",
"{ 	c #8A6E4B",
"] 	c #866125",
"^ 	c #CCB986",
"/ 	c #E4C278",
"( 	c #DEBB4C",
"_ 	c #CF9F43",
": 	c #412F19",
"< 	c #9B8768",
"[ 	c #614722",
"} 	c #927A32",
"| 	c #87753F",
"1 	c #6A5A34",
"2 	c #7B5A1D",
"3 	c #5D5530",
"4 	c #9F7A3D",
"5 	c #9C7026",
"6 	c #A4771A",
"7 	c #624A18",
"8 	c #CC9F56",
"9 	c #604F2A",
"0 	c #877234",
"a 	c #E2CD8B",
"b 	c #DCBE63",
"c 	c #CEB057",
"d 	c #A3863D",
"e 	c #A08D43",
"f 	c #A57617",
"g 	c #906A1A",
"h 	c #C09E4E",
"i 	c #AF8B2F",
"j 	c #B39749",
"k 	c #816A3B",
"l 	c #66551F",
"m 	c #CAAE5A",
"n 	c #E3CD8A",
"o 	c #E1C87C",
"p 	c #D7B551",
"q 	c #BFA350",
"r 	c #9A7C31",
"s 	c #BD9F63",
"t 	c #867138",
"u 	c #A88D43",
"v 	c #B19845",
"w 	c #72642F",
"x 	c #686868",
"y 	c #56544C",
"z 	c #75673F",
"A 	c #BBA04F",
"B 	c #DBBF6B",
"C 	c #DAC68A",
"D 	c #AE9137",
"E 	c #C1A760",
"F 	c #7B682F",
"G 	c #BCA248",
"H 	c #6F6026",
"I 	c #322E1B",
"J 	c #A1A1A1",
"K 	c #A8A59E",
"L 	c #B7B2A1",
"M 	c #817657",
"N 	c #A88D3D",
"O 	c #A99249",
"P 	c #A89045",
"Q 	c #7C6726",
"R 	c #43381C",
"S 	c #312C13",
"T 	c #838383",
"U 	c #9E9E9D",
"V 	c #C4C3BD",
"W 	c #E0DDCF",
"X 	c #9E9A8B",
"Y 	c #867337",
"Z 	c #8D711C",
"` 	c #473910",
" .	c #7E7E7E",
"..	c #8C8C8C",
"+.	c #C4C4C2",
"@.	c #C3C3C2",
"#.	c #5F5D59",
"$.	c #201A09",
"%.	c #787878",
"&.	c #505050",
"*.	c #282828",
"                                ",
"                  . +           ",
"                @ # $ % &       ",
"                * = - ; > ,     ",
"                ' ) ! ~   {     ",
"            ] ^ / ( _ : < [     ",
"      } | 1 2 3 4 5 6 7 8 9     ",
"    0 a b c d e f g h i j k     ",
"    l m n o p q r s t u v w     ",
"  x y z A B C D E F G H I       ",
"  J K L M N O P Q R S           ",
"  T U V W X Y Z `               ",
"     ...+.@.#.$.                ",
"      %.&.*.                    ",
"                                ",
"                                "};
