<svg xmlns="http://www.w3.org/2000/svg" width="128" height="128" style="display:inline"><g style="display:inline"><path d="M115.505 14.963H12.495v100.754h91.937l11.073-11.434z" style="display:inline;fill:#133f78;fill-opacity:1;stroke:none;stroke-width:1.97798562;stroke-miterlimit:4;stroke-dasharray:none;stroke-opacity:1"/><path d="M114.932 13.112c-.657-.657-1.873-.617-1.873-.617h-98.11s-.797-.13-1.674.746c-.877.877-.78 1.722-.78 1.722v97.246h91.937l11.073-11.316v-85.93s.084-1.195-.573-1.851" style="display:inline;fill:#1c71d8;fill-opacity:1;stroke:none;stroke-width:1.9677422;stroke-miterlimit:4;stroke-dasharray:none;stroke-opacity:1"/><rect width="60.494" height="37.139" x="40.276" y="74.897" ry="7.425" style="display:inline;opacity:1;fill:#3584e4;fill-opacity:1;stroke:none;stroke-width:1.43385339;stroke-miterlimit:4;stroke-dasharray:none;stroke-opacity:1"/><rect width="60.494" height="21.229" x="40.276" y="90.98" ry="0" style="display:inline;opacity:1;fill:#3483e4;fill-opacity:1;stroke:none;stroke-width:1.43385339;stroke-miterlimit:4;stroke-dasharray:none;stroke-opacity:1"/><rect width="79.813" height="53.078" x="24.076" y="16.636" ry="5.318" style="display:inline;opacity:1;fill:#f6f5f4;fill-opacity:1;stroke:none;stroke-width:1.96892774;stroke-miterlimit:4;stroke-dasharray:none;stroke-opacity:1"/><rect width="55.911" height="37.139" x="28.026" y="74.897" ry="7.407" style="display:inline;opacity:1;fill:#98c1f1;fill-opacity:1;stroke:none;stroke-width:1.37847495;stroke-miterlimit:4;stroke-dasharray:none;stroke-opacity:1"/><rect width="55.911" height="18.743" x="28.026" y="93.466" ry="0" style="display:inline;opacity:1;fill:#98c1f1;fill-opacity:1;stroke:none;stroke-width:.97927105;stroke-miterlimit:4;stroke-dasharray:none;stroke-opacity:1"/><rect width="16.78" height="31.882" x="39.201" y="80.326" ry="0" style="display:inline;opacity:1;fill:#1a5fb4;fill-opacity:1;stroke:none;stroke-width:.69969916;stroke-miterlimit:4;stroke-dasharray:none;stroke-opacity:1"/><g style="display:inline;fill:#3d3846;fill-opacity:1;fill-rule:nonzero;stroke:none;stroke-width:4.6164093;stroke-miterlimit:4;stroke-dasharray:none;stroke-opacity:1"><g style="fill:#3d3846;fill-opacity:1;stroke:none;stroke-width:4.6164093;stroke-miterlimit:4;stroke-dasharray:none;stroke-opacity:1"><path d="M86.068 0C61.466 0 56.851 35.041 70.691 35.041 84.529 35.041 110.671 0 86.068 0M45.217 30.699c7.369.45 15.454-28.122 1.604-26.325-13.845 1.797-8.976 25.875-1.604 26.325M11.445 48.453c5.241-2.307.675-24.872-8.237-18.718-8.908 6.155 2.996 21.024 8.237 18.718M26.212 36.642c6.239-1.272 6.581-26.864-4.545-22.273-11.128 4.592-1.689 23.547 4.545 22.273M58.791 93.913c1.107 8.454-6.202 12.629-13.36 7.179-22.787-17.349 37.729-26.004 33.74-49.706-3.311-19.674-63.676-13.617-70.55 17.167-4.653 20.821 19.153 49.707 43.993 49.707 12.22 0 26.315-11.034 28.952-25.012 2.014-10.659-23.699-6.388-22.775.665" style="fill:#3d3846;fill-opacity:1;stroke:none;stroke-width:4.6164093;stroke-miterlimit:4;stroke-dasharray:none;stroke-opacity:1" transform="translate(42.392 16.636)scale(.44882)"/></g></g><rect width="55.911" height="3.508" x="28.026" y="112.209" ry="0" style="display:inline;opacity:1;fill:#297fe5;fill-opacity:1;stroke:none;stroke-width:.42368105;stroke-miterlimit:4;stroke-dasharray:none;stroke-opacity:1"/><rect width="16.78" height="3.508" x="39.201" y="112.209" ry="0" style="display:inline;opacity:1;fill:#133f78;fill-opacity:1;stroke:none;stroke-width:.23210785;stroke-miterlimit:4;stroke-dasharray:none;stroke-opacity:1"/><rect width="16.833" height="3.508" x="83.937" y="112.209" ry="0" style="display:inline;opacity:1;fill:#1359ab;fill-opacity:1;stroke:none;stroke-width:.30747864;stroke-miterlimit:4;stroke-dasharray:none;stroke-opacity:1"/><path d="M104.432 112.209v3.508l11.073-11.073v-3.751z" style="fill:#132c51;fill-opacity:1;stroke:none;stroke-width:1px;stroke-linecap:butt;stroke-linejoin:miter;stroke-opacity:1"/></g></svg>