/* XPM */
static char * close_xpm[] = {
"12 11 2 1",
" 	g None",
".	g #000000",
"  .      .  ",
"   .    ... ",
"   ..  .... ",
"    .. ...  ",
"    .....   ",
"     ...    ",
"    .....   ",
"   .......  ",
"  ...  .... ",
" ...    ....",
"...      .. "};
