/* XPM */
static char * cvs_plugin_xpm[] = {
"17 9 30 1",
" 	c None",
".	c #CB9E32",
"+	c #E59B00",
"@	c #E39A00",
"#	c #EDA000",
"$	c #DE9C0D",
"%	c #D89200",
"&	c #FFAD00",
"*	c #EEA100",
"=	c #DB9400",
"-	c #E39F1E",
";	c #9B9D3A",
">	c #9CD6DE",
",	c #DEA508",
"'	c #F6A600",
")	c #DF9700",
"!	c #008C9C",
"~	c #E49A00",
"{	c #CC8900",
"]	c #C38300",
"^	c #FFB525",
"/	c #BB7F00",
"(	c #BE8100",
"_	c #DD9500",
":	c #BD7F00",
"<	c #B07700",
"[	c #B37900",
"}	c #BD7E00",
"|	c #B47900",
"1	c #AB7400",
"               . ",
"     +@@@+   +@# ",
"   $%&&&&&@@*&&= ",
"  -;>,&&&&&&&'=  ",
"  )&!&&&&&&&&~   ",
"  {&&&&&&&&&&&#  ",
"   ]&^&&&&&/(&&_ ",
"    :<<[[[}  |[1 ",
"                 "};
