/* XPM */
static char * desktop_xpm[] = {
"16 16 81 1",
" 	c None",
".	c #000000",
"+	c #B6BECA",
"@	c #A5AFBE",
"#	c #737D8C",
"$	c #909CAF",
"%	c #556784",
"&	c #44526A",
"*	c #4D4E41",
"=	c #D3D4C0",
"-	c #D1D3BF",
";	c #CDCDB9",
">	c #CCCDB9",
",	c #71725E",
"'	c #616252",
")	c #BCBE9F",
"!	c #B1B493",
"~	c #ABAD8C",
"{	c #A4A785",
"]	c #7E806B",
"^	c #7A7C65",
"/	c #FBE73B",
"(	c #F2B64D",
"_	c #BBBCAC",
":	c #FEFEFE",
"<	c #FDFDFD",
"[	c #E0E0E0",
"}	c #BBBBBB",
"|	c #635731",
"1	c #F1F1F1",
"2	c #E2E2E2",
"3	c #F6D236",
"4	c #F7B544",
"5	c #F0F0F0",
"6	c #D7AE74",
"7	c #6C5F34",
"8	c #808266",
"9	c #CFD0BC",
"0	c #E6E6E6",
"a	c #4F4115",
"b	c #878A6C",
"c	c #828565",
"d	c #CDD0BB",
"e	c #E5E5E5",
"f	c #A0A280",
"g	c #9DA07D",
"h	c #D6D7C6",
"i	c #C2C2C2",
"j	c #BCBCBC",
"k	c #A0A0A0",
"l	c #1B1B15",
"m	c #9A9D7A",
"n	c #969975",
"o	c #76849C",
"p	c #72725E",
"q	c #BBBD9E",
"r	c #696A58",
"s	c #61624D",
"t	c #999C78",
"u	c #959874",
"v	c #7A7D5F",
"w	c #9298A2",
"x	c #70725D",
"y	c #B7B999",
"z	c #B4B797",
"A	c #ACAE8D",
"B	c #A9AC8A",
"C	c #A3A583",
"D	c #A0A381",
"E	c #9EA17E",
"F	c #979A77",
"G	c #949773",
"H	c #8B8D72",
"I	c #8F9075",
"J	c #878A6A",
"K	c #878A69",
"L	c #828665",
"M	c #364155",
"N	c #4B5564",
"O	c #848C98",
"P	c #2B3444",
" ....      .... ",
".+@@#......+$$#.",
".$%&*===-;>,@%&.",
".$&')))))!~{..&.",
".#')].....^./(..",
" ._).::<[}./(|..",
" .=).:112.34|.. ",
" .=).:15}.67.8. ",
" .9).<00.a..bc. ",
" .d).<0e...fgc. ",
" .h).ij}}klmnc..",
".opqr.....stuvw.",
".%oxyzABCDEFG+&.",
".%%oHIJKLccc@%&.",
".MMMN......OMMP.",
"......    ......"};
