/* XPM */
static char * exec_xpm[] = {
"48 48 131 2",
"  	c None",
". 	c #000000",
"+ 	c #BABABA",
"@ 	c #D9D9D9",
"# 	c #D6D6D6",
"$ 	c #D3D3D3",
"% 	c #D1D1D1",
"& 	c #AFAFAF",
"* 	c #A2A2A2",
"= 	c #DADADA",
"- 	c #D7D7D7",
"; 	c #D4D4D4",
"> 	c #D2D2D2",
", 	c #CFCFCF",
"' 	c #CCCCCC",
") 	c #CACACA",
"! 	c #C7C7C7",
"~ 	c #C5C5C5",
"{ 	c #9E9E9E",
"] 	c #D8D8D8",
"^ 	c #D5D5D5",
"/ 	c #D0D0D0",
"( 	c #CDCDCD",
"_ 	c #CBCBCB",
": 	c #C8C8C8",
"< 	c #C6C6C6",
"[ 	c #C3C3C3",
"} 	c #C0C0C0",
"| 	c #A1A1A1",
"1 	c #5B5B5B",
"2 	c #707070",
"3 	c #C9C9C9",
"4 	c #C4C4C4",
"5 	c #C1C1C1",
"6 	c #BFBFBF",
"7 	c #BCBCBC",
"8 	c #B9B9B9",
"9 	c #7A7A7A",
"0 	c #9A9A9A",
"a 	c #C2C2C2",
"b 	c #BDBDBD",
"c 	c #B8B8B8",
"d 	c #6F6F6F",
"e 	c #828282",
"f 	c #919191",
"g 	c #CECECE",
"h 	c #BEBEBE",
"i 	c #BBBBBB",
"j 	c #B6B6B6",
"k 	c #B3B3B3",
"l 	c #AEAEAE",
"m 	c #929292",
"n 	c #9B9B9B",
"o 	c #B1B1B1",
"p 	c #A3A3A3",
"q 	c #B0B0B0",
"r 	c #A4A4A4",
"s 	c #9D9D9D",
"t 	c #909090",
"u 	c #B4B4B4",
"v 	c #ADADAD",
"w 	c #A7A7A7",
"x 	c #ACACAC",
"y 	c #A9A9A9",
"z 	c #AAAAAA",
"A 	c #B5B5B5",
"B 	c #DBDBDB",
"C 	c #9C9C9C",
"D 	c #959595",
"E 	c #979797",
"F 	c #ABABAB",
"G 	c #A8A8A8",
"H 	c #A5A5A5",
"I 	c #DDDDDD",
"J 	c #7F7F7F",
"K 	c #858585",
"L 	c #7D7D7D",
"M 	c #767676",
"N 	c #6E6E6E",
"O 	c #B2B2B2",
"P 	c #6A6A6A",
"Q 	c #616161",
"R 	c #4D4D4D",
"S 	c #3F3F3F",
"T 	c #454545",
"U 	c #363636",
"V 	c #6D6D6D",
"W 	c #B7B7B7",
"X 	c #8D8D8D",
"Y 	c #5D5D5D",
"Z 	c #343434",
"` 	c #323232",
" .	c #6C6C6C",
"..	c #757575",
"+.	c #686868",
"@.	c #565656",
"#.	c #838383",
"$.	c #808080",
"%.	c #626262",
"&.	c #585858",
"*.	c #393939",
"=.	c #747474",
"-.	c #333333",
";.	c #5E5E5E",
">.	c #555555",
",.	c #7C7C7C",
"'.	c #1E1E1E",
").	c #949494",
"!.	c #6B6B6B",
"~.	c #8A8A8A",
"{.	c #535353",
"].	c #1F1F1F",
"^.	c #989898",
"/.	c #8C8C8C",
"(.	c #656565",
"_.	c #212121",
":.	c #848484",
"<.	c #545454",
"[.	c #4B4B4B",
"}.	c #464646",
"|.	c #888888",
"1.	c #999999",
"2.	c #8B8B8B",
"3.	c #383838",
"4.	c #787878",
"5.	c #5F5F5F",
"6.	c #898989",
"7.	c #2E2E2E",
"8.	c #252525",
"9.	c #4F4F4F",
"0.	c #434343",
"                                                                                                ",
"                                                                                                ",
"                                                                                                ",
"                                                                                                ",
"                                                                                                ",
"                                                                                                ",
"                                                                                                ",
"                                                                                                ",
"                                                                                                ",
"                                                . . . . . .                                     ",
"                                            . . + @ # $ % & . . .                               ",
"                                          . . * = - ; > , ' ) ! ~ . .                           ",
"                                          . . { ] ^ $ / ( _ : < [ } | .                         ",
"                                        . 1 2 . # ; % , ' 3 ! 4 5 6 7 8 .                       ",
"                                        . . 9 . 0 > / ( ) : ~ a } b + c 0 .                     ",
"                                      . d . e f . % g _ 3 < [ 5 h i 8 j k .                     ",
"                                      . { l . m n . ' ) ! 4 a 6 i 8 j k o & .                   ",
"                                      . p q r . s p . t ~ [ 6 7 8 j u o l v .                   ",
"                                    . d w u } , . r * . . p 7 8 j k q v x y .                   ",
"                                    . * z A [ , B . { C D . . . E l F y G .                     ",
"                                    . H l 8 ~ $ I B . . J K L M . . . . . .                     ",
"                                  . N y O b ) ; ] ; ( x . . . P Q R S T U .                     ",
"                                  . | z u 6 ' @ ; ( 4 7 o H V . . . . . .                       ",
"                                  . p F W [ % # % 3 5 W F C X h Y T Z ` .                       ",
"                                .  .r v 8 < ^ > _ 4 i o * D K ..+.Y @..                         ",
"                                . #.H q i 3 , ' ! 6 A F s $.L N %.&.*..                         ",
"                                  . y k 6 g _ < 5 + q r =.. . -.;.>..                           ",
"                                  . M W [ 3 ~ 5 i k G n . ,.K J '.*..                           ",
"                                    . s ! ~ } 7 A x | ).. !.~.{.]..                             ",
"                                      . r 5 7 j l H ^./.(.. . _.-..                             ",
"                                        . { c q w s m :...<.[.}..                               ",
"                                          . . |.p 1.2.L N Q &.3..                               ",
"                                          . N . . . 2 4.!.5.. .                                 ",
"                                          . 6.&.. *.. . . .                                     ",
"                                        . F F . 7.                                              ",
"                                        . # 6..                                                 ",
"                                    . . # F . '.                                                ",
"                                  . F F 6.N . '.                                                ",
"                                . # # . . . . .                                                 ",
"                                . # . 8.9.| . .                                                 ",
"                                . F . 0.;.# . .                                                 ",
"                                . 6.. | # | . .                                                 ",
"                                  . m . . . .                                                   ",
"                                    . . . .                                                     ",
"                                                                                                ",
"                                                                                                ",
"                                                                                                ",
"                                                                                                "};
