/* XPM */
static char * ftp_xpm[] = {
"16 16 126 2",
"  	c None",
". 	c #5D7F8C",
"+ 	c #6E877B",
"@ 	c #717F69",
"# 	c #4578AD",
"$ 	c #AABBBC",
"% 	c #A6B6AD",
"& 	c #879896",
"* 	c #9CA085",
"= 	c #949774",
"- 	c #8F8E5F",
"; 	c #4A7DAD",
"> 	c #DBE4D7",
", 	c #FCFCE2",
"' 	c #FBFBDA",
") 	c #DBE2CC",
"! 	c #B8C0B0",
"~ 	c #EEE1A4",
"{ 	c #BEB98C",
"] 	c #A1935E",
"^ 	c #739AB7",
"/ 	c #E8E9BF",
"( 	c #FBFBD5",
"_ 	c #FCFBD8",
": 	c #F0F0C9",
"< 	c #CAC99D",
"[ 	c #C9C491",
"} 	c #8C8861",
"| 	c #5A5844",
"1 	c #3A6C9F",
"2 	c #5589BA",
"3 	c #7FA2B0",
"4 	c #9DB7A1",
"5 	c #B3CA9B",
"6 	c #D2D39F",
"7 	c #E2D19B",
"8 	c #B3AE8D",
"9 	c #A1A486",
"0 	c #3A4B56",
"a 	c #60624E",
"b 	c #191919",
"c 	c #396899",
"d 	c #4B80B6",
"e 	c #5285B5",
"f 	c #869EA2",
"g 	c #B6B98F",
"h 	c #B9B488",
"i 	c #C3B588",
"j 	c #C1B184",
"k 	c #6A7779",
"l 	c #707675",
"m 	c #8C8D85",
"n 	c #9B9991",
"o 	c #82817D",
"p 	c #2E5B88",
"q 	c #4374A7",
"r 	c #4878A4",
"s 	c #8A9FA6",
"t 	c #E0CD9C",
"u 	c #BCB283",
"v 	c #9A9376",
"w 	c #5B6D78",
"x 	c #BBB7AD",
"y 	c #8B887F",
"z 	c #A7A59C",
"A 	c #C2BFB7",
"B 	c #73716E",
"C 	c #366394",
"D 	c #3D6894",
"E 	c #919D98",
"F 	c #DBCE97",
"G 	c #A2A379",
"H 	c #677370",
"I 	c #7B7F7C",
"J 	c #87847C",
"K 	c #97958D",
"L 	c #ADABA4",
"M 	c #C8C5BE",
"N 	c #696866",
"O 	c #254A74",
"P 	c #2D5681",
"Q 	c #567387",
"R 	c #D8C48E",
"S 	c #6F746C",
"T 	c #3A5164",
"U 	c #8B8C87",
"V 	c #A19E96",
"W 	c #ADAAA3",
"X 	c #BCBAB3",
"Y 	c #CFCDC7",
"Z 	c #676765",
"` 	c #223D5D",
" .	c #214472",
"..	c #224470",
"+.	c #204064",
"@.	c #2B4861",
"#.	c #8E9495",
"$.	c #9F9D96",
"%.	c #A9A7A2",
"&.	c #C9C7C2",
"*.	c #D6D5D1",
"=.	c #6B6A69",
"-.	c #162A42",
";.	c #1D3858",
">.	c #1F3D5D",
",.	c #29445A",
"'.	c #999E9F",
").	c #8C8B86",
"!.	c #BEBCB7",
"~.	c #D7D6D2",
"{.	c #E6E5E3",
"].	c #70706F",
"^.	c #000000",
"/.	c #020202",
"(.	c #121212",
"_.	c #A7A5A0",
":.	c #D6D4CE",
"<.	c #E0DFDA",
"[.	c #E5E4E1",
"}.	c #EFEEED",
"|.	c #787878",
"1.	c #444444",
"2.	c #3E3E3E",
"3.	c #2E2E2E",
"4.	c #272727",
"5.	c #212121",
"                                ",
"                                ",
"            . + @               ",
"        # $ % & * = -           ",
"      ; > , ' ) ! ~ { ]         ",
"      ^ / ( , _ : < [ } |       ",
"    1 2 3 4 5 6 7 8 9 0 a b     ",
"    c d e f g h i j k l m n o   ",
"    p q r s t u v w x y z A B   ",
"      C D E F G H I J K L M N   ",
"      O P Q R S T U V W X Y Z   ",
"        `  ...+.@.#.$.%.&.*.=.  ",
"          -.;.>.,.'.).!.~.{.].  ",
"            ^./.(._.:.<.[.}.|.  ",
"                    1.2.3.4.5.  ",
"                                "};
