/* XPM */
static char * gnome_cmd_arrow_down_xpm[] = {
"8 8 2 1",
" 	c None",
".	c #000000",
"   ..   ",
"   ..   ",
"   ..   ",
"   ..   ",
"   ..   ",
" ...... ",
"  ....  ",
"   ..   "};
