/* XPM */
static char * gcmd_view_xpm[] = {
"48 48 841 2",
"  	c None",
". 	c #114C89",
"+ 	c #16508C",
"@ 	c #215992",
"# 	c #376A9F",
"$ 	c #4575A7",
"% 	c #4877A9",
"& 	c #4172A5",
"* 	c #30649B",
"= 	c #1A538E",
"- 	c #1E5690",
"; 	c #19528E",
"> 	c #4776A8",
", 	c #7EA0C6",
"' 	c #A8C0DA",
") 	c #B8CCE1",
"! 	c #BDCFE3",
"~ 	c #B4C8DF",
"{ 	c #A2BBD7",
"] 	c #86A7CB",
"^ 	c #7A9EC6",
"/ 	c #6F96C0",
"( 	c #3E6FA3",
"_ 	c #134D8A",
": 	c #235A93",
"< 	c #4171A4",
"[ 	c #B0C5DC",
"} 	c #EAEFF5",
"| 	c #FEFEFE",
"1 	c #FBFBFC",
"2 	c #C8C9E6",
"3 	c #CDCDE8",
"4 	c #FBFCFE",
"5 	c #FAFCFE",
"6 	c #D3D7EE",
"7 	c #111E9B",
"8 	c #8B9EBB",
"9 	c #7DA0C7",
"0 	c #759BC4",
"a 	c #31649B",
"b 	c #104B88",
"c 	c #265D95",
"d 	c #134E8A",
"e 	c #7598BE",
"f 	c #EBEFF4",
"g 	c #00078E",
"h 	c #6A6DBE",
"i 	c #F8FBFF",
"j 	c #F7FAFF",
"k 	c #ADB4DF",
"l 	c #0B2199",
"m 	c #B7B9C0",
"n 	c #F7F8FB",
"o 	c #A0B9D6",
"p 	c #537FAF",
"q 	c #000000",
"r 	c #292D31",
"s 	c #37699E",
"t 	c #124D89",
"u 	c #7292B5",
"v 	c #383A3C",
"w 	c #ACB2C1",
"x 	c #1B1C9A",
"y 	c #000034",
"z 	c #000644",
"A 	c #2F3AA9",
"B 	c #EFF3FB",
"C 	c #F6FAFF",
"D 	c #6474C4",
"E 	c #00156D",
"F 	c #111112",
"G 	c #3F3F3F",
"H 	c #7E6C6C",
"I 	c #B2C1DB",
"J 	c #254EB0",
"K 	c #6087B5",
"L 	c #0F447C",
"M 	c #00030B",
"N 	c #F6F9FF",
"O 	c #ABD5FF",
"P 	c #94B8DC",
"Q 	c #DEA69C",
"R 	c #E0B2AB",
"S 	c #E2B8B1",
"T 	c #6B91B9",
"U 	c #4F79A7",
"V 	c #DDD2DB",
"W 	c #E4EBFA",
"X 	c #E9F2FF",
"Y 	c #4548AD",
"Z 	c #49448D",
"` 	c #EBD6CD",
" .	c #F6E0D7",
"..	c #CCBDCC",
"+.	c #071B9C",
"@.	c #C4CCEB",
"#.	c #E4EAF8",
"$.	c #112FA7",
"%.	c #6C6F97",
"&.	c #E4D0C7",
"*.	c #F7E5DE",
"=.	c #D2DAEF",
"-.	c #0A39AD",
";.	c #CCDAF5",
">.	c #678DB8",
",.	c #657595",
"'.	c #DCACA3",
").	c #DAA49B",
"!.	c #BE8D85",
"~.	c #BBDBFD",
"{.	c #96C8FB",
"].	c #81ADD8",
"^.	c #C5E1FF",
"/.	c #6598CB",
"(.	c #5984AF",
"_.	c #D15D46",
":.	c #C0C9DA",
"<.	c #205891",
"[.	c #1D558F",
"}.	c #C25849",
"|.	c #7076C5",
"1.	c #E0ECFF",
"2.	c #E5F0FF",
"3.	c #464CB1",
"4.	c #3E2063",
"5.	c #C35741",
"6.	c #D05C46",
"7.	c #342C87",
"8.	c #3F57B8",
"9.	c #516AC0",
"0.	c #162A8E",
"a.	c #99463C",
"b.	c #2A3A9F",
"c.	c #5B92F0",
"d.	c #2B3BA1",
"e.	c #6B7EA2",
"f.	c #0D41B2",
"g.	c #CBDCF7",
"h.	c #D0E1F8",
"i.	c #235992",
"j.	c #134C88",
"k.	c #CA5B48",
"l.	c #B06D63",
"m.	c #A3BFDB",
"n.	c #6193C4",
"o.	c #496E93",
"p.	c #9CBCDD",
"q.	c #416283",
"r.	c #7793B1",
"s.	c #FFFFFF",
"t.	c #FBFCFD",
"u.	c #688FBA",
"v.	c #6389B1",
"w.	c #CBCDE6",
"x.	c #161897",
"y.	c #C8D4F4",
"z.	c #DFEBFE",
"A.	c #2F38A9",
"B.	c #5E659F",
"C.	c #F0F2EF",
"D.	c #FDFFFC",
"E.	c #D6DDEE",
"F.	c #3A57B3",
"G.	c #2243A4",
"H.	c #959EB2",
"I.	c #EAECE9",
"J.	c #DCE6F2",
"K.	c #0543B4",
"L.	c #B4CCF2",
"M.	c #D6E6FF",
"N.	c #B3CBED",
"O.	c #80A0C0",
"P.	c #FCFCFC",
"Q.	c #DDDDDD",
"R.	c #9AB4CF",
"S.	c #344F69",
"T.	c #6D86A0",
"U.	c #A8C4E2",
"V.	c #A4B7CA",
"W.	c #98AAC5",
"X.	c #D3DEEC",
"Y.	c #3B6DA1",
"Z.	c #E2E9F0",
"`.	c #EDEFF5",
" +	c #2B2C9F",
".+	c #5961BC",
"++	c #C2D0F1",
"@+	c #111E9D",
"#+	c #8187A9",
"$+	c #F6F8F5",
"%+	c #F3F5F5",
"&+	c #DFE2E2",
"*+	c #EEF0ED",
"=+	c #FCFEFB",
"-+	c #F9FCFA",
";+	c #306AC3",
">+	c #2363C3",
",+	c #3E76CD",
"'+	c #286AC4",
")+	c #114D89",
"!+	c #326599",
"~+	c #B6CADE",
"{+	c #A8B5C3",
"]+	c #8FA1B5",
"^+	c #B4D9FF",
"/+	c #6699CC",
"(+	c #517BAE",
"_+	c #ACC3DC",
":+	c #19508C",
"<+	c #DDDFE1",
"[+	c #B7BADE",
"}+	c #0B1397",
"|+	c #2130A6",
"1+	c #1A2B9A",
"2+	c #BABDC0",
"3+	c #E0EAF4",
"4+	c #759ACB",
"5+	c #4F7CB7",
"6+	c #3D6BA4",
"7+	c #225992",
"8+	c #16508B",
"9+	c #A0BBD5",
"0+	c #5C8AB8",
"a+	c #4A6E94",
"b+	c #5683B0",
"c+	c #90AED0",
"d+	c #154F8B",
"e+	c #2D5E97",
"f+	c #9FA1BA",
"g+	c #C6CBE4",
"h+	c #6670AF",
"i+	c #A2A6B7",
"j+	c #FAFAFA",
"k+	c #8DAACB",
"l+	c #36699E",
"m+	c #5784B0",
"n+	c #7FA2C9",
"o+	c #204F84",
"p+	c #7A7BA6",
"q+	c #FBFDFA",
"r+	c #F8FAF7",
"s+	c #F4F7F9",
"t+	c #E3EBF4",
"u+	c #C5D5EB",
"v+	c #A6BFE3",
"w+	c #88ABDB",
"x+	c #709BD6",
"y+	c #6192D3",
"z+	c #6093D4",
"A+	c #6092D3",
"B+	c #6E9BD6",
"C+	c #92B4DF",
"D+	c #C0D3EB",
"E+	c #E5EAF1",
"F+	c #A6BDD8",
"G+	c #3F6FA3",
"H+	c #4A7095",
"I+	c #5885B1",
"J+	c #7B9FC7",
"K+	c #306398",
"L+	c #6F71A2",
"M+	c #F7F9F6",
"N+	c #AEBEE1",
"O+	c #6685CB",
"P+	c #305EBC",
"Q+	c #0F47B3",
"R+	c #0142B3",
"S+	c #1252BB",
"T+	c #2665C5",
"U+	c #3876CD",
"V+	c #4581D3",
"W+	c #4C85D5",
"X+	c #4780D3",
"Y+	c #3874CD",
"Z+	c #1E5EC2",
"`+	c #054BB8",
" @	c #205DBE",
".@	c #8CABD4",
"+@	c #3A6CA1",
"@@	c #7EA1C8",
"#@	c #1E5590",
"$@	c #1A4F8E",
"%@	c #9193AC",
"&@	c #F9FBF8",
"*@	c #D8DFEE",
"=@	c #7188CB",
"-@	c #143DAD",
";@	c #103EB0",
">@	c #3B67C4",
",@	c #6C92DA",
"'@	c #9AB9ED",
")@	c #B9D2F9",
"!@	c #C7DCFE",
"~@	c #CADFFF",
"{@	c #C8DDFF",
"]@	c #C5DBFF",
"^@	c #C3DAFF",
"/@	c #C1D9FF",
"(@	c #BFD8FF",
"_@	c #BCD6FF",
":@	c #A7C6F9",
"<@	c #6895DF",
"[@	c #A2BAD8",
"}@	c #2A6098",
"|@	c #164F8B",
"1@	c #89A9CD",
"2@	c #35689D",
"3@	c #104A87",
"4@	c #C2C8CD",
"5@	c #F1F4F7",
"6@	c #8596D0",
"7@	c #1335A9",
"8@	c #2449B6",
"9@	c #7193DC",
"0@	c #ACC8F7",
"a@	c #BCD6FE",
"b@	c #BFD7FF",
"c@	c #BED7FF",
"d@	c #BDD6FF",
"e@	c #BCD5FF",
"f@	c #BAD4FF",
"g@	c #B7D3FF",
"h@	c #B4D1FF",
"i@	c #B1CFFF",
"j@	c #ADCCFF",
"k@	c #A9CAFF",
"l@	c #92AFD0",
"m@	c #144E8B",
"n@	c #316398",
"o@	c #A5BDD8",
"p@	c #5B86B4",
"q@	c #698EB5",
"r@	c #E6EAF3",
"s@	c #465CB8",
"t@	c #0C2CA6",
"u@	c #6B8DDB",
"v@	c #A9C9FB",
"w@	c #B3D0FF",
"x@	c #B5D1FF",
"y@	c #B6D2FF",
"z@	c #B7D2FF",
"A@	c #B8D3FF",
"B@	c #B4D0FF",
"C@	c #B2CFFF",
"D@	c #AFCEFF",
"E@	c #ACCCFF",
"F@	c #A5C7FF",
"G@	c #D6E5FC",
"H@	c #5782B1",
"I@	c #7E9EBE",
"J@	c #D5E0ED",
"K@	c #799EC6",
"L@	c #17508B",
"M@	c #144E8A",
"N@	c #6979C3",
"O@	c #213FB2",
"P@	c #8CB0F2",
"Q@	c #A2C6FF",
"R@	c #A8C9FF",
"S@	c #AACAFF",
"T@	c #ACCBFF",
"U@	c #AECCFF",
"V@	c #AECDFF",
"W@	c #ABCBFF",
"X@	c #A7C8FF",
"Y@	c #A4C6FF",
"Z@	c #A0C4FF",
"`@	c #B8D3FE",
" #	c #C5D4E5",
".#	c #154F8A",
"+#	c #F4F6F8",
"@#	c #FDFDFE",
"##	c #81A3C9",
"$#	c #5380AF",
"%#	c #4B76A6",
"&#	c #B1CBF7",
"*#	c #95BDFF",
"=#	c #99C0FF",
"-#	c #9CC2FF",
";#	c #9FC3FF",
">#	c #A1C5FF",
",#	c #A3C6FF",
"'#	c #A4C7FF",
")#	c #A2C5FF",
"!#	c #9DC3FF",
"~#	c #9BC1FF",
"{#	c #97BEFF",
"]#	c #CEE1FD",
"^#	c #5480AE",
"/#	c #688CB1",
"(#	c #A0BBD6",
"_#	c #B3D8FD",
":#	c #5986B1",
"<#	c #CAD8E8",
"[#	c #295F96",
"}#	c #4F7AA8",
"|#	c #DBEAFC",
"1#	c #8FBAFF",
"2#	c #92BCFF",
"3#	c #98BFFF",
"4#	c #9CC1FF",
"5#	c #9AC0FF",
"6#	c #96BEFF",
"7#	c #94BDFF",
"8#	c #91BBFF",
"9#	c #8DB9FF",
"0#	c #86A8D3",
"a#	c #265C94",
"b#	c #FDFDFD",
"c#	c #5D8CBB",
"d#	c #4A7096",
"e#	c #94B1D1",
"f#	c #749AC3",
"g#	c #1A528D",
"h#	c #083AB3",
"i#	c #B5D1FD",
"j#	c #89B6FF",
"k#	c #8BB7FF",
"l#	c #8DB8FF",
"m#	c #8FB9FF",
"n#	c #90BAFF",
"o#	c #92BBFF",
"p#	c #91BAFF",
"q#	c #8EB9FF",
"r#	c #8CB8FF",
"s#	c #93BCFE",
"t#	c #82A6D6",
"u#	c #1F5186",
"v#	c #DCE5ED",
"w#	c #FCFCFD",
"x#	c #F6F8FB",
"y#	c #84A5CA",
"z#	c #7197C1",
"A#	c #19528D",
"B#	c #104B89",
"C#	c #0C449B",
"D#	c #76AAFC",
"E#	c #4F96FF",
"F#	c #72A9FF",
"G#	c #80B1FF",
"H#	c #85B4FF",
"I#	c #87B4FF",
"J#	c #87B5FF",
"K#	c #86B4FF",
"L#	c #85B3FF",
"M#	c #84B2FF",
"N#	c #82B1FF",
"O#	c #7FB0FF",
"P#	c #5988C3",
"Q#	c #114C88",
"R#	c #205286",
"S#	c #A8ADB5",
"T#	c #F2F2F4",
"U#	c #F1F5F8",
"V#	c #84A5C9",
"W#	c #779BC3",
"X#	c #2D609C",
"Y#	c #0F4C8A",
"Z#	c #1559AD",
"`#	c #8FBEFD",
" $	c #2C81FF",
".$	c #438DFF",
"+$	c #5797FF",
"@$	c #619DFF",
"#$	c #66A1FF",
"$$	c #68A3FF",
"%$	c #6AA4FF",
"&$	c #588DD6",
"*$	c #2660A1",
"=$	c #38628D",
"-$	c #8A8D93",
";$	c #CBCCCD",
">$	c #4F5055",
",$	c #F7F7FA",
"'$	c #F9FBFC",
")$	c #A1BAD6",
"!$	c #7A9EC7",
"~$	c #628BB9",
"{$	c #205893",
"]$	c #124C8B",
"^$	c #3473C4",
"/$	c #76ABFE",
"($	c #A1C5FD",
"_$	c #7DB0FE",
":$	c #2A65B7",
"<$	c #155191",
"[$	c #124D8C",
"}$	c #265687",
"|$	c #57697E",
"1$	c #87878B",
"2$	c #909094",
"3$	c #ACACAE",
"4$	c #C5C6C7",
"5$	c #FEFFFE",
"6$	c #DCE5F0",
"7$	c #8AA8CF",
"8$	c #6B92BE",
"9$	c #4374A7",
"0$	c #265C95",
"a$	c #17508C",
"b$	c #104C89",
"c$	c #2F639A",
"d$	c #4978AA",
"e$	c #87A7C9",
"f$	c #D6E1ED",
"g$	c #535457",
"h$	c #FDFEFD",
"i$	c #6F6F73",
"j$	c #8F8E92",
"k$	c #8C8C90",
"l$	c #ADADAF",
"m$	c #808084",
"n$	c #ACC3DA",
"o$	c #F8F8F8",
"p$	c #F6F6F6",
"q$	c #E9EEF5",
"r$	c #B4C8E0",
"s$	c #91AFD1",
"t$	c #81A3CA",
"u$	c #7C9FC6",
"v$	c #7C9FC7",
"w$	c #85A6CB",
"x$	c #9DB8D5",
"y$	c #D3DBEB",
"z$	c #605F65",
"A$	c #747478",
"B$	c #7C7C80",
"C$	c #8D8D91",
"D$	c #B2B2B4",
"E$	c #4C739A",
"F$	c #E9EFF7",
"G$	c #C0C0C0",
"H$	c #C6C6C7",
"I$	c #C6C7C7",
"J$	c #C9C9C9",
"K$	c #D2C8BF",
"L$	c #D6CDC5",
"M$	c #DCD4CE",
"N$	c #DCD4CD",
"O$	c #D9D0C9",
"P$	c #D5CCC4",
"Q$	c #DBD4CD",
"R$	c #DCD5CE",
"S$	c #D6CEC5",
"T$	c #C8C8C8",
"U$	c #58585C",
"V$	c #B1B1B3",
"W$	c #A3A3A5",
"X$	c #89B0D6",
"Y$	c #A7BED5",
"Z$	c #ACC2D9",
"`$	c #ACC2DA",
" %	c #B9CDE1",
".%	c #BBBBBD",
"+%	c #4F535A",
"@%	c #5986B2",
"#%	c #5B89B6",
"$%	c #5B89B7",
"%%	c #5D8AB8",
"&%	c #5988BB",
"*%	c #5786BA",
"=%	c #5785B8",
"-%	c #5785B7",
";%	c #8B8B90",
">%	c #AEAFB3",
",%	c #DADBDC",
"'%	c #5B8AB8",
")%	c #5A87B5",
"!%	c #527DAD",
"~%	c #5887BA",
"{%	c #5A88B5",
"]%	c #7A7C81",
"^%	c #B4B4B6",
"/%	c #DDDEDF",
"(%	c #B2D7FD",
"_%	c #527BA5",
":%	c #556576",
"<%	c #3C3C3B",
"[%	c #3D3D3D",
"}%	c #404040",
"|%	c #414140",
"1%	c #40403F",
"2%	c #40403E",
"3%	c #424240",
"4%	c #434341",
"5%	c #444442",
"6%	c #444443",
"7%	c #454544",
"8%	c #464646",
"9%	c #474746",
"0%	c #474747",
"a%	c #444445",
"b%	c #3D3D3F",
"c%	c #394C72",
"d%	c #2E496E",
"e%	c #36536F",
"f%	c #35526F",
"g%	c #334F70",
"h%	c #294276",
"i%	c #4D5058",
"j%	c #B1D6FC",
"k%	c #6598CA",
"l%	c #4F78A1",
"m%	c #464645",
"n%	c #F1F1F4",
"o%	c #E2E2E1",
"p%	c #E4E4E3",
"q%	c #DDE0E4",
"r%	c #E2E4E7",
"s%	c #E3E6E9",
"t%	c #EDEDEC",
"u%	c #EBEBEA",
"v%	c #ECEBEB",
"w%	c #EEEEEE",
"x%	c #EDEDED",
"y%	c #E8E8E8",
"z%	c #E0E0E0",
"A%	c #AFADAC",
"B%	c #484747",
"C%	c #3A5877",
"D%	c #4A7197",
"E%	c #5E7992",
"F%	c #35507E",
"G%	c #4E4F54",
"H%	c #727276",
"I%	c #4A4A49",
"J%	c #E4E5E4",
"K%	c #D5D5D3",
"L%	c #CECECA",
"M%	c #CCCCC8",
"N%	c #71777F",
"O%	c #25384B",
"P%	c #26394D",
"Q%	c #273A4E",
"R%	c #6F7F90",
"S%	c #C2C1BF",
"T%	c #DDDCDB",
"U%	c #DFDEDD",
"V%	c #D8D8D8",
"W%	c #CDCDCD",
"X%	c #B7B6B6",
"Y%	c #B7B7BA",
"Z%	c #ABA9AA",
"`%	c #454444",
" &	c #436689",
".&	c #5886B2",
"+&	c #7FA2C3",
"@&	c #416284",
"#&	c #5783AF",
"$&	c #BFC0C1",
"%&	c #6092C2",
"&&	c #4E769D",
"*&	c #4C4C4C",
"=&	c #E6E6E4",
"-&	c #CECEC9",
";&	c #D1D1CD",
">&	c #CFCEC9",
",&	c #203041",
"'&	c #395774",
")&	c #43668A",
"!&	c #375472",
"~&	c #DFE0DE",
"{&	c #E0E0DF",
"]&	c #D9D9D9",
"^&	c #C8C8C7",
"/&	c #B6B6B6",
"(&	c #ABABAC",
"_&	c #AEADAE",
":&	c #B6B4B3",
"<&	c #A1A2A2",
"[&	c #434443",
"}&	c #44688C",
"|&	c #5783B0",
"1&	c #5783B1",
"2&	c #7FA0C2",
"3&	c #3E5F83",
"4&	c #5682AD",
"5&	c #4C4C4B",
"6&	c #E5E5E3",
"7&	c #CFCEC8",
"8&	c #CBCDCC",
"9&	c #D6D6D2",
"0&	c #1F3041",
"a&	c #426486",
"b&	c #4E769F",
"c&	c #E3E3E3",
"d&	c #DCDCDC",
"e&	c #C5C5C5",
"f&	c #B6B6B8",
"g&	c #AFAFB1",
"h&	c #A6A4A4",
"i&	c #B2B1B1",
"j&	c #B6B5B5",
"k&	c #A5A8A3",
"l&	c #444644",
"m&	c #5885B2",
"n&	c #AEAEB0",
"o&	c #56515D",
"p&	c #4B4B48",
"q&	c #E9E9E6",
"r&	c #D9D9D5",
"s&	c #DCDBD8",
"t&	c #DEDDDB",
"u&	c #4D759F",
"v&	c #E7E7E7",
"w&	c #D6D6D6",
"x&	c #C3C3C3",
"y&	c #B9BAB9",
"z&	c #B4B4B4",
"A&	c #BDBBBB",
"B&	c #BBB9BA",
"C&	c #C1C1C0",
"D&	c #A2A8A5",
"E&	c #414240",
"F&	c #406182",
"G&	c #496E94",
"H&	c #4F4F4D",
"I&	c #ECEBE9",
"J&	c #DDDCD9",
"K&	c #DEDEDB",
"L&	c #DFDFDF",
"M&	c #BDBDBE",
"N&	c #C1C2C4",
"O&	c #C5C3C3",
"P&	c #C7C6C5",
"Q&	c #C4C3C2",
"R&	c #BCBDBC",
"S&	c #BCBEBB",
"T&	c #929490",
"U&	c #3C3D3C",
"V&	c #57525E",
"W&	c #50504E",
"X&	c #EDECEA",
"Y&	c #DDDCDA",
"Z&	c #DDDDDB",
"`&	c #DFDFDD",
" *	c #D1D1D2",
".*	c #C8C8C9",
"+*	c #C7C7C8",
"@*	c #CCCAC9",
"#*	c #C3C2C2",
"$*	c #B8B9B9",
"%*	c #BABCB8",
"&*	c #B9BDB6",
"**	c #B9BEB6",
"=*	c #A1A39F",
"-*	c #393A39",
";*	c #4F504F",
">*	c #ECECEB",
",*	c #DDDEDC",
"'*	c #D5D5D5",
")*	c #C8C7C6",
"!*	c #A8B2BD",
"~*	c #B6BAB5",
"{*	c #B7BBB4",
"]*	c #B4B9B1",
"^*	c #A9ACA6",
"/*	c #838482",
"(*	c #343433",
"_*	c #50504F",
":*	c #DEDEDD",
"<*	c #DFDFDE",
"[*	c #4C759F",
"}*	c #4C749F",
"|*	c #D5D4D3",
"1*	c #C0BFBF",
"2*	c #B9B9BA",
"3*	c #B5B9B2",
"4*	c #B5BAB1",
"5*	c #ABAEA8",
"6*	c #9FA19D",
"7*	c #9EA09C",
"8*	c #7A7B7A",
"9*	c #323332",
"0*	c #B3D8FE",
"a*	c #DBDCDB",
"b*	c #D7D7D6",
"c*	c #3D5C7B",
"d*	c #4C749E",
"e*	c #495766",
"f*	c #AAAEB2",
"g*	c #B2B3B1",
"h*	c #B2B5B0",
"i*	c #ABAEA7",
"j*	c #9D9F9B",
"k*	c #9B9D98",
"l*	c #999B97",
"m*	c #959693",
"n*	c #757571",
"o*	c #323130",
"p*	c #546A80",
"q*	c #5D8DBC",
"r*	c #4F779F",
"s*	c #D6D6D5",
"t*	c #D0D0CE",
"u*	c #C1C2C0",
"v*	c #6A7887",
"w*	c #2F4760",
"x*	c #3A5876",
"y*	c #374B5F",
"z*	c #A1A1A3",
"A*	c #D3D4D3",
"B*	c #AEB2AB",
"C*	c #AFB3AC",
"D*	c #B0B4AC",
"E*	c #999A96",
"F*	c #979995",
"G*	c #949592",
"H*	c #8B8C8A",
"I*	c #878785",
"J*	c #737470",
"K*	c #2F2F2E",
"L*	c #3A5A79",
"M*	c #859EB7",
"N*	c #426587",
"O*	c #456A8E",
"P*	c #495A6B",
"Q*	c #364350",
"R*	c #585857",
"S*	c #BABABA",
"T*	c #999A98",
"U*	c #8D8E8E",
"V*	c #848485",
"W*	c #878686",
"X*	c #A0A09F",
"Y*	c #AEAEAD",
"Z*	c #ABABAB",
"`*	c #A1A2A0",
" =	c #838581",
".=	c #7B7E77",
"+=	c #737571",
"@=	c #686A67",
"#=	c #636563",
"$=	c #5C5D5B",
"%=	c #5A5A59",
"&=	c #61615E",
"*=	c #2E2F2D",
"==	c #212121",
"-=	c #2C435A",
";=	c #35506C",
">=	c #1B2A3A",
"                                                                                                ",
"                                      . . . . . . . . .                                         ",
"                                  + . . @ # $ % & * = . . .                                     ",
"                              - . ; > , ' ) ! ~ { ] ^ / ( _ . .                                 ",
"                            : . < [ } | 1 2 3 4 5 6 7 8 9 0 a . b                               ",
"                          c d e f         g h i j k l m n o ^ p . b                             ",
"          q q q q q q r s t u v w x y q q z A B C D E F G H I J K b L q q q q q M q             ",
"        q N O P Q R S T . U V W X Y Z `  ...+.@.#.$.%.&. .*.=.-.;.>.. ,.'.).!.~.{.].q           ",
"        q ^./.(._._.:.<.[.}.|.1.2.3.4.5._.6.7.8.9.0.a.b.c.d.e.f.g.h.i.j.k._.l.m.n.o.q           ",
"        q p.q.r.s.t.u.. v.w.x.y.z.A.B.C.D.D.E.F.G.H.I.D.D.D.J.K.L.M.N.. O.P.Q.R.S.T.q           ",
"        q U.V.W.s.X.Y.. Z.`. +.+++@+#+$+D.D.D.%+&+*+=+D.D.D.-+;+>+,+'+)+!+| Q.~+{+]+q           ",
"        q ^+/+(+s._+: :+<+D.[+}+|+1+2+=+D.D.D.D.D.D.D.D.D.D.D.3+4+5+6+7+8+| Q.9+0+a+q           ",
"        q ^+/+b+s.c+d+e+f+D.D.g+h+i+I.D.D.D.D.D.D.D.D.D.D.D.D.D.D.j+k+l+. | Q.9+0+a+q           ",
"        q ^+/+m+s.n+. o+p+q+D.D.q+r+D.D.D.s+t+u+v+w+x+y+z+A+B+C+D+E+F+G+. | Q.9+0+H+q           ",
"        q ^+/+I+s.J+d K+L+M+D.D.D.D.s+N+O+P+Q+R+S+T+U+V+W+X+Y+Z+`+ @.@+@. | Q.9+0+H+q           ",
"        q ^+/+I+s.@@#@$@%@&@D.D.*@=@-@;@>@,@'@)@!@~@{@]@^@/@(@_@:@<@[@}@|@| Q.9+0+a+q           ",
"        q ^+/+I+s.1@2@3@4@D.5@6@7@8@9@0@a@b@b@b@b@c@d@e@f@g@h@i@j@k@l@m@n@| Q.9+0+a+q           ",
"        q ^+/+I+s.o@p@. q@r@s@t@u@v@i@w@x@y@z@A@g@y@x@B@C@D@E@k@F@G@H@. I@| Q.9+0+a+q           ",
"        q ^+/+I+s.J@K@L@M@N@O@P@Q@F@R@S@T@j@U@V@V@j@j@W@k@X@Y@Z@`@ #: .#+#| Q.9+0+H+q           ",
"        q ^+/+I+s.@###$#. %#&#*#=#-#;#>#,#'#F@F@F@F@Y@)#Z@!#~#{#]#^#. /#| | Q.(#0+H+q           ",
"        q _#/.:#s.s.<#^ [#. }#|#1#2#*#3#=#~#4#-#4#~#5#3#6#7#8#9#0#_ a#b#| | Q.9+c#d#q           ",
"        q ^+/+I+s.s.| e#f#g#. h#i#j#k#l#m#n#8#o#o#p#n#q#r#j#s#t#d+u#v#| | | Q.9+0+a+q           ",
"        q ^+/+I+s.s.w#x#y#z#A#B#C#D#E#F#G#H#I#J#J#K#L#M#N#O#P#Q#R#S#| j+| | Q.9+0+a+q           ",
"        q ^+/+I+s.s.s.T#U#V#W#X#B#Y#Z#`# $.$+$@$#$$$%$%$&$*$Q#=$-$| ;$>$| | Q.9+0+a+q           ",
"        q ^+/+I+s.s.s.,$w#'$)$!$~${$. . ]$^$/$($_$:$<$[$. }$|$1$| 2$3$4$>$| Q.9+0+H+q           ",
"        q ^+/+I+| | | | | 5$5$6$7$!$8$9$0$a$. . b$= c$d$e$f$g$h$i$j$k$l$m$>$Q.n$0+H+q           ",
"        q ^+/+I+@#@#o$p$p$D.D.5$@#q$r$s$t$u$J+v$w$x$! y$D.D.D.D.z$A$B$C$D$3$>$~+0+a+q           ",
"        q ^+/+E$F$G$H$I$J$K$K$K$L$M$N$O$L$P$L$O$Q$R$S$K$K$K$K$K$T$U$A$B$k$V$W$>$0+a+q           ",
"        q ^+/+/+X$Y$Z$`$n$ % % % % % % % % % % % % % % % % % % %n$`$>$A$B$C$D$.%+%a+q           ",
"        q ^+/+/./.@%#%$%%%&%&%&%&%&%&%&%&%&%&%&%&%*%=%-%&%&%&%&%%%$%0+>$A$B$;%>%,%>$q           ",
"        q ^+/././.'%)%#%@%&%&%&%&%&%&%&%&%&%&%&%&%!%~%&%&%&%&%&%0+0+$%{%>$A$]%C$^%/%>$          ",
"        q (%/././._%:%<%[%G }%|%|%1%2%3%4%5%6%6%7%8%9%0%0%a%b%c%d%e%f%g%h%i%A$B$k$V$,%>$        ",
"        q j%k%k%k%l%m%n%o%p%p%q%r%s%s%s%s%t%u%u%v%w%w%x%y%z%A%B%C%D%D%D%E%F%G%H%B$C$^%4$>$      ",
"        q j%k%k%k%l%I%J%K%L%M%N%O%P%P%Q%R%S%T%T%U%V%W%X%^%Y%Z%`% &.&.&.&+&@&#&>$A$B$k$V$$&>$    ",
"        q _#%&%&%&&&*&=&-&;&>&,&'&)&)&)&!&~&{&{&]&^&/&(&_&:&<&[&}&|&1&|&2&3&4&{%>$A$B$C$^%V$>$  ",
"        q (%%&%&%&&&5&6&7&8&9&0&a&b&b&b&!&J%c&d&e&f&g&h&i&j&k&l&}&|&|&|&2&a&m&{%{%>$A$B$k$n&o&  ",
"        q (%%&%&%&&&p&q&r&s&t&,&a&b&u&b&!&v&w&x&y&z&A&B&C&C&D&E&}&|&|&|&2&F&{%{%{%G&>$A$B$m$>$  ",
"        q (%%&%&%&&&H&I&J&K&~&,&a&b&b&b&!&L&M&M&N&O&P&Q&R&S&T&U&}&|&|&|&2&a&{%{%{%G&q >$V&>$    ",
"        q (%%&%&%&&&W&X&Y&Z&`&,&a&b&b&b&!& *.*+*@*#*$*%*&***=*-*}&|&|&|&2&a&{%{%{%G&q           ",
"        q (%%&%&%&&&;*>*Y&,*~&,&a&b&b&b&!&'*)*P&Q&!*~*{*]*^*/*(*}&|&|&|&2&a&{%{%{%G&q           ",
"        q (%%&%&%&&&_*>*Z&:*<*,&a&[*}*b&!&|*1*1*2*3*4*5*6*7*8*9*}&|&|&|&2&a&{%{%{%G&q           ",
"        q 0*%&%&%&&&_*>*a*a*b*,&c*b&d*)&e*L&f*g*h*i*j*k*l*m*n*o*}&|&|&|&2&a&{%{%{%G&q           ",
"        q p*q*q*q*r*;*u%s*t*u*v*w*x*x*y*z*A*B*C*D*E*F*G*H*I*J*K*L*G&G&G&M*N*$%$%$%O*q           ",
"        q q P*P*Q*q R*S*T*U*V*W*X*Y*Y*Z*`* =.=.=+=@=#=$=%=R*&=*=q q q q ==-=;=;=;=>=q           ",
"          q q q q   q q q q q q q q q q q q q q q q q q q q q q           q q q q q q           ",
"                                                                                                ",
"                                                                                                ",
"                                                                                                "};
