/* XPM */
static char * key_xpm[] = {
"46 48 143 2",
"  	c None",
". 	c #000000",
"+ 	c #262626",
"@ 	c #9D9D9D",
"# 	c #FFFFFF",
"$ 	c #D9D9D9",
"% 	c #464646",
"& 	c #EBEBEB",
"* 	c #DEDEDE",
"= 	c #DDDDDD",
"- 	c #E7E7E7",
"; 	c #DFDFDF",
"> 	c #929292",
", 	c #CDC7B2",
"' 	c #F9F2D9",
") 	c #F7ECC6",
"! 	c #F3E3AA",
"~ 	c #EED680",
"{ 	c #3A341E",
"] 	c #EDEDED",
"^ 	c #DCDCDC",
"/ 	c #DBDBDB",
"( 	c #DADADA",
"_ 	c #E1E1E1",
": 	c #E9E9E9",
"< 	c #A5A5A5",
"[ 	c #2D2D2D",
"} 	c #B3AE9C",
"| 	c #A7A498",
"1 	c #4F472A",
"2 	c #4A4227",
"3 	c #D3D3D3",
"4 	c #E0E0E0",
"5 	c #E5E5E5",
"6 	c #A4A4A4",
"7 	c #FCF9EF",
"8 	c #8C8C8C",
"9 	c #040404",
"0 	c #D8D8D8",
"a 	c #D7D7D7",
"b 	c #E3E3E3",
"c 	c #C9C9C9",
"d 	c #C6C6C6",
"e 	c #B7B7B7",
"f 	c #BBBBBB",
"g 	c #E6E6E6",
"h 	c #BEBEBE",
"i 	c #D1D1D1",
"j 	c #9E8E55",
"k 	c #F9F9F9",
"l 	c #C8C8C8",
"m 	c #E2E2E2",
"n 	c #F1F1F1",
"o 	c #D2D2D2",
"p 	c #EEEEEE",
"q 	c #F4F4F4",
"r 	c #F2F2F2",
"s 	c #BABABA",
"t 	c #C5C5C5",
"u 	c #695E38",
"v 	c #030303",
"w 	c #EFEFEF",
"x 	c #D0D0D0",
"y 	c #CBCBCB",
"z 	c #C1C1C1",
"A 	c #BFBFBF",
"B 	c #A1A1A1",
"C 	c #CCCCCC",
"D 	c #ABABAB",
"E 	c #010101",
"F 	c #1B1B1B",
"G 	c #E8E8E8",
"H 	c #B5B5B5",
"I 	c #B1B1B1",
"J 	c #A9A9A9",
"K 	c #A8A8A8",
"L 	c #919191",
"M 	c #8F8F8F",
"N 	c #9F9F9F",
"O 	c #7E7E7E",
"P 	c #727272",
"Q 	c #F8F8F8",
"R 	c #CECECE",
"S 	c #BCBCBC",
"T 	c #C0C0C0",
"U 	c #959595",
"V 	c #A7A7A7",
"W 	c #202020",
"X 	c #F7F7F7",
"Y 	c #F3F3F3",
"Z 	c #CDCDCD",
"` 	c #070707",
" .	c #AAAAAA",
"..	c #676767",
"+.	c #E4E4E4",
"@.	c #B3B3B3",
"#.	c #6F6F6F",
"$.	c #787878",
"%.	c #B9B9B9",
"&.	c #9A9A9A",
"*.	c #4F4F4F",
"=.	c #6D6D6D",
"-.	c #161616",
";.	c #CFCFCF",
">.	c #5E5E5E",
",.	c #0D0D0D",
"'.	c #616161",
").	c #6C6C6C",
"!.	c #797979",
"~.	c #686868",
"{.	c #888888",
"].	c #C4C4C4",
"^.	c #5B5B5B",
"/.	c #969696",
"(.	c #949494",
"_.	c #9C9C9C",
":.	c #989898",
"<.	c #5D5D5D",
"[.	c #848484",
"}.	c #B2B2B2",
"|.	c #B6B6B6",
"1.	c #B4B4B4",
"2.	c #606060",
"3.	c #B0B0B0",
"4.	c #6A6A6A",
"5.	c #494949",
"6.	c #C2C2C2",
"7.	c #D6D6D6",
"8.	c #9E9E9E",
"9.	c #515151",
"0.	c #D5D5D5",
"a.	c #AFAFAF",
"b.	c #898989",
"c.	c #D4D4D4",
"d.	c #A2A2A2",
"e.	c #080808",
"f.	c #C3C3C3",
"g.	c #A3A3A3",
"h.	c #1E1E1E",
"i.	c #BDBDBD",
"j.	c #7F7F7F",
"k.	c #828282",
"l.	c #7B7B7B",
"                                                                                            ",
"                                                                                            ",
"                                                                                            ",
"                                                                                            ",
"                                                                                            ",
"                                                                                            ",
"                                                                                            ",
"                                . . . . .                                                   ",
"                            + @ # # # # $ . .                                               ",
"          . . . . . . .   % # # & * = = - ; > +                                             ",
"        . , ' ) ! ~ ~ ~ { # ] = = ^ ^ / ( _ : < .                                           ",
"      [ } | . . . . . 1 ~ 2 ; 3 * = ^ ^ / / 4 5 6 .                                         ",
"      . 7 . .       . 8 1 ~ 9 / = * = 4 0 0 a ; b + .                                       ",
"      . ! .       . . # . ~ . . c * * d e f g / 4 4 h . . . . . . . . . . . . . .           ",
"      . ~ .     . i . # . j . . . k ; l * m n ^ ^ 4 o p q r r r r r r r r q r _ s .         ",
"      . ~ .     @ t . # . u . v . k ; l * m w ^ = m x x y t z A A A A A A A c B .           ",
"      . . j . . C D . # . . E F 8 k 4 c ; * w = * p G _ H I c J K J L M c C N . .           ",
"        . . u . g . O 8 # . . P Q : _ c 4 ; w * ( c R S . . T . . . U . < N . .             ",
"          . . . - . V W # X k k Y m m Z Y q n S L . . . . ` . .   . . . . . .               ",
"              . G .  ...+ # 5 g +.b m +.b b / @.. E                                         ",
"              . G #.$.%.. $ i 4 +.b b m m A &.*..                                           ",
"              . 0 =.-.i  .. . ;.$ ^ 4 z B >.. . ,.                                          ",
"                % _ '.W a z #.. . ).$.!.. . ~.{..                                           ",
"                . ].N ^.-.@.T /.'.. . . >.(._._.@ .                                         ",
"                  . T :.<.. + J S h @ [.J H < }.|.1..                                       ",
"                    . 2.3.4.5.. . . . . . :.6.o ].7.S .                                     ",
"                      . T z 8.9.. . .   9 . . . y S 0.a..                                   ",
"                      . s b f b..             . z z %.c.e .                                 ",
"                        . = ^ d..             . . . a.f 7.1..                               ",
"                        . . ^ d..                 e.. f.f 0.D .                             ",
"                      . 6 _ 0 d..                   . 6 I s 0 1..                           ",
"                        . 0.7.d..                     . g.y f 0 J .                         ",
"                          . 0.d..                     . (.( ;.Z = . h.                      ",
"                        . . 0.d..                       . . . . . .                         ",
"                        . ^ 0.d..                                                           ",
"                        . @ 0.d..                                                           ",
"                        . &.0.d..                                                           ",
"                      . c i.0.d..                                                           ",
"                      . j.- * d..                                                           ",
"                        . k.^ d..                                                           ",
"                          . !.l..                                                           ",
"                            . . .                                                           ",
"                                                                                            ",
"                                                                                            ",
"                                                                                            ",
"                                                                                            ",
"                                                                                            ",
"                                                                                            "};
