/* XPM */
static char * lock_xpm[] = {
"48 48 445 2",
"  	c None",
". 	c #000000",
"+ 	c #010101",
"@ 	c #9B9B9B",
"# 	c #D0D0D0",
"$ 	c #E3E3E3",
"% 	c #E9E9E9",
"& 	c #DDDDDD",
"* 	c #C6C6C6",
"= 	c #919191",
"- 	c #BEBEBE",
"; 	c #EAEAEA",
"> 	c #F1F1F1",
", 	c #F3F3F3",
"' 	c #EDEDED",
") 	c #E6E6E6",
"! 	c #E2E2E2",
"~ 	c #D8D8D8",
"{ 	c #9C9C9C",
"] 	c #606060",
"^ 	c #F0F0F0",
"/ 	c #ECECEC",
"( 	c #E4E4E4",
"_ 	c #E1E1E1",
": 	c #D6D6D6",
"< 	c #B7B7B7",
"[ 	c #454545",
"} 	c #858585",
"| 	c #D9D9D9",
"1 	c #CECECE",
"2 	c #C2C2C2",
"3 	c #CCCCCC",
"4 	c #D5D5D5",
"5 	c #DCDCDC",
"6 	c #E0E0E0",
"7 	c #C8C8C8",
"8 	c #B9B9B9",
"9 	c #626262",
"0 	c #5E5E5E",
"a 	c #E8E8E8",
"b 	c #BCBCBC",
"c 	c #585858",
"d 	c #141414",
"e 	c #7B7B7B",
"f 	c #DFDFDF",
"g 	c #C3C3C3",
"h 	c #BBBBBB",
"i 	c #4C4C4C",
"j 	c #979797",
"k 	c #B6B6B6",
"l 	c #EBEBEB",
"m 	c #8A8A8A",
"n 	c #DBDBDB",
"o 	c #B3B3B3",
"p 	c #939393",
"q 	c #C0C0C0",
"r 	c #020202",
"s 	c #A2A2A2",
"t 	c #E5E5E5",
"u 	c #A0A0A0",
"v 	c #808080",
"w 	c #D1D1D1",
"x 	c #AEAEAE",
"y 	c #767676",
"z 	c #F2F2F2",
"A 	c #2F2F2F",
"B 	c #828282",
"C 	c #EEEEEE",
"D 	c #B5B5B5",
"E 	c #9F9F9F",
"F 	c #0F0F0F",
"G 	c #1F1F1F",
"H 	c #A8A8A8",
"I 	c #EFEFEF",
"J 	c #CBCBCB",
"K 	c #C5C5C5",
"L 	c #DADADA",
"M 	c #CACACA",
"N 	c #ABABAB",
"O 	c #ADACAA",
"P 	c #371908",
"Q 	c #9C5217",
"R 	c #B86E25",
"S 	c #B96B26",
"T 	c #A75A1C",
"U 	c #A55E1F",
"V 	c #BC732A",
"W 	c #B86F27",
"X 	c #97551A",
"Y 	c #C99C62",
"Z 	c #F4E1CB",
"` 	c #F4E0C9",
" .	c #EFDBBE",
"..	c #ECD5B7",
"+.	c #EBD2B4",
"@.	c #EAD2B3",
"#.	c #EBCFB0",
"$.	c #E9CEAE",
"%.	c #E8CCAB",
"&.	c #E7CCA8",
"*.	c #E8C7A1",
"=.	c #E6C6A1",
"-.	c #E5C5A0",
";.	c #E3C29A",
">.	c #E0C09B",
",.	c #E0BD93",
"'.	c #DFBA92",
").	c #DFBA8E",
"!.	c #DDB386",
"~.	c #D5AC7C",
"{.	c #A2611B",
"].	c #F5E6D0",
"^.	c #EAD3AF",
"/.	c #EACFAF",
"(.	c #DAB88B",
"_.	c #DAB687",
":.	c #D8B081",
"<.	c #D6AE7F",
"[.	c #D3AB7C",
"}.	c #D1A974",
"|.	c #CFA56E",
"1.	c #CCA36D",
"2.	c #CA9F67",
"3.	c #C89E67",
"4.	c #C69B63",
"5.	c #C29861",
"6.	c #C2935B",
"7.	c #BF9052",
"8.	c #BC884B",
"9.	c #BD8440",
"0.	c #BA7E3D",
"a.	c #B37634",
"b.	c #A76A22",
"c.	c #8D5314",
"d.	c #F5E4CE",
"e.	c #E7CDA8",
"f.	c #DFBD90",
"g.	c #D8B183",
"h.	c #D5AD7E",
"i.	c #D2AA7B",
"j.	c #D2A677",
"k.	c #D0A771",
"l.	c #CDA36C",
"m.	c #C89F68",
"n.	c #C59B64",
"o.	c #C49961",
"p.	c #C59A62",
"q.	c #C2985D",
"r.	c #C1945A",
"s.	c #BF9054",
"t.	c #BE8E4F",
"u.	c #BC8749",
"v.	c #BA823F",
"w.	c #B17432",
"x.	c #8B5214",
"y.	c #E0BF97",
"z.	c #DBB486",
"A.	c #D7AF80",
"B.	c #D2AC7B",
"C.	c #D0A66F",
"D.	c #C79C64",
"E.	c #C2975F",
"F.	c #BC8441",
"G.	c #B57C38",
"H.	c #AF732C",
"I.	c #A3661E",
"J.	c #875014",
"K.	c #E8CDA9",
"L.	c #DFBC92",
"M.	c #D2AB7D",
"N.	c #D0AB75",
"O.	c #C79D66",
"P.	c #BF9156",
"Q.	c #BE8645",
"R.	c #BC833F",
"S.	c #B67C37",
"T.	c #AA6C23",
"U.	c #8D5514",
"V.	c #E8CEA9",
"W.	c #E1BC94",
"X.	c #DAB487",
"Y.	c #D8B281",
"Z.	c #D0A873",
"`.	c #CAA16B",
" +	c #BE8F51",
".+	c #BA813D",
"++	c #B77E3A",
"@+	c #B37934",
"#+	c #A66921",
"$+	c #E5C9A4",
"%+	c #DDBA90",
"&+	c #D2A575",
"*+	c #D1A770",
"=+	c #BD8C4C",
"-+	c #BC8845",
";+	c #BB823E",
">+	c #A96B22",
",+	c #E9CDAC",
"'+	c #E7CBA6",
")+	c #D0A473",
"!+	c #CA9F70",
"~+	c #C99C6B",
"{+	c #C69460",
"]+	c #BF8E56",
"^+	c #B8874F",
"/+	c #B4834B",
"(+	c #AE7C45",
"_+	c #AD7A43",
":+	c #AF7B43",
"<+	c #B07C44",
"[+	c #B27F48",
"}+	c #B3824A",
"|+	c #B6864E",
"1+	c #B78750",
"2+	c #B6874F",
"3+	c #B78850",
"4+	c #B7874E",
"5+	c #B68548",
"6+	c #B68344",
"7+	c #BC8543",
"8+	c #B37832",
"9+	c #E8CCA7",
"0+	c #E5CAA4",
"a+	c #DCB98F",
"b+	c #D7B284",
"c+	c #D7B285",
"d+	c #D8AF80",
"e+	c #D8B27C",
"f+	c #D6B27D",
"g+	c #D7B47D",
"h+	c #D8B57C",
"i+	c #DAB77E",
"j+	c #DBB980",
"k+	c #DBB880",
"l+	c #D9B67E",
"m+	c #D7B47B",
"n+	c #D5B078",
"o+	c #D0AA73",
"p+	c #CCA164",
"q+	c #C89C5E",
"r+	c #C49656",
"s+	c #C28F4F",
"t+	c #BF8843",
"u+	c #B57D3A",
"v+	c #B57836",
"w+	c #AD722C",
"x+	c #A4661D",
"y+	c #CEA572",
"z+	c #CCA06A",
"A+	c #C99C64",
"B+	c #C1955E",
"C+	c #BC8F57",
"D+	c #B6854E",
"E+	c #AE7E44",
"F+	c #A9753D",
"G+	c #AA723C",
"H+	c #A9723B",
"I+	c #AA733C",
"J+	c #AA793F",
"K+	c #AD7C43",
"L+	c #B18247",
"M+	c #B5814A",
"N+	c #B7854A",
"O+	c #B78649",
"P+	c #B88648",
"Q+	c #B78145",
"R+	c #B87E3B",
"S+	c #B77F3C",
"T+	c #B0752F",
"U+	c #A46821",
"V+	c #895114",
"W+	c #E9CEAA",
"X+	c #DCB78A",
"Y+	c #DDB88B",
"Z+	c #DAB587",
"`+	c #D8B484",
" @	c #D8B581",
".@	c #DBB681",
"+@	c #DBB985",
"@@	c #DDBA83",
"#@	c #DFBE86",
"$@	c #DEBE88",
"%@	c #DDBD87",
"&@	c #DCBB85",
"*@	c #D9B680",
"=@	c #D6B27B",
"-@	c #D1AA72",
";@	c #CAA367",
">@	c #C79C61",
",@	c #C39659",
"'@	c #C0904F",
")@	c #BE8847",
"!@	c #B67A39",
"~@	c #B17630",
"{@	c #D2AC77",
"]@	c #CFA070",
"^@	c #CDA26C",
"/@	c #C89D66",
"(@	c #C39761",
"_@	c #BE915A",
":@	c #B08046",
"<@	c #AD7740",
"[@	c #A8773D",
"}@	c #AA783E",
"|@	c #AA7942",
"1@	c #AC7B45",
"2@	c #B28049",
"3@	c #B5854D",
"4@	c #B68952",
"5@	c #B98850",
"6@	c #B8884E",
"7@	c #BA8A4E",
"8@	c #B98748",
"9@	c #B98442",
"0@	c #B77D38",
"a@	c #AD6F26",
"b@	c #D5AF81",
"c@	c #D5AF80",
"d@	c #D6AB7C",
"e@	c #D5AE78",
"f@	c #D2AD77",
"g@	c #D4AF78",
"h@	c #D5B17A",
"i@	c #D9B57D",
"j@	c #DAB87F",
"k@	c #DAB77F",
"l@	c #D5B178",
"m@	c #D2AC74",
"n@	c #CDA66F",
"o@	c #C99C60",
"p@	c #C4985C",
"q@	c #C29353",
"r@	c #BF8B4C",
"s@	c #BE8641",
"t@	c #B57938",
"u@	c #AD762E",
"v@	c #AF722A",
"w@	c #E1BD96",
"x@	c #D5AB7B",
"y@	c #D2A878",
"z@	c #CDA573",
"A@	c #CA9F69",
"B@	c #C4965E",
"C@	c #BD8E57",
"D@	c #B07E46",
"E@	c #AE7B43",
"F@	c #AC7941",
"G@	c #AD7A42",
"H@	c #AF7C45",
"I@	c #B18048",
"J@	c #B6884D",
"K@	c #B8864B",
"L@	c #B8874C",
"M@	c #B88443",
"N@	c #B97F3C",
"O@	c #BD8242",
"P@	c #DBB88E",
"Q@	c #D5B07E",
"R@	c #D4AC7C",
"S@	c #D5AD77",
"T@	c #D2AB75",
"U@	c #D3AC74",
"V@	c #D7B378",
"W@	c #D9B77B",
"X@	c #D9B77F",
"Y@	c #D9B67D",
"Z@	c #D6B27A",
"`@	c #D3AE75",
" #	c #CEA871",
".#	c #CB9F66",
"+#	c #C89B5E",
"@#	c #C49658",
"##	c #C08D4F",
"$#	c #B47B37",
"%#	c #C08D51",
"&#	c #894E14",
"*#	c #DCB387",
"=#	c #D1AB76",
"-#	c #D1A572",
";#	c #C09257",
">#	c #C1975C",
",#	c #BD8D4E",
"'#	c #BC8947",
")#	c #B8803D",
"!#	c #AF742E",
"~#	c #864C13",
"{#	c #E6CAA5",
"]#	c #BE9055",
"^#	c #BD9056",
"/#	c #BD8E50",
"(#	c #BB8444",
"_#	c #B17732",
":#	c #AD712A",
"<#	c #CA9D63",
"[#	c #874D14",
"}#	c #E4C8A3",
"|#	c #DAB88D",
"1#	c #CBA26C",
"2#	c #C19256",
"3#	c #CC9F69",
"4#	c #D2AB79",
"5#	c #B87F3B",
"6#	c #BC823D",
"7#	c #CEA16B",
"8#	c #E8CBA5",
"9#	c #CDA46E",
"0#	c #C09359",
"a#	c #B9813E",
"b#	c #BC8545",
"c#	c #CDA06A",
"d#	c #E6C9A3",
"e#	c #D9B888",
"f#	c #D3A676",
"g#	c #BC8C4D",
"h#	c #BE8A4D",
"i#	c #BE8B4F",
"j#	c #C79D60",
"k#	c #E6C8A1",
"l#	c #E1C39C",
"m#	c #DAB385",
"n#	c #C2995F",
"o#	c #D2AA77",
"p#	c #D4A773",
"q#	c #BF8A4C",
"r#	c #B17330",
"s#	c #331707",
"t#	c #B2752D",
"u#	c #C49A5D",
"v#	c #B87E39",
"w#	c #B37532",
"x#	c #AF772E",
"y#	c #AC742B",
"z#	c #AA7229",
"A#	c #AE7129",
"B#	c #A96D26",
"C#	c #A56922",
"D#	c #A36720",
"E#	c #A2651D",
"F#	c #9E6119",
"G#	c #9B5F18",
"H#	c #995D16",
"I#	c #925615",
"J#	c #58300D",
"K#	c #261105",
"L#	c #311607",
"                                                                                                ",
"                                                                                                ",
"                                                                                                ",
"                                                                                                ",
"                                          . . . + . . .                                         ",
"                                      . + @ # $ % & * = + . .                                   ",
"                                  . + - ; > , > ' ; ) ! ~ { + .                                 ",
"                                . ] $ , ^ / ) ( $ ! ! ! _ : < [ .                               ",
"                              . } / , ; $ | 1 2 2 3 4 5 6 & 7 8 9 .                             ",
"                            . 0 / , a 5 b c d . . . e - 6 f 5 g h i .                           ",
"                            + ! , % ~ j . .           . { & 6 ~ h k +                           ",
"                          . 8 , l ~ m .                 . = n f 1 o p .                         ",
"                          + ; > & q r                     . s t & q k +                         ",
"                          u > a * v .                       r 5 ; w x y .                       ",
"                        . # z | q A                           B C 5 D E .                       ",
"                        . _ > 3 q F                           G / ! q H .                       ",
"                        . ) I J < .                           . % t K x .                       ",
"                        . L l M N .                           . ( $ M O .                       ",
"                    P P P Q R S T P P P P P P P P P P P P P P P U V W X P P P P                 ",
"                  P Y Z `  ...+.@.#.$.%.&.*.=.=.=.=.=.*.*.=.-.-.;.>.,.'.).!.~.{.P               ",
"                  P ].^./.;.(._.:.<.[.}.|.1.2.2.2.2.2.2.2.3.4.5.6.7.8.9.0.a.b.c.P               ",
"                  P d.$.e.f.g.h.i.j.k.l.m.n.o.o.o.p.p.p.p.o.q.r.s.t.u.v.0.w.b.x.P               ",
"                  P ].#.$.y.z.:.A.B.j.C.1.2.D.D.D.D.D.D.D.p.E.6.s.t.F.v.G.H.I.J.P               ",
"                  P d./.K.L.h.M.i.N.C.l.m.D.n.p.n.D.3.m.2.O.n.o.q.P.t.Q.R.S.T.U.P               ",
"                  P d.$.V.W.X.Y.A.i.Z.|.`.2.D.3.3.m.m.m.2.n.p.E.r. +u..+++@+#+x.P               ",
"                  P Z K.$+%+h.i.i.&+*+1.2.3.p.n.D.3.m.2.2.3.4.o.E.P.=+-+;+S.>+c.P               ",
"                  P d.,+'+L.:.)+!+~+{+]+^+/+(+_+:+<+[+}+|+1+2+3+4+5+6+7+0.8+b.x.P               ",
"                  P Z 9+0+a+<.b+c+d+e+f+g+h+i+j+j+k+l+m+n+o+p+q+r+s+t+u+v+w+x+J.P               ",
"                  P d.,+'+%+h.y+z+A+B+C+D+E+F+G+H+I+J+K+L+M+N+O+P+Q+R+S+S.T+U+V+P               ",
"                  P ]./.W+W.z.X+Y+Z+`+ @.@+@@@#@$@%@&@*@=@-@;@>@,@'@)@S+!@~@U+x.P               ",
"                  P Z W+$+(.{@]@^@/@(@_@2+:@<@[@}@|@1@2@3@4@5@6@7@8@9@v.0@8+a@V+P               ",
"                  P d.W+'+a+<.b@c@d@e@f@g@h@i@j@k+k@h+l@m@n@o@p@q@r@s@++t@u@v@J.P               ",
"                  P ]./.W+w@z.x@y@z@A@B@C@1+D@E@F@G@H@I@3@J@K@L@P+M@N@++t@H.O@J.P               ",
"                  P Z &.=.P@[.Q@R@S@T@U@m@n+V@W@W@X@Y@Z@`@ #.#+#@###)@0.$#~@%#&#P               ",
"                  P ` '+=.*#=#-#C.l.m.o.E.;#P.P.;#6.>#q.5.6.P.s.,#'#)#G.v+!#%#~#P               ",
"                  P Z {#=.z.=#k.|.`.3.o.6.P.]# +^#^#^#^#^#/#,#8.(#v.++$#_#:#<#[#P               ",
"                  P Z 9+}#|#[.j.N.C.1#m.4.o.E.q.5.5.o.o.o.5.2#P. +8.F.u+G.~@3#V+P               ",
"                  P d.K.$+a+h.i.4#*+|.`.m.p.p.p.p.p.p.p.p.o.6.P.7.u.R.++5#6#7#&#P               ",
"                  P Z 8#$+(.i.&+*+9#2.D.o.>#0#;#;#;#;#;#;#P.7.t.'#(#a#G.5#b#c#J.P               ",
"                  P ` d#-.e#f#k.|.1#2.4.p.o.q.5.5.o.o.p.p.o.r.0#s.g#'#h#o.i#j#&#P               ",
"                  P ` k#l#m#-#|.l.m.n.n#6.;#P.P.;#6.>#p.3.l.l.7#7#4#o#-#p#q#r#[#P               ",
"                  s#t#j#u#=+0.v#!@v+w#x#w+y#z#z#z#A#A#A#A#z#B#T.C#D#E#F#G#H#I#J#K#              ",
"                    L#P P P P P P P P P P P P P P P P P P P P P P P P P P P P K#                ",
"                                                                                                ",
"                                                                                                ",
"                                                                                                ",
"                                                                                                ",
"                                                                                                "};
