/* XPM */
static char * symlink_xpm[] = {
"9 9 11 1",
" 	c None",
".	c #000000",
"+	c #FFFFFF",
"@	c #003366",
"#	c #EFEFEF",
"$	c #CCCCCC",
"%	c #002C59",
"&	c #002850",
"*	c #00254A",
"=	c #181818",
"-	c #090909",
".........",
".+++++++.",
".+@@@@#$.",
".+@@@##$.",
".+@@@@#$.",
".+@#@@%$.",
".+###&*$.",
".+$$$$$$=",
"..-......"};
