/* XPM */
static char * root_dir_xpm[] = {
"16 16 33 1",
" 	c None",
".	c #000000",
"+	c #B4BA9C",
"@	c #9C9D83",
"#	c #9CA183",
"$	c #838973",
"%	c #EEEADE",
"&	c #DEDECD",
"*	c #EEEEE6",
"=	c #C5C6B4",
"-	c #D5D2CD",
";	c #D5DABD",
">	c #C5C6A4",
",	c #CDD2AC",
"'	c #5D5F4E",
")	c #919277",
"!	c #B4B69C",
"~	c #A4A58B",
"{	c #E6E6D5",
"]	c #7B796A",
"^	c #6A6B5C",
"/	c #303129",
"(	c #6A6D62",
"_	c #616152",
":	c #A4AA8B",
"<	c #94997B",
"[	c #B4B694",
"}	c #94957B",
"|	c #626552",
"1	c #7E7E6A",
"2	c #515446",
"3	c #D5D6B4",
"4	c #52554A",
"                ",
"                ",
"   ....         ",
"  .+@+@.        ",
" .#$#$#$......  ",
" .%&*&*&%*=-;>. ",
" .;+,+,+')!~+$. ",
" .{,+,+,.!~+~]. ",
" .;+,+,^/~+~~(. ",
" .{,+,!/_+~:<(. ",
" .;+,[+.+~~<}|. ",
" .{,[+12~~}}$|. ",
" .3]$]}]$](||4. ",
"  ............  ",
"                ",
"                "};
