/* XPM */
static char * server_xpm[] = {
"16 16 4 1",
" 	c None",
".	c #2D2D2D",
"+	c #AAAAAA",
"@	c #545454",
"                ",
"                ",
"      ......    ",
"     .++++..    ",
"    ......+.    ",
"    .++++.+.    ",
"    .@@@@.+.    ",
"    .++++.+.    ",
"    .@@@@.+.    ",
"    .++++.+.    ",
"    .++++.+.    ",
"    .++++.+.    ",
"    .++++..     ",
"    ......      ",
"                ",
"                "};
