/* XPM */
static char * computer_xpm[] = {
"16 16 94 2",
"  	c None",
". 	c #000000",
"+ 	c #DCDCDC",
"@ 	c #E8E8E8",
"# 	c #E7E7E7",
"$ 	c #E6E6E6",
"% 	c #E5E5E5",
"& 	c #E3E3E3",
"* 	c #E2E2E2",
"= 	c #C2C2C2",
"- 	c #F9F9F9",
"; 	c #939393",
"> 	c #5C5C5C",
", 	c #595959",
"' 	c #555555",
") 	c #535353",
"! 	c #4F4F4F",
"~ 	c #5E5E5E",
"{ 	c #ECECEC",
"] 	c #060606",
"^ 	c #F8F8F8",
"/ 	c #4B4B4A",
"( 	c #EEEAF3",
"_ 	c #E3DDEC",
": 	c #CDC3DE",
"< 	c #B9ABD0",
"[ 	c #726093",
"} 	c #141311",
"| 	c #EEEEEE",
"1 	c #030303",
"2 	c #4C4C4B",
"3 	c #F0EBF4",
"4 	c #EBE6F1",
"5 	c #DED7E8",
"6 	c #B7A8CF",
"7 	c #6D598C",
"8 	c #171312",
"9 	c #434240",
"0 	c #EAE5F0",
"a 	c #E5DEED",
"b 	c #D6CEE3",
"c 	c #A898C5",
"d 	c #6B598C",
"e 	c #1B1A18",
"f 	c #EAEAEA",
"g 	c #F7F7F7",
"h 	c #373634",
"i 	c #D4CBE2",
"j 	c #C9BEDB",
"k 	c #BAACD1",
"l 	c #8574A5",
"m 	c #584778",
"n 	c #181715",
"o 	c #F6F6F6",
"p 	c #545453",
"q 	c #545251",
"r 	c #4B4A48",
"s 	c #484745",
"t 	c #454342",
"u 	c #3B3A38",
"v 	c #232322",
"w 	c #E4E4E4",
"x 	c #EFEFEF",
"y 	c #E9E9E9",
"z 	c #E0E0E0",
"A 	c #C5C3AE",
"B 	c #A5A5A5",
"C 	c #0C0C0C",
"D 	c #040404",
"E 	c #050505",
"F 	c #010101",
"G 	c #3E3E3E",
"H 	c #3B3B3B",
"I 	c #444444",
"J 	c #484848",
"K 	c #757575",
"L 	c #DBDBDB",
"M 	c #CACACA",
"N 	c #AFAFAF",
"O 	c #777777",
"P 	c #232323",
"Q 	c #F3F3F3",
"R 	c #DDDDDD",
"S 	c #D6D6D6",
"T 	c #DADADA",
"U 	c #C4C4C4",
"V 	c #B7B7B7",
"W 	c #7F7F7F",
"X 	c #A1A1A1",
"Y 	c #515151",
"Z 	c #4A4A4A",
"` 	c #7A7A7A",
" .	c #3C3C3C",
"..	c #2C2C2C",
"      . . . . . . . . . .       ",
"    . + @ @ # $ % & * =   .     ",
"    . - ; > , ' ) ! ~ { ] .     ",
"    . ^ / ( _ : < [ } | 1 .     ",
"    . ^ 2 3 4 5 6 7 8 { 1 .     ",
"    . ^ 9 0 a b c d e f 1 .     ",
"    . g h i j k l m n @ 1 .     ",
"    . o p q r s t u v w 1 .     ",
"    . { x y % z $ z A B C .     ",
"      . ] D D E E E E F   .     ",
"    .   , G H H H H H I J K .   ",
"  . x # { z # z + L M N O P .   ",
"  . Q f x | % R S T y U V C .   ",
"  . W X > Y Z ) ` ~  ...I ...   ",
"  .                         .   ",
"    . . . . . . . . . . . .     "};
