/* XPM */
static char * network_workgroup_xpm[] = {
"16 16 38 1",
" 	c None",
".	c #5E5E5E",
"+	c #979797",
"@	c #EDEDED",
"#	c #A6A6A6",
"$	c #D8D8D8",
"%	c #7B7B7B",
"&	c #A4A4A4",
"*	c #E6E6E6",
"=	c #F3F3F3",
"-	c #F5F5F6",
";	c #9A9A9A",
">	c #F0F0F0",
",	c #729FCF",
"'	c #78777F",
")	c #BABABA",
"!	c #EEEEEE",
"~	c #3465A4",
"{	c #C0C0C5",
"]	c #F3F3F4",
"^	c #D3D3D3",
"/	c #F5F5F5",
"(	c #EAEAEB",
"_	c #D1D1D1",
":	c #EBEBEB",
"<	c #C0C0C0",
"[	c #D9D9D9",
"}	c #C1C1C1",
"|	c #B7B7B7",
"1	c #BCBCBC",
"2	c #585858",
"3	c #151514",
"4	c #C8C8C8",
"5	c #C5C5C5",
"6	c #E8E8E8",
"7	c #B6B6B6",
"8	c #D5D5D5",
"9	c #C4C4C4",
"  .......       ",
" +@@@@@@@#      ",
".@$%%%%%&*.     ",
".=%---;.......  ",
".>%,,')>>>>>>>) ",
".!%,,.>$%%%%%&>.",
".@%~~.>%--{{]%>.",
".=^%%.>%,,-/,%>.",
".@@@@.>%,,((~%>.",
" .....>%~~~~~%>.",
".=>_:.>^%%%%%<>.",
".[}|12)>>>>>>>).",
"3...............",
"     .=>_::4556.",
"     .[}|117_89.",
"     ..........."};
