/* XPM */
static char * toggle_horizontal_xpm[] = {
"24 24 6 1",
" 	c None",
".	c #C4C4C4",
"+	c #424242",
"@	c #000000",
"#	c #808080",
"$	c #000044",
"                        ",
"                        ",
"                        ",
"   .................+   ",
"   .@@@@@@@@@@@@@@@.+#  ",
"   .@$$$$$$$$$$$$$$.+#  ",
"   .@$......$$...$$.+#  ",
"   .@$$$$$$$$$$$$$$.+#  ",
"   .@$.......$....$.+#  ",
"   .@$$$$$$$$$$$$$$.+#  ",
"   .@$$$$$$$$$$$$$$.+#  ",
"   .................+#  ",
"   .@@@@@@@@@@@@@@@.+#  ",
"   .@$$$$$$$$$$$$$$.+#  ",
"   .@$....$$$$....$.+#  ",
"   .@$$$$$$$$$$$$$$.+#  ",
"   .@$.......$...$$.+#  ",
"   .@$$$$$$$$$$$$$$.+#  ",
"   .@$$$$$$$$$$$$$$.+#  ",
"   .................+#  ",
"    +++++++++++++++++#  ",
"     #################  ",
"                        ",
"                        "};
