/* XPM */
static char * file_type_symlink_to_dir_red_xpm[] = {
"16 16 139 2",
"  	c None",
". 	c #E02A1C",
"+ 	c #9E371C",
"@ 	c #FF2E29",
"# 	c #E74E35",
"$ 	c #941A1A",
"% 	c #F03441",
"& 	c #FF9DBD",
"* 	c #FF3A25",
"= 	c #B42600",
"- 	c #CE2F2C",
"; 	c #FFA9BD",
"> 	c #FFAFC9",
", 	c #F6261C",
"' 	c #9E0B00",
") 	c #FF412D",
"! 	c #E33B3F",
"~ 	c #F44032",
"{ 	c #F61E1E",
"] 	c #F71611",
"^ 	c #FF532B",
"/ 	c #F34F39",
"( 	c #C2343E",
"_ 	c #FF637D",
": 	c #FF7F9A",
"< 	c #FF8B99",
"[ 	c #F1623B",
"} 	c #B83400",
"| 	c #FC715A",
"1 	c #FFC3D4",
"2 	c #FFDFEA",
"3 	c #FFD9EE",
"4 	c #FBD9F0",
"5 	c #FFC5D9",
"6 	c #FED4E1",
"7 	c #FAAABF",
"8 	c #FF5363",
"9 	c #FF2B3A",
"0 	c #FF6177",
"a 	c #FF717E",
"b 	c #EB0D0D",
"c 	c #B73613",
"d 	c #F32323",
"e 	c #FF89AA",
"f 	c #FF7585",
"g 	c #FF5777",
"h 	c #FF697E",
"i 	c #F84070",
"j 	c #F1517B",
"k 	c #FF576B",
"l 	c #FF454E",
"m 	c #FF4347",
"n 	c #E82C35",
"o 	c #EA384D",
"p 	c #FF4F68",
"q 	c #ED2B0B",
"r 	c #D15E25",
"s 	c #E91F1B",
"t 	c #FF7D99",
"u 	c #FF6B79",
"v 	c #FF5D74",
"w 	c #FF595D",
"x 	c #FF4747",
"y 	c #FF3D3D",
"z 	c #FF3B40",
"A 	c #FF2D37",
"B 	c #FF1319",
"C 	c #F8000C",
"D 	c #FF0F1A",
"E 	c #FF5970",
"F 	c #E32613",
"G 	c #C24C18",
"H 	c #F53A1B",
"I 	c #FF7D8C",
"J 	c #FF7373",
"K 	c #FF5D65",
"L 	c #FF4F4B",
"M 	c #F04656",
"N 	c #F13B4C",
"O 	c #F3253D",
"P 	c #FE142A",
"Q 	c #F80410",
"R 	c #FF0F0F",
"S 	c #FC0C00",
"T 	c #EE1600",
"U 	c #FF4633",
"V 	c #BF390F",
"W 	c #EB100B",
"X 	c #FF4351",
"Y 	c #FF374F",
"Z 	c #FF4350",
"` 	c #FF253A",
" .	c #FF2131",
"..	c #F20410",
"+.	c #F30309",
"@.	c #EA0006",
"#.	c #E60000",
"$.	c #E00000",
"%.	c #D8270A",
"&.	c #D2480C",
"*.	c #E20606",
"=.	c #FF5974",
"-.	c #FF4F64",
";.	c #FF334B",
">.	c #FF2736",
",.	c #F7292E",
"'.	c #FF0D0D",
").	c #EA0600",
"!.	c #F20B00",
"~.	c #E61600",
"{.	c #FF1F01",
"].	c #DA1F00",
"^.	c #CA2E0A",
"/.	c #B54A29",
"(.	c #BA2C00",
"_.	c #D23100",
":.	c #CA2B00",
"<.	c #CE2C00",
"[.	c #C1561B",
"}.	c #B63108",
"|.	c #CE1800",
"1.	c #E00500",
"2.	c #E00B00",
"3.	c #FF1E13",
"4.	c #AE0004",
"5.	c #DA3408",
"6.	c #A61F00",
"7.	c #F41700",
"8.	c #E60C1C",
"9.	c #D01D00",
"0.	c #D34615",
"a.	c #8E1100",
"b.	c #FF3127",
"c.	c #E02A00",
"d.	c #C1401D",
"e.	c #A61B00",
"f.	c #E42000",
"g.	c #A12205",
"h.	c #BF2B03",
"              . +               ",
"              @ # $             ",
"              % & * =           ",
"              - ; > , '         ",
") ! ~ { ] ^ / ( _ : < [ }       ",
"| 1 2 3 4 5 6 7 8 9 0 a b c     ",
"d e f g h i j k l m n o p q r   ",
"s t u v k w x y z A B C D E F G ",
"H I J K L M N O P Q R S T U m V ",
"W E X Y Z `  .D ..+.@.#.$.%.&.  ",
"*.=.-.;.>.,.'.R ).!.~.{.].^.    ",
"/.(._.:.<.[.}.|.1.2.3.4.5.      ",
"              6.7.8.9.0.        ",
"              a.b.c.d.          ",
"              e.f.g.            ",
"              h.a.              "};
