/* XPM */
static char * file_type_fifo_xpm[] = {
"16 16 117 2",
"  	c None",
". 	c #000000",
"+ 	c #97AF83",
"@ 	c #899C75",
"# 	c #020302",
"$ 	c #94AA81",
"% 	c #9FBA8B",
"& 	c #779262",
"* 	c #0E0505",
"= 	c #180909",
"- 	c #030302",
"; 	c #869B76",
"> 	c #789463",
", 	c #687F57",
"' 	c #5C2222",
") 	c #1A0909",
"! 	c #200C0C",
"~ 	c #552A2C",
"{ 	c #1A080A",
"] 	c #81966F",
"^ 	c #799763",
"/ 	c #728A61",
"( 	c #4E5642",
"_ 	c #481B1B",
": 	c #373322",
"< 	c #6E8A56",
"[ 	c #802C35",
"} 	c #7F946F",
"| 	c #819D6C",
"1 	c #6B8358",
"2 	c #505A43",
"3 	c #020201",
"4 	c #503E39",
"5 	c #230C0C",
"6 	c #946266",
"7 	c #552622",
"8 	c #201A12",
"9 	c #A5313E",
"0 	c #63804C",
"a 	c #1C2317",
"b 	c #525E45",
"c 	c #040403",
"d 	c #53423C",
"e 	c #405133",
"f 	c #3C2E2D",
"g 	c #5D7549",
"h 	c #271E16",
"i 	c #170808",
"j 	c #65824E",
"k 	c #73905B",
"l 	c #080907",
"m 	c #68524B",
"n 	c #070705",
"o 	c #313D26",
"p 	c #455234",
"q 	c #2D2C1D",
"r 	c #271511",
"s 	c #698255",
"t 	c #64804F",
"u 	c #586A48",
"v 	c #0E0306",
"w 	c #4F2C2A",
"x 	c #A2655F",
"y 	c #5E2323",
"z 	c #31352B",
"A 	c #596C49",
"B 	c #5C7649",
"C 	c #698058",
"D 	c #434A36",
"E 	c #191E15",
"F 	c #769460",
"G 	c #65824F",
"H 	c #6A7F5A",
"I 	c #7C9866",
"J 	c #6D865A",
"K 	c #5D6E4D",
"L 	c #131611",
"M 	c #171C14",
"N 	c #B5C6A9",
"O 	c #90AE78",
"P 	c #658051",
"Q 	c #586B4A",
"R 	c #617355",
"S 	c #48503B",
"T 	c #20261C",
"U 	c #181E14",
"V 	c #BBCAB0",
"W 	c #A0BA8C",
"X 	c #718D5C",
"Y 	c #687E58",
"Z 	c #272A1F",
"` 	c #080404",
" .	c #121410",
"..	c #232C1C",
"+.	c #A3B794",
"@.	c #72905C",
"#.	c #687D57",
"$.	c #586548",
"%.	c #040503",
"&.	c #8B9B7C",
"*.	c #838B75",
"=.	c #7A9764",
"-.	c #677D57",
";.	c #515C42",
">.	c #100E0B",
",.	c #060705",
"'.	c #161815",
").	c #A1BA8D",
"!.	c #7F9A6A",
"~.	c #3F4230",
"{.	c #546145",
"].	c #1B1A15",
"^.	c #38352B",
"/.	c #1A1714",
"(.	c #6B8459",
"_.	c #566447",
":.	c #211D18",
"                          . + @ ",
"                        # $ % & ",
"                * =   - ; % > , ",
"            ' ) ! ~ { ] % ^ / ( ",
"          _   . : < [ } | 1 2 3 ",
"        4 5 . 6 7 8 9 0 a b c   ",
"        d   e f g h i j k l     ",
"        m n o p q r s t u v     ",
"          w x y z A B C D       ",
"          E F G H I J K L       ",
"        M N O P Q R S T         ",
"      U V W X Y Z `  .          ",
"    ..+.% @.#.$.%.              ",
"  ..&.*.=.-.;.>.                ",
",.'.).!.~.{.].                  ",
"  ^./.(._.:.                    "};
