/* XPM */
static char * file_type_socket_xpm[] = {
"16 16 3 1",
" 	c None",
".	c #000000",
"+	c #D6D6D6",
"                ",
"                ",
"      ....      ",
"    ..++++..    ",
"   .++++++++.   ",
"   .++++++++.   ",
"  .++++++++++.  ",
"  .++..++..++.  ",
"  .++..++..++.  ",
"  .++++++++++.  ",
"   .++++++++.   ",
"   .++++++++.   ",
"    ..++++..    ",
"      ....      ",
"                ",
"                "};
