/* XPM */
static char * file_type_unknown_xpm[] = {
"16 16 23 1",
" 	c None",
".	c #F9F4FB",
"+	c #E5E8E4",
"@	c #DBDCDB",
"#	c #D9D9D9",
"$	c #F9F9F9",
"%	c #CBD1CA",
"&	c #E3E5F0",
"*	c #FAFBFA",
"=	c #F8FCFD",
"-	c #FDFDFD",
";	c #DADCDF",
">	c #DEDFEC",
",	c #F4F8F3",
"'	c #F1F2F1",
")	c #DDE4DB",
"!	c #D4DAD2",
"~	c #EBEEEA",
"{	c #94C77A",
"]	c #B5D8A4",
"^	c #71B74F",
"/	c #369B0D",
"(	c #FFFFFF",
"   *!^///^]~    ",
"  ~^//^^^^//]   ",
" ~^/{)(((,]^/]  ",
",^/](({^{'()^/) ",
"!/{(~/////)(!/^ ",
"^/+(^/{!^/{*$^/~",
"/^(({]=(~/^,.]/!",
"/^((((((]/{.&]/]",
"/^((((,{/^,~&{/!",
"^^'(-(]^^'~@#{/+",
"]/].'.){]'@@%/^,",
"'//!~.]/^~;#^/] ",
" !//]>)]!+%^/{  ",
"  !//^{]{{//{   ",
"   +{/////^]    ",
"    (~)])~$     "};
