/* XPM */
static char * file_type_symlink_to_dir_green_xpm[] = {
"16 16 144 2",
"  	c None",
". 	c #33D53E",
"+ 	c #289A3E",
"@ 	c #3EF843",
"# 	c #4DDB61",
"$ 	c #269026",
"% 	c #58E34D",
"& 	c #CAFFAF",
"* 	c #3CF44D",
"= 	c #0CB02B",
"- 	c #3FC743",
"; 	c #CBFEBC",
"> 	c #D6FFC1",
", 	c #38E641",
"' 	c #089E13",
") 	c #45F555",
"! 	c #55D852",
"~ 	c #4EE659",
"{ 	c #3AE63A",
"] 	c #2EE633",
"^ 	c #40F85F",
"/ 	c #54E665",
"( 	c #4DBE44",
"_ 	c #91F57D",
": 	c #A7FF8F",
"< 	c #A9FE9E",
"[ 	c #56E470",
"} 	c #07B935",
"| 	c #75F187",
"1 	c #E2FFD7",
"2 	c #F7FFF3",
"3 	c #F7FFED",
"4 	c #F7FCEC",
"5 	c #E6FFD9",
"6 	c #EFFDE9",
"7 	c #CEF6C0",
"8 	c #70FE62",
"9 	c #4DF840",
"0 	c #8CF57B",
"a 	c #90FC84",
"b 	c #24E024",
"c 	c #22B23D",
"d 	c #3EE43E",
"e 	c #B6FF99",
"f 	c #95FD87",
"g 	c #8BF472",
"h 	c #8CFE7A",
"i 	c #80EB5B",
"j 	c #8AE66A",
"k 	c #7EF86E",
"l 	c #5BFF53",
"m 	c #55FF51",
"n 	c #4CDB45",
"o 	c #61DE50",
"p 	c #74FE5E",
"q 	c #22E23D",
"r 	c #37CB64",
"s 	c #35DB39",
"t 	c #A5FF8D",
"u 	c #8BFB7F",
"v 	c #86FA72",
"w 	c #7CF96B",
"x 	c #6DFE6A",
"y 	c #55FF55",
"z 	c #4DFD4D",
"A 	c #53F94F",
"B 	c #4BF842",
"C 	c #2BF826",
"D 	c #1CF311",
"E 	c #27FE1C",
"F 	c #7FFE6A",
"G 	c #27DB38",
"H 	c #27BD51",
"I 	c #37E550",
"J 	c #9BFF8D",
"K 	c #83FF83",
"L 	c #74FE6E",
"M 	c #5EFA61",
"N 	c #6BE55F",
"O 	c #63E555",
"P 	c #54E440",
"Q 	c #44EC32",
"R 	c #2AE820",
"S 	c #28F228",
"T 	c #1DEB27",
"U 	c #12E626",
"V 	c #41FF53",
"W 	c #59FB55",
"X 	c #1FB940",
"Y 	c #21E126",
"Z 	c #82FA6E",
"` 	c #6AF15F",
" .	c #67F054",
"..	c #63F957",
"+.	c #45FF31",
"@.	c #3CFF2D",
"#.	c #30F426",
"$.	c #25E71B",
"%.	c #1FE81A",
"&.	c #15E410",
"*.	c #09E709",
"=.	c #00EA00",
"-.	c #1CD036",
";.	c #1DCB4E",
">.	c #19D919",
",.	c #82FE6A",
"'.	c #71FE5E",
").	c #58FE42",
"!.	c #46FB39",
"~.	c #48E844",
"{.	c #27F127",
"].	c #1EFC1E",
"^.	c #0EE613",
"/.	c #0FED19",
"(.	c #00F017",
"_.	c #0EFE2B",
":.	c #0ADA27",
"<.	c #1BC337",
"[.	c #37B151",
"}.	c #0EB431",
"|.	c #0FCD37",
"1.	c #05CF2B",
"2.	c #05D32C",
"3.	c #2ABC5A",
"4.	c #17AF37",
"5.	c #00D819",
"6.	c #00EA06",
"7.	c #00EA0B",
"8.	c #23FB2E",
"9.	c #04B600",
"0.	c #1AD23D",
"a.	c #00AE1D",
"b.	c #09F720",
"c.	c #2DDD1F",
"d.	c #03D721",
"e.	c #26CC4D",
"f.	c #009411",
"g.	c #35FF3F",
"h.	c #0DDD2F",
"i.	c #2CBC47",
"j.	c #00AE19",
"k.	c #06E826",
"l.	c #129C29",
"m.	c #13B732",
"              . +               ",
"              @ # $             ",
"              % & * =           ",
"              - ; > , '         ",
") ! ~ { ] ^ / ( _ : < [ }       ",
"| 1 2 3 4 5 6 7 8 9 0 a b c     ",
"d e f g h i j k l m n o p q r   ",
"s t u v w x y z A B C D E F G H ",
"I J K L M N O P Q R S T U V W X ",
"Y Z `  ...+.@.#.$.%.&.*.=.-.;.  ",
">.,.'.).!.~.{.].^./.(._.:.<.    ",
"[.}.|.1.2.3.4.5.6.7.8.9.0.      ",
"              a.b.c.d.e.        ",
"              f.g.h.i.          ",
"              j.k.l.            ",
"              m.f.              "};
