/* XPM */
static const char * file_type_regular_xpm[] = {
"16 16 60 1",
" 	c None",
".	c #7C7C7C",
"+	c #FFFFFF",
"@	c #FAFAFA",
"#	c #F6F6F6",
"$	c #F3F3F3",
"%	c #EEEEEE",
"&	c #EBEBEB",
"*	c #E7E7E7",
"=	c #E3E3E3",
"-	c #DFDFDF",
";	c #000000",
">	c #F2F2F2",
",	c #EAEAEA",
"'	c #E6E6E6",
")	c #DEDEDE",
"!	c #DBDBDB",
"~	c #D7D7D7",
"{	c #E2E2E2",
"]	c #DADADA",
"^	c #D6D6D6",
"/	c #D2D2D2",
"(	c #F1F1F1",
"_	c #EDEDED",
":	c #E9E9E9",
"<	c #CECECE",
"[	c #E5E5E5",
"}	c #E1E1E1",
"|	c #DDDDDD",
"1	c #D9D9D9",
"2	c #D1D1D1",
"3	c #CDCDCD",
"4	c #CACACA",
"5	c #D5D5D5",
"6	c #C9C9C9",
"7	c #C5C5C5",
"8	c #E4E4E4",
"9	c #E0E0E0",
"0	c #DCDCDC",
"a	c #C1C1C1",
"b	c #D8D8D8",
"c	c #D4D4D4",
"d	c #D0D0D0",
"e	c #CCCCCC",
"f	c #C8C8C8",
"g	c #C0C0C0",
"h	c #BDBDBD",
"i	c #C4C4C4",
"j	c #BCBCBC",
"k	c #B8B8B8",
"l	c #CFCFCF",
"m	c #B4B4B4",
"n	c #D3D3D3",
"o	c #CBCBCB",
"p	c #C7C7C7",
"q	c #C3C3C3",
"r	c #BFBFBF",
"s	c #BBBBBB",
"t	c #B3B3B3",
"u	c #B0B0B0",
"                ",
"   .........    ",
"  .+@#$%&*=-;   ",
"  .@#>%,'=)!~;  ",
"  .#>%,'{)]^/;  ",
"  .(_:'{)]^/<;  ",
"  ._:[}|1^234;  ",
"  .:[}|152367;  ",
"  .890152367a;  ",
"  .90bcdef7gh;  ",
"  .0bcdefigjk;  ",
"  .~clefigjkm;  ",
"  .nlopqrsktu;  ",
"   ;;;;;;;;;;   ",
"                ",
"                "};
