/* XPM */
static char * file_type_symlink_to_dir_orange_xpm[] = {
"16 16 133 2",
"  	c None",
". 	c #FF8E43",
"+ 	c #FF910F",
"@ 	c #FF9B65",
"# 	c #FFA85B",
"$ 	c #FF5907",
"% 	c #FF8A61",
"& 	c #FFBFBF",
"* 	c #FFA461",
"= 	c #FF8F0B",
"- 	c #FF8441",
"; 	c #FFCEC9",
"> 	c #FFCDCD",
", 	c #FF9453",
"' 	c #FA6400",
") 	c #FFA969",
"! 	c #FF8F5D",
"~ 	c #FFA163",
"{ 	c #FF8D55",
"] 	c #FF8B4B",
"^ 	c #FFB667",
"/ 	c #FFAC69",
"( 	c #FF713F",
"_ 	c #FFA593",
": 	c #FFB1A7",
"< 	c #FFC2B1",
"[ 	c #FFBA69",
"} 	c #FFA20F",
"| 	c #FFC189",
"1 	c #FFDFDD",
"2 	c #FFF3F3",
"3 	c #FFEDF1",
"4 	c #FFEBF2",
"5 	c #FFDFDF",
"6 	c #FFEAE9",
"7 	c #FFC9C5",
"8 	c #FFA285",
"9 	c #FF8E67",
"0 	c #FFA691",
"a 	c #FFB49D",
"b 	c #FF7E3F",
"c 	c #FF971D",
"d 	c #FF8E57",
"e 	c #FFB3AF",
"f 	c #FFB39F",
"g 	c #FF9A89",
"h 	c #FFAB97",
"i 	c #FF7B71",
"j 	c #FF8279",
"k 	c #FFA289",
"l 	c #FFA07B",
"m 	c #FFA279",
"n 	c #FF8555",
"o 	c #FF815F",
"p 	c #FF9981",
"q 	c #FF993F",
"r 	c #FFBD3F",
"s 	c #FF8949",
"t 	c #FFB0A5",
"u 	c #FFB199",
"v 	c #FFA28D",
"w 	c #FFA087",
"x 	c #FFAE8B",
"y 	c #FFA67B",
"z 	c #FFA275",
"A 	c #FF9E73",
"B 	c #FF9369",
"C 	c #FF8853",
"D 	c #FF753F",
"E 	c #FF8251",
"F 	c #FFA18B",
"G 	c #FF903F",
"H 	c #FFB129",
"I 	c #FFA351",
"J 	c #FFB8A5",
"K 	c #FFBF9F",
"L 	c #FFAD8D",
"M 	c #FFAC7F",
"N 	c #FF916F",
"O 	c #FF8C69",
"P 	c #FF7B57",
"Q 	c #FF7B53",
"R 	c #FF7843",
"S 	c #FF8A51",
"T 	c #FF8A43",
"U 	c #FF8D39",
"V 	c #FFAB6D",
"W 	c #FF9E21",
"X 	c #FF833F",
"Y 	c #FF9C79",
"Z 	c #FF8D6F",
"` 	c #FF8661",
" .	c #FF875D",
"..	c #FF7A3F",
"+.	c #FF7335",
"@.	c #FF7633",
"#.	c #FF722D",
"$.	c #FF912F",
"%.	c #FFB22D",
"&.	c #FF9E8B",
"*.	c #FF9C81",
"=.	c #FF8C6D",
"-.	c #FF8B63",
";.	c #FF894F",
">.	c #FF7C35",
",.	c #FF853B",
"'.	c #FF8933",
").	c #FF9845",
"!.	c #FF8E29",
"~.	c #FF9625",
"{.	c #FFA42D",
"].	c #FF970F",
"^.	c #FF9F23",
"/.	c #FF9921",
"(.	c #FFBC2B",
"_.	c #FF9813",
":.	c #FF8421",
"<.	c #FF772D",
"[.	c #FF7C2D",
"}.	c #FF5307",
"|.	c #FFA02F",
"1.	c #FF8401",
"2.	c #FF8F3D",
"3.	c #FF6E3B",
"4.	c #FF8921",
"5.	c #FFAB33",
"6.	c #EC6A00",
"7.	c #FF9E63",
"8.	c #FF9A2D",
"9.	c #FF9F2D",
"0.	c #FF7F01",
"a.	c #FF9231",
"b.	c #FF9415",
"              . +               ",
"              @ # $             ",
"              % & * =           ",
"              - ; > , '         ",
") ! ~ { ] ^ / ( _ : < [ }       ",
"| 1 2 3 4 5 6 7 8 9 0 a b c     ",
"d e f g h i j k l m n o p q r   ",
"s t u v w x y z A B C D E F G H ",
"I J K L M N O P Q R S T U V m W ",
"X F Y Z Y `  .E D ..+.@.#.$.%.  ",
"@.&.*.=.-.! ;.S >.,.'.).!.~.    ",
"{.].^.c /.(._.:.<.[., }.|.      ",
"              1.2.3.4.5.        ",
"              6.7.8.9.          ",
"              0.a.1.            ",
"              b.6.              "};
