/* XPM */
static char * file_type_dir_green_xpm[] = {
"16 16 27 1",
" 	c None",
".	c #000000",
"+	c #7FD77F",
"@	c #64BC64",
"#	c #63C163",
"$	c #52AA5E",
"%	c #DFF7D5",
"&	c #BEF0BC",
"*	c #DCF8DE",
"=	c #9AE0A0",
"-	c #B7EBC4",
";	c #B2EEAA",
">	c #9AE189",
",	c #A6EB93",
"'	c #8FDA80",
")	c #7FD37F",
"!	c #6CC46C",
"~	c #CEF4C8",
"{	c #54925D",
"]	c #4D835B",
"^	c #6DC96D",
"/	c #5BB95B",
"(	c #81D476",
"_	c #5DB35D",
":	c #47714B",
"<	c #B2EC9E",
"[	c #3C6446",
"                ",
"                ",
"   ....         ",
"  .+@+@.        ",
" .#$#$#$......  ",
" .%&*&*&%*=-;>. ",
" .;+,+,+,')!+$. ",
" .~,+,+,))!+!{. ",
" .;+,+,)+!+!!]. ",
" .~,+,)+!+!^/]. ",
" .;+,(+!+!!/_:. ",
" .~,(+!+!!__$:. ",
" .<{${_{${]::[. ",
"  ............  ",
"                ",
"                "};
