/* XPM */
static const char * copy_file_names_xpm[] = {
"24 24 3 1",
" 	c None",
".	c #000000",
"+	c #8C8C8C",
"                        ",
"                        ",
"                        ",
"                        ",
"                        ",
"                        ",
"                        ",
"                        ",
"                        ",
"       .       .        ",
"     . .+.   . .+.      ",
"     .....+  .....+     ",
"      ...++   ...++     ",
"     .....   .....      ",
"     .+.+.+  .+.+.+     ",
"      +.+ +.  +.+ +     ",
"        +   +   +       ",
"                        ",
"                        ",
"                        ",
"                        ",
"                        ",
"                        ",
"                        "};
