/* XPM */
static char * gcmd_icon3_xpm[] = {
"49 50 179 2",
"  	c None",
". 	c #000000",
"+ 	c #CECECE",
"@ 	c #E9E9E9",
"# 	c #C9C9C9",
"$ 	c #A5A5A5",
"% 	c #CDCDCD",
"& 	c #00001E",
"* 	c #CCCCCC",
"= 	c #CBCBCB",
"- 	c #CACACA",
"; 	c #00001A",
"> 	c #000018",
", 	c #00001C",
"' 	c #00001B",
") 	c #14142C",
"! 	c #22222C",
"~ 	c #383646",
"{ 	c #1C1C26",
"] 	c #1A191A",
"^ 	c #8B8B8B",
"/ 	c #101010",
"( 	c #636174",
"_ 	c #262630",
": 	c #121212",
"< 	c #595859",
"[ 	c #1B1B1B",
"} 	c #141313",
"| 	c #201F20",
"1 	c #C9C5CD",
"2 	c #EEEBEF",
"3 	c #706E70",
"4 	c #212121",
"5 	c #E8E4E7",
"6 	c #D8D3D7",
"7 	c #5D5A5C",
"8 	c #111111",
"9 	c #2F2E2F",
"0 	c #1A1A1A",
"a 	c #15142C",
"b 	c #605F64",
"c 	c #E0DCE0",
"d 	c #D0CCD0",
"e 	c #BFBABD",
"f 	c #CEC8CC",
"g 	c #C3BFC3",
"h 	c #4B494A",
"i 	c #151515",
"j 	c #161616",
"k 	c #333133",
"l 	c #4B495F",
"m 	c #C8C5CA",
"n 	c #B8B5B8",
"o 	c #D5D1D3",
"p 	c #CEC9CC",
"q 	c #C7C2C6",
"r 	c #BFBABE",
"s 	c #B7B4B8",
"t 	c #979498",
"u 	c #6C6B6D",
"v 	c #757476",
"w 	c #3C3A3A",
"x 	c #9794A1",
"y 	c #D7D3D6",
"z 	c #D2CED1",
"A 	c #CBC5C9",
"B 	c #C1BEC2",
"C 	c #BAB6BA",
"D 	c #B2AEB2",
"E 	c #ACA8AA",
"F 	c #A4A1A5",
"G 	c #9D999D",
"H 	c #959296",
"I 	c #353535",
"J 	c #242324",
"K 	c #29283D",
"L 	c #969496",
"M 	c #C4C0C5",
"N 	c #BCB9BD",
"O 	c #B4B1B5",
"P 	c #888689",
"Q 	c #676667",
"R 	c #979497",
"S 	c #99969A",
"T 	c #918D94",
"U 	c #8C878B",
"V 	c #615F60",
"W 	c #131313",
"X 	c #151615",
"Y 	c #605E6A",
"Z 	c #B9B6BA",
"` 	c #B0AEB2",
" .	c #A5A1A4",
"..	c #252525",
"+.	c #5F5D5F",
"@.	c #8E8A8E",
"#.	c #878485",
"$.	c #7D7B7C",
"%.	c #1C1C1C",
"&.	c #0F0F0F",
"*.	c #757375",
"=.	c #C8C6CA",
"-.	c #ACA9AC",
";.	c #A6A3A6",
">.	c #2A2829",
",.	c #5C5C5D",
"'.	c #232323",
").	c #A3A0A3",
"!.	c #787778",
"~.	c #716F71",
"{.	c #363636",
"].	c #131212",
"^.	c #313131",
"/.	c #ECECEC",
"(.	c #D6D4D6",
"_.	c #B6B2B4",
":.	c #A29EA2",
"<.	c #9A969A",
"[.	c #928F95",
"}.	c #5F5E5E",
"|.	c #2C2C2C",
"1.	c #0E0E0E",
"2.	c #9B979B",
"3.	c #6D6A6C",
"4.	c #656565",
"5.	c #5D5D5D",
"6.	c #494949",
"7.	c #3F3E3F",
"8.	c #454445",
"9.	c #141414",
"0.	c #9A979A",
"a.	c #908C91",
"b.	c #8A8588",
"c.	c #908C8F",
"d.	c #7A797B",
"e.	c #7F7D7F",
"f.	c #888687",
"g.	c #606060",
"h.	c #5A5859",
"i.	c #525152",
"j.	c #424242",
"k.	c #3A373A",
"l.	c #3F3D3F",
"m.	c #323031",
"n.	c #727071",
"o.	c #797879",
"p.	c #727172",
"q.	c #6A696A",
"r.	c #5D5B5C",
"s.	c #555455",
"t.	c #4F4D4D",
"u.	c #393839",
"v.	c #6C6A6C",
"w.	c #7C7B7C",
"x.	c #6D6C6D",
"y.	c #676566",
"z.	c #5F5D5D",
"A.	c #585658",
"B.	c #515050",
"C.	c #4B4A4A",
"D.	c #1E1E1E",
"E.	c #535353",
"F.	c #525050",
"G.	c #464646",
"H.	c #525252",
"I.	c #4D4D4D",
"J.	c #444544",
"K.	c #3B3A3B",
"L.	c #373537",
"M.	c #2B2B2C",
"N.	c #2C2B2B",
"O.	c #444243",
"P.	c #414042",
"Q.	c #2F2C2F",
"R.	c #302F30",
"S.	c #272527",
"T.	c #302E30",
"U.	c #2F2D2F",
"V.	c #343233",
"                                                                                                  ",
"                                                                                                  ",
"                                                                                                  ",
"                                                                                                  ",
"      . . . . . . . . . . . . . . . . . . . . . . . . . . . . . . . . . . . . . . .               ",
"      . + + + + + + + + + + + + + + + + + + + + + + + + + + + + + + + + + + + + @ .               ",
"      . + . . . . . . . . . . . . . . . . . . . . . . . . . . . . . . . . . . . + . .             ",
"      . + . # # # # # # # # # . # # # # # # # # # # # . # # # # # # # # # # # . + . . .           ",
"      . + . # $ $ $ $ $ $ $ $ . # $ $ $ $ $ $ $ $ $ $ . # $ $ $ $ $ $ $ $ $ $ . % . . .           ",
"      . + . # $ $ $ $ $ $ $ $ . # $ $ $ $ $ $ $ $ $ $ . # $ $ $ $ $ $ $ $ $ $ . % . . .           ",
"      . + . . . . . . . . . . . . . . . . . . . . . . . . . . . . . . . . . . . % . . .           ",
"      . + . & & & & & & & & & & & & & & & & & & & & & & & & & & & & & & & & & . * . . .           ",
"      . + . & $ $ $ & $ & $ $ & & & & & & $ $ $ & & & & $ & $ & $ & $ & & & & . * . . .           ",
"      . + . & & & & & & & & & & & & & & & & & & & & & & & & & & & & & & & & & . = . . .           ",
"      . + . & & & & & & & & & & & & & & & & & & & & & & & & & & & & & & & & & . = . . .           ",
"      . + . & $ $ & $ $ & & $ & & & & & & & $ $ & & & & $ & $ & & & $ & & & & . = . . .           ",
"      . + . & & & & & & & & & & & & & & & & & & & & & & & & & & & & & & & & & . - . . .           ",
"      . + . & $ $ $ $ $ $ $ $ $ $ $ $ $ $ $ $ $ $ $ $ $ $ $ $ $ $ $ $ $ $ $ & . - . . .           ",
"      . + . & . . . $ . $ . . $ $ $ $ $ $ . . . $ $ $ $ . $ . $ . $ . $ $ $ & . - . . .           ",
"      . + . & $ $ $ $ $ $ $ $ $ $ $ $ $ $ $ $ $ $ $ $ $ $ $ $ $ $ $ $ $ $ $ & . - . . .           ",
"      . + . & & & & & & & & & & & & & & & & & & & & & & & & & & & & & & & & & . - . . .           ",
"      . + . & $ $ $ & $ $ & $ & & & & & $ $ $ $ & & & & $ & $ & $ & & & & & & . # . . .           ",
"      . + . & & & & & & & & & & & & & & & & & & & & & & & & & & & & & & & & & & # . . .           ",
"      . + . & & & & & & & & & & & & & & & & & & & & & & & & & & & & & & & & & . % . . .           ",
"      . + . & & & & & & & & & & & & & & & & & & & & & & & & & & & & & & & & & . % . . .           ",
"      . + . & & & & & & & & & & & & & & & & & & & & & & & & & & & & & & & & & . * . . .           ",
"      . + . & & & & & & & & & & & & & & ; > & & & & & & & & & & & & & & & & & . * . . .           ",
"      . + . & & & & & & & & & & & & & & , & & ' ' ' ' ' ' ' & & & & & & & & & . = . . .           ",
"      . + . & & & & & & & & & & & & & & & & & & & & & & & & & & & & & & & & & . = . . .           ",
"      . + . & & & & & & & & & & & & & & & & & & & & & & & & & & & & & . . . . . = . . .           ",
"      . + . & & & & & & & & & & & & & & & & & & & & & & & & & & & . . ) ! ~ { ] ^ / . .           ",
"      . + . & & & & & & & & & & & & & & & & & & & & & & & & & & . ( _ : < [ / : } | . .           ",
"      . + . & & & & & & & & & & & & & & & & & & & & & & & & & . 1 2 3 4 5 6 7 8 / 9 0 .           ",
"      . + . & & & & & & & & & & & & & & & & & & & & & & & & . a b c d e f g h / 8 i j k           ",
"      . + . & & & & & & & & & & & & & & & & & & & & & & & . l m n o p q r s t u v / / / w         ",
"      . + . & & & & & & & & & & & & & & & & & & & & & & & . x y z A B C D E F G H I 8 J . .       ",
"      . + . & & & & & & & & & & & & & & & & & & & & & & & . K L M N O P Q R S T U V W X . .       ",
"      . + . & & & & & & & & & & & & & & & & & & & & & & & & . Y Z `  .../ +.@.#.$.%./ / &..       ",
"      . + . . . . . . . . . . . . . . . . . . . . . . . . . *.=.-.;.R >.,.'.).!.~.{.W ].^..       ",
"      . /.* * = * * * = = * * * = * * * = = * * = * * * = = (._.:.<.[.}.|.1.2.3.4.5.6.7.8..       ",
"      . . . . . . . . . . . . . . . . . . . . . . . . . . . 9.0.~.a.b.c.d.e.f.g.h.i.j.k.. . .     ",
"          . . . . . . . . . . . . . . . . . . . . . . . . . . l.m.n.o.p.3 q.r.s.t.u.| / . .       ",
"            . . . . . . . . . . . . . . . . . . . . . . . .     v.w.x.y.z.A.B.C.j.D./ '.. .       ",
"                                                                  E.F.G.H.I.J.K.L.M.N.. . .       ",
"                                                                .       O.P.Q.: R.S.. . . .       ",
"                                                                  . . . T.U.V.  . . . . .         ",
"                                                                        . . . . . . .             ",
"                                                                              . .                 ",
"                                                                                                  ",
"                                                                                                  "};
