/* XPM */
static char * logo_xpm[] = {
"48 48 256 2",
"  	c None",
". 	c #8D8CC1",
"+ 	c #7F7DB9",
"@ 	c #6361AA",
"# 	c #8180B8",
"$ 	c #6664A5",
"% 	c #5D5BA2",
"& 	c #8684BA",
"* 	c #6564A0",
"= 	c #5D5B9B",
"- 	c #514F97",
"; 	c #7170A8",
"> 	c #615F9D",
", 	c #6C6AAA",
"' 	c #575691",
") 	c #484680",
"! 	c #403E81",
"~ 	c #63619E",
"{ 	c #444285",
"] 	c #403E83",
"^ 	c #504E8F",
"/ 	c #45447B",
"( 	c #434287",
"_ 	c #4B4997",
": 	c #5B59A5",
"< 	c #5E5CA8",
"[ 	c #5F5DA8",
"} 	c #7270B2",
"| 	c #5B5A92",
"1 	c #3D3B7D",
"2 	c #424087",
"3 	c #4A4894",
"4 	c #4D4B9B",
"5 	c #4F4D9F",
"6 	c #504EA0",
"7 	c #5250A1",
"8 	c #5351A2",
"9 	c #5452A2",
"0 	c #5A58A4",
"a 	c #5E5DA8",
"b 	c #7675B4",
"c 	c #7675A8",
"d 	c #3D3C7D",
"e 	c #403E82",
"f 	c #6462AA",
"g 	c #5453A2",
"h 	c #5654A3",
"i 	c #5856A4",
"j 	c #5957A5",
"k 	c #6C6BAF",
"l 	c #59579B",
"m 	c #424083",
"n 	c #434182",
"o 	c #444389",
"p 	c #5D5BA7",
"q 	c #4E4C9F",
"r 	c #5B5AA6",
"s 	c #514FA0",
"t 	c #5654A2",
"u 	c #5654A0",
"v 	c #4B4994",
"w 	c #49478B",
"x 	c #474685",
"y 	c #444385",
"z 	c #6F6DB1",
"A 	c #5755A3",
"B 	c #605EA9",
"C 	c #6260A9",
"D 	c #615FA9",
"E 	c #5D5CA7",
"F 	c #4F4D9E",
"G 	c #4A4895",
"H 	c #4B4992",
"I 	c #4F4E93",
"J 	c #494789",
"K 	c #454385",
"L 	c #5B59A6",
"M 	c #6665AC",
"N 	c #6866AD",
"O 	c #4C4A97",
"P 	c #4B4A93",
"Q 	c #4E4C95",
"R 	c #4A488D",
"S 	c #413F82",
"T 	c #4C4A9C",
"U 	c #464590",
"V 	c #46448F",
"W 	c #4B4996",
"X 	c #514F9F",
"Y 	c #5755A4",
"Z 	c #6664AC",
"` 	c #6967AD",
" .	c #47458E",
"..	c #424186",
"+.	c #3E3C7F",
"@.	c #3F3D81",
"#.	c #45438A",
"$.	c #424084",
"%.	c #3F3E80",
"&.	c #3C3B7D",
"*.	c #494893",
"=.	c #504E9E",
"-.	c #5C5AA6",
";.	c #6462AB",
">.	c #4E4C9D",
",.	c #43428A",
"'.	c #3F3E82",
").	c #414086",
"!.	c #49478D",
"~.	c #4A498C",
"{.	c #49488B",
"].	c #474589",
"^.	c #434184",
"/.	c #3C3B7B",
"(.	c #4C4A98",
"_.	c #6563AB",
":.	c #6463AB",
"<.	c #5A58A5",
"[.	c #5553A3",
"}.	c #403F84",
"|.	c #504E92",
"1.	c #514F93",
"2.	c #A0A0B8",
"3.	c #4D4B8F",
"4.	c #3F3E7E",
"5.	c #484693",
"6.	c #6361A9",
"7.	c #6261AA",
"8.	c #605EA8",
"9.	c #4D4C97",
"0.	c #3F3D80",
"a.	c #555496",
"b.	c #A5A4BD",
"c.	c #A7A7B4",
"d.	c #8281A8",
"e.	c #494795",
"f.	c #5351A1",
"g.	c #5957A4",
"h.	c #6160A9",
"i.	c #54529F",
"j.	c #434185",
"k.	c #605FA9",
"l.	c #5A58A6",
"m.	c #5B599F",
"n.	c #5E5DA0",
"o.	c #8C8AB1",
"p.	c #545396",
"q.	c #4A488F",
"r.	c #4E4C9C",
"s.	c #4B4993",
"t.	c #5756A3",
"u.	c #514F9A",
"v.	c #4A4891",
"w.	c #444288",
"x.	c #7473B3",
"y.	c #5857A4",
"z.	c #6361A7",
"A.	c #5F5DA0",
"B.	c #59589B",
"C.	c #525096",
"D.	c #52509F",
"E.	c #4E4C8A",
"F.	c #4F4D99",
"G.	c #565598",
"H.	c #5F5DA7",
"I.	c #55539F",
"J.	c #504E98",
"K.	c #4A4890",
"L.	c #46448E",
"M.	c #716FB1",
"N.	c #53519C",
"O.	c #4C4A86",
"P.	c #3A386F",
"Q.	c #790101",
"R.	c #605FA1",
"S.	c #5E5C9C",
"T.	c #5654A1",
"U.	c #4F4D97",
"V.	c #46448C",
"W.	c #7A79B7",
"X.	c #6765AC",
"Y.	c #5E5DA7",
"Z.	c #5B59A1",
"`.	c #4F4E84",
" +	c #3B3A71",
".+	c #610000",
"++	c #6E0000",
"@+	c #820B0B",
"#+	c #5A5997",
"$+	c #5756A2",
"%+	c #53519B",
"&+	c #514F9B",
"*+	c #44428B",
"=+	c #5D5BA6",
"-+	c #5A59A3",
";+	c #51508B",
">+	c #403F79",
",+	c #650000",
"'+	c #620000",
")+	c #740000",
"!+	c #850202",
"~+	c #5957A1",
"{+	c #58569A",
"]+	c #54539F",
"^+	c #514F9C",
"/+	c #4D4B97",
"(+	c #6C6AAF",
"_+	c #5351A0",
":+	c #575599",
"<+	c #5C5A9C",
"[+	c #52508C",
"}+	c #770000",
"|+	c #7D0000",
"1+	c #7E0000",
"2+	c #820606",
"3+	c #5A5996",
"4+	c #595898",
"5+	c #49488F",
"6+	c #49478F",
"7+	c #47458D",
"8+	c #7674B4",
"9+	c #615FA8",
"0+	c #4E4D98",
"a+	c #494792",
"b+	c #424188",
"c+	c #4A4990",
"d+	c #870000",
"e+	c #4F4D95",
"f+	c #5553A0",
"g+	c #4B4991",
"h+	c #484787",
"i+	c #464486",
"j+	c #454389",
"k+	c #3E3D7E",
"l+	c #3C3A7A",
"m+	c #5B5AA5",
"n+	c #514F9E",
"o+	c #4B499A",
"p+	c #46458D",
"q+	c #494791",
"r+	c #47458C",
"s+	c #48468F",
"t+	c #47458A",
"u+	c #464484",
"v+	c #434281",
"w+	c #413F80",
"x+	c #3D3C7B",
"y+	c #7C7BB8",
"z+	c #4D4B95",
"A+	c #484691",
"B+	c #434186",
"C+	c #3C3B77",
"D+	c #3A3973",
"E+	c #3C3A77",
"F+	c #5A59A5",
"G+	c #474590",
"                                                                                                ",
"                                                                                                ",
"                                                                                                ",
"                                                                                                ",
"                                                                                                ",
"                                                                                                ",
"                                                                                                ",
"                                                                                                ",
"                                                                                                ",
"                                                                                                ",
"                                                .                                               ",
"                                              + @                                               ",
"                                            # $ %                                               ",
"                                          & * = -                     ; >                       ",
"                                          , ' ) !                     ~ { ]                     ",
"                                          ^ / ( _ : < < [ }             | 1 2                   ",
"                                          3 4 5 5 6 7 8 8 9 0 a b       c d e                   ",
"                                        f 6 6 8 g h i j j h g 9 7 k     l m n o                 ",
"                                      p q 5 7 h i j r p < r j h 7 s t u v w x y                 ",
"                                    z q 5 6 8 A j r < B C D E j j 9 F G H I J K 2               ",
"                                    6 q q 5 s 8 h L E C M N @ D p A 7 O P Q R S e               ",
"                                    q q T U V W X Y p D Z ` M @ B i 8 4 G  ...+.@.2             ",
"                                  z q q #.$.%.&.*.=.h -.C Z ` ;.< j 8 >.,.    +.'.).            ",
"                                  g q !.~.{.].^./.(.8 A E _.` :.< <.[.=.e       ).}.            ",
"                                  7 q |.1.2.3.w 4.5.s 9 r 6.Z 7.8.<.A 9.!         0.            ",
"                                  h 5 a.b.c.d.3.K e.6 f.g.a h.C p L i.H j.                      ",
"                                k.l.h m.n.o.p.|.q.r.s.t.-.8.a [ r j u.v.w.                      ",
"                            x.[ Y y.l.6 z.A.B.C.D.E.F.G.h.@ H.-.-.I.J.K.L.                      ",
"                          M._.@ E 8 -.9 7 [.9 N.O.P.Q.R.S.[ L y.T.N.U.V.                        ",
"                      W.X.X.` Z L 7 8 Y.h A Z.`. +.+++@+#+: A $+%+&+o *+                        ",
"                    k X.M _.D <.h 6 q h =+-+;+>+,+'+)+!+~+{+<.]+^+/+*+                          ",
"                  (+Z _.D <.Y _+W e.    :+<+[+  }+|+1+2+3+4+g.i.Q 5+6+7+                        ",
"              8+9+h.p <.T.0+a+b+          c+      d+    f.e+f+F.g+w h+i+j+k+l+                  ",
"            D m+r j n+W L.                            o+p+q+r+#.s+t+u+v+w+x+                    ",
"          y+g.=.z+A+,.                                            B+C+D+E+                      ",
"            F+G+                                                                                ",
"                                                                                                ",
"                                                                                                ",
"                                                                                                ",
"                                                                                                ",
"                                                                                                ",
"                                                                                                ",
"                                                                                                ",
"                                                                                                ",
"                                                                                                ",
"                                                                                                ",
"                                                                                                ",
"                                                                                                "};
