/* XPM */
static char * gnome_commander_xpm[] = {
"48 48 31 1",
" 	c None",
".	c #020C1E",
"+	c #2F281F",
"@	c #0029E4",
"#	c #213453",
"$	c #2B3BA1",
"%	c #0A4ED9",
"&	c #344F70",
"*	c #3461BC",
"=	c #3A669F",
"-	c #954B46",
";	c #5E656B",
">	c #476F9B",
",	c #247DFF",
"'	c #D15D46",
")	c #5988BB",
"!	c #888989",
"~	c #5B92F0",
"{	c #639AD5",
"]	c #8EAAC9",
"^	c #ACACA8",
"/	c #90BEFF",
"(	c #A8C7EB",
"_	c #C9C7C6",
":	c #B9CDE1",
"<	c #D2C8BF",
"[	c #E1E7EA",
"}	c #F6E0D7",
"|	c #E0FFFD",
"1	c #FDFFFC",
"2	c #050600",
"                                                ",
"                                                ",
"                                                ",
"    2222222222222222222222222222222222222       ",
"   21|(}}}}}}}}}}}}}}}}}}}}}}^_}}}}}}<||:2      ",
"   21{)'''''''''''''''-''''$$~$#''''''({>2      ",
"   2:&)11111111111111**$11{~11:$11111[(#]2      ",
"   2[:]1111111111({11$1$11$111~>11111[:_:2      ",
"   2|{=1111111111${*1$1$11*11($111111}()>2      ",
"   2|{=1111111111$1$1*~*1:{1:$_111111}()>2      ",
"   2|{=111+^^^$$^$($<^=^^!*{$!^^!^+11}()>2      ",
"   2|{=1111111%~=1$]111111[:111111111}()>2      ",
"   2|{=1111111**$111:{****~:111111111}()>2      ",
"   2|{=11111111*>1{$~(::::(*]11111111}()>2      ",
"   2|{=1111111111*~((((((((/*11111111}()>2      ",
"   2|{=1112^^^^<$~(((///////$^^^!^211}()>2      ",
"   2|{=111111111@@,~///////%=11111111}()>2      ",
"   2|{=11111111]@@@%,,~~~~%>111111111}()>2      ",
"   2|{=11111111=@@%,,,~~%$_1111111111}()>2      ",
"   2|{=11111111=@@%,,,,$]111111111111}()>2      ",
"   2|{=111+^^^^!@@%,,,$!<<^^^^^^!^211}()>2      ",
"   2|{=111111111%@%,,*111)$%$11111111}()>2      ",
"   2|{=111111111]@@%,=11:%//%<1111111}:)>2      ",
"   2|{=1111111111*@%,%_1],/~$11111111^:)>2      ",
"   2|{&1<<<<<<<<<<$@%,%$%~~%!<<<<<<_<_[)>2      ",
"   2|{)]:::::::::::*%,,~~,%>::::::::[[])>2      ",
"   2|{{{>)))))))))))=*%%$$>)))))))))))){>2      ",
"   2|{{{)))))))))))))))>))))))))))))))))>2      ",
"   2|{{{>;+22+++++++++++++++++&#&&##>)))>2      ",
"   2|{{{>+1111111111111111111<+&>>>;&)))>2      ",
"   2|{{{>+1[<[;....;<[[[[_^^__+>)))]&)))>2      ",
"   2|)){>+1<_[.&>>&#1[[[_^^^_^+>)))]&)))>2      ",
"   2|{){>+1<<1.>)>>#11[_^^^^_^+>)))]&)))>2      ",
"   2|{){>+1[[1.&>>>#1[_^^____^+>)))]&)))>2      ",
"   2|{){>+1[[1.&>>>#1_^______^+>)))]&)))>2      ",
"   2|{){>+1[[1.&>>>#}____^__<^+>)))]&)))>2      ",
"   2|{){>+1[[1.&>>>#}___^^__^!2>)))]&)))>2      ",
"   2|{){>+1[[1.&>>>#}___^_^^^!2>)))]&)))>2      ",
"   2|{{{>+1[[1.&>>&#1^^^^^^^^!+>)))]&)){)2      ",
"   2;{{{)+11[[;#&&#^1___^^^!!!+>)>>:>{{{)2      ",
"   22;;;2;[^^!^<}}__!!!!;;;;;!+22222&&&&#2      ",
"    2222 2222222222222222222222     222222      ",
"                                                ",
"                                                ",
"                                                ",
"                                                ",
"                                                ",
"                                                "};
