<?xml version="1.0" encoding="UTF-8"?>
<svg height="16px" width="16px" xmlns="http://www.w3.org/2000/svg">
    <path d="M 0.5 14.011719 l 3 -12.011719 h 2 l 3 12.011719 h -2 l -0.999024 -4 h -2.001952 l -0.999024 4 z m 3.498537 -6 h 1.002926 l -0.501463 -2.007811 z M 11 6 v 2 h 1.917969 c -0.054688 0 0.085937 0.160156 0.085937 0.082031 v 0.921875 h -1.003906 c -1.714844 0 -3.03125 1.128906 -3.054688 2.484375 c -0.011718 0.679688 0.304688 1.363281 0.859376 1.824219 c 0.558593 0.460937 1.316406 0.699219 2.195312 0.699219 h 3.003906 v -5.929688 c 0 -1.171875 -0.886718 -2.082031 -2.085937 -2.082031 z m 1 5.007812 h 1.003906 v 1.003907 h -1.003906 c -0.519531 0 -0.792969 -0.136719 -0.921875 -0.242188 c -0.125 -0.105469 -0.132813 -0.171875 -0.132813 -0.242188 c 0.003907 -0.144531 0.085938 -0.519531 1.054688 -0.519531 z" fill="#2e3436"/>
</svg>
