/* XPM */
static char * home_xpm[] = {
"16 16 43 1",
" 	c None",
".	c #000000",
"+	c #A95849",
"@	c #686868",
"#	c #454545",
"$	c #763E2F",
"%	c #C4C4C4",
"&	c #E9E9E9",
"*	c #5D5D5D",
"=	c #171717",
"-	c #646464",
";	c #777777",
">	c #DEDEDE",
",	c #696969",
"'	c #1B1B1B",
")	c #A8A8A8",
"!	c #EAEAEA",
"~	c #9C9C9C",
"{	c #2E2E2E",
"]	c #8D8D8D",
"^	c #343434",
"/	c #141414",
"(	c #AAAAAA",
"_	c #A54937",
":	c #818181",
"<	c #FFFFFF",
"[	c #555555",
"}	c #CDCDCD",
"|	c #9F9F9F",
"1	c #999999",
"2	c #D2D2D2",
"3	c #ACACAC",
"4	c #424A40",
"5	c #586455",
"6	c #5B6657",
"7	c #465541",
"8	c #364530",
"9	c #273122",
"0	c #0B0E09",
"a	c #566252",
"b	c #495545",
"c	c #354031",
"d	c #333D2F",
"                ",
"    .. ..       ",
"   .+..@#.      ",
"   .$.@%&*.     ",
"   .=@%&&&-.    ",
"   .@%&&&&&;.   ",
"  .@%>&&&&&&,.  ",
" .')!!!!~{]^-/. ",
"  (.(___(:<[.(  ",
"   .(___({[{.   ",
"   .(___}|~1.   ",
"   .(___2223.   ",
"   .(___((((.   ",
"  44567890abcdb ",
" 4..bbbbb bbbb  ",
"                "};
