/* XPM */
static char * key_xpm[] = {
"48 48 22 1",
" 	c None",
".	c #FFFF9B",
"+	c #FFFFA4",
"@	c #FFFF97",
"#	c #FFFF77",
"$	c #FFFF69",
"%	c #FFFFA7",
"&	c #FFFF00",
"*	c #FFFF60",
"=	c #E2E200",
"-	c #FFFF8A",
";	c #FFFF86",
">	c #FFFF61",
",	c #FFFF66",
"'	c #FFFF5B",
")	c #FFFF9C",
"!	c #FFFF72",
"~	c #FFFF4C",
"{	c #FFFF9F",
"]	c #FFFF7A",
"^	c #FFFF79",
"/	c #EDED72",
"                                                ",
"                                                ",
"                                                ",
"                                                ",
"                   ........                     ",
"               +.........@####$                 ",
"              %&&&&&&&&&&&&&&&&*                ",
"             +&&&============&&&=               ",
"             .&&=            =&&=               ",
"            ..&=              -&=               ",
"             .&=              #&=               ",
"            ..&=              #&=               ",
"            ..&=              #&=               ",
"            ..&=              #&=               ",
"            .;&=              #&=               ",
"             #&=              >&=               ",
"             #&&*            *&&=               ",
"             $&&&$##########,&&&=               ",
"              *&&&&&&&&&&&&&&&&=                ",
"               ======'&&&======                 ",
"                     )&&=                       ",
"                     .&&=                       ",
"                     .&&=                       ",
"                     .&&=                       ",
"                     .&&=                       ",
"                     .&&=                       ",
"                     .&&=                       ",
"                     .&&=                       ",
"                     .&&=                       ",
"                     .&&=                       ",
"                     .&&=                       ",
"                     .&&=                       ",
"                     .&&=                       ",
"                     .&&=                       ",
"                     .&&!;##~=                  ",
"                     .&&&&&&&=                  ",
"                     .&&&=====                  ",
"                     .&&=                       ",
"                     .&&=                       ",
"                     .&&{...]=                  ",
"                     ^&&&&&&&=                  ",
"                     /========                  ",
"                                                ",
"                                                ",
"                                                ",
"                                                ",
"                                                ",
"                                                "};
