/* XPM */
static char * menu_ftp_disconnect_xpm[] = {
"16 16 52 1",
" 	c None",
".	c #302F2B",
"+	c #1A1917",
"@	c #282725",
"#	c #32312E",
"$	c #5B5953",
"%	c #807E7A",
"&	c #B4B1AA",
"*	c #2B2A27",
"=	c #000000",
"-	c #4A4947",
";	c #9F9C94",
">	c #252421",
",	c #E7E6E2",
"'	c #C1BFB9",
")	c #C7C4BE",
"!	c #838C85",
"~	c #939894",
"{	c #504F4E",
"]	c #A5A39C",
"^	c #9C9B97",
"/	c #B8B6B1",
"(	c #EDEBE8",
"_	c #B2AFA8",
":	c #C8C6C0",
"<	c #A5A29B",
"[	c #55534D",
"}	c #54524B",
"|	c #6B685F",
"1	c #AEABA4",
"2	c #8B877E",
"3	c #BAB7B0",
"4	c #282724",
"5	c #41403F",
"6	c #96948C",
"7	c #2B2A26",
"8	c #95918A",
"9	c #837F76",
"0	c #B1AEA6",
"a	c #969B98",
"b	c #383735",
"c	c #8D8A82",
"d	c #403E39",
"e	c #56534C",
"f	c #948F86",
"g	c #23221E",
"h	c #31302D",
"i	c #86837A",
"j	c #373531",
"k	c #1A1916",
"l	c #22211E",
"m	c #2F2E2B",
"                ",
"                ",
"                ",
"                ",
"      .+      @#",
"    $%&*==    -;",
"   >,')*!~    {]",
"^^^/(_:*      {<",
"[[}|1234      56",
"   78904!a    bc",
"    defg==    hi",
"      jk      lm",
"                ",
"                ",
"                ",
"                "};
