/* XPM */
static char * menu_bookmark_xpm[] = {
"16 16 21 1",
" 	c None",
".	c #525E66",
"+	c #EBEBEB",
"@	c #9DA9B3",
"#	c #030E1F",
"$	c #C6CCD6",
"%	c #BFC7CD",
"&	c #E2E9EB",
"*	c #D2D7E0",
"=	c #BCC3CB",
"-	c #AFBAC0",
";	c #D5DDE4",
">	c #121D28",
",	c #29313D",
"'	c #4C5660",
")	c #DDE3EA",
"!	c #3D4750",
"~	c #CBD4DB",
"{	c #B3BCC7",
"]	c #616C75",
"^	c #ABB4BE",
"                ",
"                ",
"   ...          ",
"  .+++.         ",
"  .+#$+.        ",
"  .&&*%+.       ",
"   .@)$=+.      ",
"    ]@;${+.     ",
"     '@*%-+.    ",
"      !@~=^+.   ",
"       ,@$....  ",
"        >@#     ",
"         ##     ",
"          #     ",
"                ",
"                "};
