/* XPM */
static char * menu_ftp_connect_xpm[] = {
"16 16 60 1",
" 	c None",
".	c #1E1D1B",
"+	c #2D2C29",
"@	c #282725",
"#	c #32312E",
"$	c #686660",
"%	c #9C9A96",
"&	c #9A978F",
"*	c #4A4947",
"=	c #9F9C94",
"-	c #6F6C66",
";	c #555350",
">	c #686763",
",	c #EBEAE7",
"'	c #BFBDB6",
")	c #A3A199",
"!	c #504F4E",
"~	c #A5A39C",
"{	c #CAC8C5",
"]	c #D6D5D1",
"^	c #9C9B97",
"/	c #D3D1CC",
"(	c #EDEBE8",
"_	c #B2AEA7",
":	c #A4A19A",
"<	c #A5A29B",
"[	c #C0BEB8",
"}	c #E5E3E0",
"|	c #B5B3AE",
"1	c #55534D",
"2	c #52504A",
"3	c #8A877E",
"4	c #AEABA5",
"5	c #9A968D",
"6	c #99968E",
"7	c #41403F",
"8	c #96948C",
"9	c #9C978E",
"0	c #A5A198",
"a	c #6D6A62",
"b	c #504E49",
"c	c #9D9A92",
"d	c #918C83",
"e	c #959188",
"f	c #383735",
"g	c #8D8A82",
"h	c #89867C",
"i	c #8B887E",
"j	c #272622",
"k	c #1E1D1A",
"l	c #58564F",
"m	c #7E7A71",
"n	c #31302D",
"o	c #86837A",
"p	c #43403A",
"q	c #3E3B34",
"r	c #2A2926",
"s	c #31302B",
"t	c #22211E",
"u	c #2F2E2B",
"                ",
"                ",
"                ",
"                ",
"      .+@#      ",
"     $%&*=-;    ",
"    >,')!~{]+   ",
"^^^^/(_:!<[}|^^^",
"111234567890a111",
"    bcdefghij   ",
"    klamnopq    ",
"      rstu      ",
"                ",
"                ",
"                ",
"                "};
