/* XPM */
static char * mkdir_xpm[] = {
"48 48 535 2",
"  	c None",
". 	c #EBEBEB",
"+ 	c #747474",
"@ 	c #575857",
"# 	c #838484",
"$ 	c #E9E9E9",
"% 	c #E5E5E5",
"& 	c #6D6D6D",
"* 	c #969C96",
"= 	c #BCC1BD",
"- 	c #888C8A",
"; 	c #393B3A",
"> 	c #7A7A7A",
", 	c #222323",
"' 	c #B9BABA",
") 	c #414241",
"! 	c #9FAD9E",
"~ 	c #BFCABE",
"{ 	c #CFD6CE",
"] 	c #C2C8C2",
"^ 	c #898E8B",
"/ 	c #444646",
"( 	c #858686",
"_ 	c #6E6F70",
": 	c #262727",
"< 	c #494B4A",
"[ 	c #7C7C7C",
"} 	c #3D3E3E",
"| 	c #9DAC9D",
"1 	c #A4B3A3",
"2 	c #ACB9AA",
"3 	c #D0D8D0",
"4 	c #C6CCC6",
"5 	c #7E827F",
"6 	c #4E4F4F",
"7 	c #6B6B6B",
"8 	c #5D5F5E",
"9 	c #6C6B6B",
"0 	c #E6E6E6",
"a 	c #434444",
"b 	c #E8E9E8",
"c 	c #868987",
"d 	c #BEBEBF",
"e 	c #363837",
"f 	c #96A596",
"g 	c #A2B1A1",
"h 	c #A3B2A2",
"i 	c #A6B4A4",
"j 	c #AEBBAD",
"k 	c #C4CEC3",
"l 	c #9EA89D",
"m 	c #3B3E3B",
"n 	c #848484",
"o 	c #929892",
"p 	c #ADB0AD",
"q 	c #5D5C5C",
"r 	c #B7B7B7",
"s 	c #474747",
"t 	c #FDFDFD",
"u 	c #F8F9F9",
"v 	c #BBBEBC",
"w 	c #313232",
"x 	c #1C1D1C",
"y 	c #666F64",
"z 	c #8C9C8B",
"A 	c #A0AF9F",
"B 	c #9EAD9D",
"C 	c #4D5C4B",
"D 	c #2A3129",
"E 	c #E3E3E3",
"F 	c #9D9D9D",
"G 	c #677067",
"H 	c #B9C5B9",
"I 	c #C1C6C1",
"J 	c #717171",
"K 	c #6E6E6E",
"L 	c #E6E6E7",
"M 	c #505151",
"N 	c #FBFBFC",
"O 	c #DFE1E0",
"P 	c #656766",
"Q 	c #222522",
"R 	c #5C675A",
"S 	c #7F8E7D",
"T 	c #98A897",
"U 	c #9DAC9C",
"V 	c #546452",
"W 	c #5C665C",
"X 	c #353636",
"Y 	c #ABACAC",
"Z 	c #B9B9B9",
"` 	c #565D55",
" .	c #B2BEB1",
"..	c #C6CEC7",
"+.	c #8E908E",
"@.	c #3A3A3A",
"#.	c #484848",
"$.	c #F7F8F7",
"%.	c #FEFEFE",
"&.	c #F1F2F1",
"*.	c #9B9E9D",
"=.	c #272827",
"-.	c #414940",
";.	c #6F7D6D",
">.	c #8D9C8B",
",.	c #9FAD9D",
"'.	c #A4B0A3",
").	c #CBD2CB",
"!.	c #AEB4B0",
"~.	c #515452",
"{.	c #545454",
"].	c #E8E8E9",
"^.	c #D1D1D1",
"/.	c #434842",
"(.	c #ABB9AA",
"_.	c #C5CEC5",
":.	c #AEB1AF",
"<.	c #565656",
"[.	c #6E6E6D",
"}.	c #E1E1E1",
"|.	c #FBFBFB",
"1.	c #F9FAF9",
"2.	c #CBCECC",
"3.	c #252825",
"4.	c #5E695C",
"5.	c #7E8E7C",
"6.	c #9BA999",
"7.	c #BAC5B8",
"8.	c #D1D9D0",
"9.	c #C6CDC7",
"0.	c #8C918E",
"a.	c #313231",
"b.	c #A3A3A3",
"c.	c #303430",
"d.	c #A6B5A5",
"e.	c #BFC9BE",
"f.	c #C5CBC5",
"g.	c #4A4A4A",
"h.	c #AEAFAE",
"i.	c #FCFCFC",
"j.	c #E9EAE9",
"k.	c #7F8280",
"l.	c #1B1D1B",
"m.	c #444C43",
"n.	c #707E6E",
"o.	c #A9B6A7",
"p.	c #C8D1C6",
"q.	c #D1D8D0",
"r.	c #B8BEB9",
"s.	c #595C5B",
"t.	c #E4E4E4",
"u.	c #2A2C2A",
"v.	c #B4C0B3",
"w.	c #9A9C9B",
"x.	c #737473",
"y.	c #E8E8E8",
"z.	c #F6F7F6",
"A.	c #B1B4B3",
"B.	c #363736",
"C.	c #262925",
"D.	c #606B5E",
"E.	c #B7C2B5",
"F.	c #C8CEC8",
"G.	c #999E9B",
"H.	c #343635",
"I.	c #8E8E8F",
"J.	c #3E3F3E",
"K.	c #ACB9AB",
"L.	c #C7D0C6",
"M.	c #B7BBB8",
"N.	c #616061",
"O.	c #4B4A4A",
"P.	c #B4B4B4",
"Q.	c #F8F8F8",
"R.	c #DCDEDD",
"S.	c #696C6B",
"T.	c #171817",
"U.	c #464E45",
"V.	c #8D9D8B",
"W.	c #A7B4A5",
"X.	c #BAC0BC",
"Y.	c #696D6B",
"Z.	c #444444",
"`.	c #DCDCDC",
" +	c #575757",
".+	c #8D9A8C",
"++	c #A6B4A5",
"@+	c #BCC7BC",
"#+	c #C8CDC8",
"$+	c #828282",
"%+	c #424141",
"&+	c #797978",
"*+	c #EFF0F0",
"=+	c #9FA3A1",
"-+	c #292A2A",
";+	c #2A2E2A",
">+	c #636F61",
",+	c #7E8D7C",
"'+	c #9AA898",
")+	c #D0D8CF",
"!+	c #A0A5A2",
"~+	c #414342",
"{+	c #8D8E8E",
"]+	c #737E73",
"^+	c #B1BEB0",
"/+	c #A6A8A6",
"(+	c #515151",
"_+	c #504F4F",
":+	c #F7F7F7",
"<+	c #FAFAFA",
"[+	c #CED1CF",
"}+	c #565957",
"|+	c #1B1C1A",
"1+	c #4D554B",
"2+	c #707F6E",
"3+	c #8C9C8A",
"4+	c #D2D9D1",
"5+	c #B8BEBA",
"6+	c #6D716F",
"7+	c #E0E1E1",
"8+	c #AAAAAA",
"9+	c #525952",
"0+	c #A9B7A8",
"a+	c #C3CDC3",
"b+	c #C1C5C1",
"c+	c #737373",
"d+	c #3E3D3D",
"e+	c #797979",
"f+	c #DDDEDE",
"g+	c #949896",
"h+	c #2B2D2C",
"i+	c #313630",
"j+	c #647163",
"k+	c #99A897",
"l+	c #B4C0B2",
"m+	c #CFD7CE",
"n+	c #C8CFC9",
"o+	c #A3A9A5",
"p+	c #373939",
"q+	c #E6E7E8",
"r+	c #D7D7D7",
"s+	c #313531",
"t+	c #A5B3A4",
"u+	c #B7C3B7",
"v+	c #CAD0CA",
"w+	c #9B9C9B",
"x+	c #4A4949",
"y+	c #4F4F4F",
"z+	c #B1B2B2",
"A+	c #EEEEEE",
"B+	c #F6F6F6",
"C+	c #C0C4C2",
"D+	c #535654",
"E+	c #1A1C1A",
"F+	c #595F57",
"G+	c #8B9B89",
"H+	c #A4B2A2",
"I+	c #BFC9BD",
"J+	c #80887F",
"K+	c #0F1010",
"L+	c #E9EAEA",
"M+	c #2A2B2A",
"N+	c #C7D0C7",
"O+	c #B9BDBA",
"P+	c #403F3F",
"Q+	c #7E7F7F",
"R+	c #CBCCCC",
"S+	c #F4F4F4",
"T+	c #F3F3F3",
"U+	c #AFB5B2",
"V+	c #252625",
"W+	c #424840",
"X+	c #5E665C",
"Y+	c #657163",
"Z+	c #373C36",
"`+	c #111111",
" @	c #606060",
".@	c #7E897D",
"+@	c #A8B6A7",
"@@	c #C0CABF",
"#@	c #C7CDC7",
"$@	c #9C9C9C",
"%@	c #393939",
"&@	c #A7A8A8",
"*@	c #EDEEED",
"=@	c #ACB1AE",
"-@	c #414740",
";@	c #5C645A",
">@	c #667364",
",@	c #8B9889",
"'@	c #1D1E1C",
")@	c #333434",
"!@	c #ADAEAE",
"~@	c #4E554E",
"{@	c #B4C0B4",
"]@	c #C8D0C8",
"^@	c #B3B6B3",
"/@	c #434544",
"(@	c #3B3C3B",
"_@	c #7D7D7D",
":@	c #B6B7B7",
"<@	c #A9AEAB",
"[@	c #1F201F",
"}@	c #494F47",
"|@	c #6A7868",
"1@	c #818D7F",
"2@	c #10100F",
"3@	c #686969",
"4@	c #262826",
"5@	c #92A191",
"6@	c #768375",
"7@	c #1F2220",
"8@	c #494948",
"9@	c #A6A7A7",
"0@	c #050505",
"a@	c #4E554C",
"b@	c #5E675C",
"c@	c #748372",
"d@	c #666E64",
"e@	c #0C0C0C",
"f@	c #A2A3A3",
"g@	c #888A88",
"h@	c #647262",
"i@	c #95A493",
"j@	c #6C7D6A",
"k@	c #171916",
"l@	c #3C3D3C",
"m@	c #888888",
"n@	c #939795",
"o@	c #060606",
"p@	c #535A51",
"q@	c #616C5F",
"r@	c #3F433E",
"s@	c #0A0B0B",
"t@	c #787D79",
"u@	c #667265",
"v@	c #97A695",
"w@	c #9DAC9B",
"x@	c #71826E",
"y@	c #141713",
"z@	c #818181",
"A@	c #8A8D8B",
"B@	c #080808",
"C@	c #596157",
"D@	c #7D8B7B",
"E@	c #2B2C2C",
"F@	c #606462",
"G@	c #637062",
"H@	c #96A594",
"I@	c #9CAB9A",
"J@	c #70806D",
"K@	c #232A22",
"L@	c #343534",
"M@	c #7F8281",
"N@	c #0F110F",
"O@	c #5B6359",
"P@	c #677565",
"Q@	c #6B766A",
"R@	c #0E0E0E",
"S@	c #777878",
"T@	c #E5E6E6",
"U@	c #4C504E",
"V@	c #606C5F",
"W@	c #94A393",
"X@	c #71826F",
"Y@	c #262D25",
"Z@	c #323333",
"`@	c #656967",
" #	c #1B1E1B",
".#	c #6F7F6D",
"+#	c #535A52",
"@#	c #090909",
"##	c #CCCCCC",
"$#	c #D5D5D5",
"%#	c #3F4342",
"&#	c #5B685B",
"*#	c #8E9E8D",
"=#	c #9DAD9C",
"-#	c #728370",
";#	c #2B362A",
">#	c #333433",
",#	c #484B4A",
"'#	c #262A25",
")#	c #778675",
"!#	c #2D302C",
"~#	c #262626",
"{#	c #C7C8C8",
"]#	c #373A39",
"^#	c #566256",
"/#	c #879685",
"(#	c #9FAE9E",
"_#	c #758573",
":#	c #2F392D",
"<#	c #868786",
"[#	c #333534",
"}#	c #2C302B",
"|#	c #657263",
"1#	c #6B786A",
"2#	c #101110",
"3#	c #757575",
"4#	c #BBBBBC",
"5#	c #323534",
"6#	c #505B50",
"7#	c #7A8978",
"8#	c #9CAB9B",
"9#	c #788976",
"0#	c #2D382C",
"a#	c #373737",
"b#	c #878887",
"c#	c #1B1C1B",
"d#	c #3A3F38",
"e#	c #5C655A",
"f#	c #697867",
"g#	c #4D544C",
"h#	c #BDBEBE",
"i#	c #323434",
"j#	c #4B554C",
"k#	c #6C7B6A",
"l#	c #A1B0A0",
"m#	c #7B8C79",
"n#	c #2C362A",
"o#	c #3D3D3D",
"p#	c #060706",
"q#	c #474D45",
"r#	c #5E685C",
"s#	c #232623",
"t#	c #DCDDDE",
"u#	c #C4C4C4",
"v#	c #212323",
"w#	c #434B45",
"x#	c #5E6C5C",
"y#	c #849383",
"z#	c #7F907D",
"A#	c #323D31",
"B#	c #404040",
"C#	c #757675",
"D#	c #070807",
"E#	c #565D54",
"F#	c #626E60",
"G#	c #4E574C",
"H#	c #0B0C0C",
"I#	c #000000",
"J#	c #010101",
"K#	c #454646",
"L#	c #CACCCD",
"M#	c #D4D4D4",
"N#	c #222222",
"O#	c #3B403D",
"P#	c #505E4F",
"Q#	c #71806F",
"R#	c #91A090",
"S#	c #849482",
"T#	c #3A4739",
"U#	c #5D5E5D",
"V#	c #151714",
"W#	c #5C695A",
"X#	c #131513",
"Y#	c #070707",
"Z#	c #0C0D0D",
"`#	c #282829",
" $	c #7A7B7C",
".$	c #2B2E2D",
"+$	c #485349",
"@$	c #5C6B5A",
"#$	c #97A696",
"$$	c #889786",
"%$	c #3E4C3C",
"&$	c #464847",
"*$	c #2B2F2A",
"=$	c #5F6B5D",
"-$	c #363E35",
";$	c #121313",
">$	c #212223",
",$	c #B2B2B2",
"'$	c #5B5C5C",
")$	c #171818",
"!$	c #404642",
"~$	c #4D5B4C",
"{$	c #657563",
"]$	c #869584",
"^$	c #3E4B3C",
"/$	c #2E302F",
"($	c #40463F",
"_$	c #556154",
":$	c #111311",
"<$	c #030304",
"[$	c #020202",
"}$	c #141414",
"|$	c #C8C8C8",
"1$	c #A3A4A4",
"2$	c #131313",
"3$	c #292B2B",
"4$	c #465047",
"5$	c #505F4F",
"6$	c #6D7C6B",
"7$	c #829280",
"8$	c #3C483B",
"9$	c #5C5C5B",
"0$	c #565F54",
"a$	c #282D27",
"b$	c #0A0A0A",
"c$	c #030303",
"d$	c #040404",
"e$	c #303031",
"f$	c #DADADA",
"g$	c #4A4B4B",
"h$	c #343836",
"i$	c #485448",
"j$	c #5B6B59",
"k$	c #374237",
"l$	c #5D5D5D",
"m$	c #101210",
"n$	c #232722",
"o$	c #0B0C0B",
"p$	c #090A0A",
"q$	c #5D5E5E",
"r$	c #B2B3B3",
"s$	c #1E1E1E",
"t$	c #151516",
"u$	c #373E38",
"v$	c #2E372C",
"w$	c #373837",
"x$	c #191C19",
"y$	c #0D0E0D",
"z$	c #050506",
"A$	c #19191A",
"B$	c #959695",
"C$	c #181919",
"D$	c #0D0E0E",
"E$	c #808080",
"F$	c #969697",
"G$	c #1B1B1B",
"H$	c #252626",
"I$	c #AEAFAF",
"J$	c #A6A6A6",
"                                                                                                ",
"                                                                                                ",
"                                                                                                ",
"                                                                                                ",
"                                                                                                ",
"                                                                                                ",
"                                                                                                ",
"                                      . + @ # $                                                 ",
"                            %         & * = - ; > .                                             ",
"                            , '       ) ! ~ { ] ^ / (                                           ",
"              _ >           : < [     } | 1 2 ~ 3 4 5 6                                         ",
"              7 8 9 0       a b c ) d e f g h i j k l m                                         ",
"              n o p q r     s t u v w x y z A h 1 B C D E                                       ",
"              F G H I J K L M N t t O P Q R S T g U V W X Y                                     ",
"              Z ` h  ...+.@.#.$.%.%.t &.*.=.-.;.>.,.'.).!.~.{.].                                ",
"              ^./.h h (._.:.<.[.}.%.t |.1.2.< 3.4.5.6.7.8.9.0.a.b.                              ",
"                c.h h h d.e.f.+ g.h.|.t i.t j.k.l.m.n.>.o.p.q.r.s.#.t.                          ",
"                u.h h h h 1 v.).w.#.x.y.t %.i.z.A.B.C.D.S 6.E.q.F.G.H.I.                        ",
"                J.B h h h h h K.L.M.N.O.P.Q.t %.i.R.S.T.U.n.V.W.k q.X.Y.Z.`.                    ",
"                 +.+h h h h h h ++@+#+$+%+&+% t %.t *+=+-+;+>+,+'+v.)+F.!+~+{+                  ",
"                $+]+g h h h h h h h ^+)./+(+_+P.:+%.%.<+[+}+|+1+2+3+i k 4+5+6+Z.7+              ",
"                8+9+h h h h h h h h h 0+a+b+c+d+e+f+i.%.i.j.g+h+i+j+5.k+l+m+n+o+p+q+            ",
"                r+s+g g h h h h h h h h t+u+v+w+x+y+z+A+t %.B+C+D+E+F+2+G+H+I+J+K+L+            ",
"                  M+B g h h h h h h h h h h j N+O+7 P+Q+R+S+%.T+U+V+W+X+Y+,+,.Z+`+              ",
"                   @.@g h h h h h h h h h h h +@@@#@$@%@@ &@r+*@=@, -@;@;@>@,@'@)@              ",
"                  !@~@g h h h h h h h h h h h h 1 {@]@^@/@(@_@:@<@[@}@;@;@|@1@2@3@              ",
"                    4@5@g h h h h h h h h h h h h h (.e.6@7@8@9@!+0@a@;@b@c@d@e@f@              ",
"                    g@h@i@g h h h h h h h h h h h h h B j@k@l@m@n@o@p@;@q@S r@s@t.              ",
"                      t@u@v@g h h h h h h h h h h h h w@x@y@%@z@A@B@C@;@Y+D@x E@                ",
"                        F@G@H@g h h h h h h h h h h h I@J@K@L@z@M@N@O@;@P@Q@R@S@                ",
"                        T@U@V@W@g g h h h h h h h h h w@X@Y@Z@z@`@ #;@b@.#+#@###                ",
"                          $#%#&#*#g g h h h h h h h h =#-#;#>#n ,#'#;@q@)#!#~#                  ",
"                            {#]#^#/#A h h h h h h h h (#_#:#a.<#[#}#;@|#1#2#3#                  ",
"                              4#5#6#7#8#g g h h h h h A 9#0#a#b#c#d#e#f#g#B@^.                  ",
"                                h#i#j#k#W@l#g h h h h l#m#n#o## p#q#r#2+s#o@6 t#                ",
"                                  u#v#w#x#y#U g h h h l#z#A#B#C#D#E#F#G#e@H#I#J#K#L#            ",
"                                    M#N#O#P#Q#R#A g g g S#T#s U#V#;@W#X#Y#I#I#I#I#Z#`# $        ",
"                                      0 X .$+$@$,+#$g g $$%$y+&$*$=$-$e@;$I#I#o@J#I#>$,$        ",
"                                          '$)$!$~${$]$I@G+^$<./$($_$:$e@I#I#<$[$J#}$|$          ",
"                                            1$2$3$4$5$6$7$8$9$x 0$a$b$c$I#d$I#J#e$f$            ",
"                                              0 g$K+h$i$j$k$l$m$n$o$p$I#d$I#d$q$                ",
"                                                  r$s$t$u$v$w$x$y$z$I#I#[$A$8+                  ",
"                                                      B$C$@#b$D$Y#[$I#)$E$                      ",
"                                                          F$G$[$J#H$$+                          ",
"                                                              I$J$                              ",
"                                                                                                ",
"                                                                                                ",
"                                                                                                "};
