/* XPM */
static char * smb_network_xpm[] = {
"16 16 31 1",
" 	c None",
".	c #161616",
"+	c #050505",
"@	c #131313",
"#	c #141414",
"$	c #070707",
"%	c #BABABA",
"&	c #9990A9",
"*	c #8A7F9E",
"=	c #817398",
"-	c #4E4166",
";	c #9990A8",
">	c #CBC3D7",
",	c #B2A3CA",
"'	c #6D598C",
")	c #9A90A9",
"!	c #8F84A1",
"~	c #786A92",
"{	c #4C3F63",
"]	c #090909",
"^	c #151515",
"/	c #121212",
"(	c #0C0C0C",
"_	c #616161",
":	c #0A0A0A",
"<	c #373737",
"[	c #4A4A4A",
"}	c #181818",
"|	c #0F0F0F",
"1	c #0D0D0D",
"2	c #909090",
".+@@@@#$        ",
"$%%%%%%.        ",
"$%&*=-%$        ",
"$%;>,'%$        ",
"$%)!~{%$        ",
"]%%%%%%$        ",
"...^^/@].+@@@@#$",
" ( %%_: $%%%%%%.",
"#<%%%%[}$%&*=-%$",
"}..||||1$%;>,'%$",
"   2|2  $%)!~{%$",
"   2|2  ]%%%%%%$",
"   2|222...^^/@]",
"   2|||| ( %%_: ",
"   22222#<%%%%[}",
"        }..||||1"};
