/* XPM */
static char * burner_xpm[] = {
"16 16 132 2",
"  	c None",
". 	c #000000",
"+ 	c #E3CA90",
"@ 	c #FAF3E3",
"# 	c #FCF8F5",
"$ 	c #FCF9F7",
"% 	c #FBF3EE",
"& 	c #F6E5C7",
"* 	c #C7AB74",
"= 	c #A48A51",
"- 	c #FAF4E3",
"; 	c #F2C795",
"> 	c #F0BA8F",
", 	c #F9DECC",
"' 	c #F9E6D8",
") 	c #F7E5D6",
"! 	c #F3DACA",
"~ 	c #DDC9AC",
"{ 	c #DECDA5",
"] 	c #AC9A65",
"^ 	c #FCF5E7",
"/ 	c #F0B887",
"( 	c #E0894F",
"_ 	c #ECAF7D",
": 	c #F9D9C4",
"< 	c #F9E9DC",
"[ 	c #F7E5D8",
"} 	c #EDD7C4",
"| 	c #DBCAAA",
"1 	c #E0D5AF",
"2 	c #E5D9AA",
"3 	c #EACF9B",
"4 	c #F9E3CE",
"5 	c #F6D3B3",
"6 	c #EEB481",
"7 	c #EDB17C",
"8 	c #FAE4CB",
"9 	c #FBF1E6",
"0 	c #F9EBDA",
"a 	c #E9D6B8",
"b 	c #E1D7B0",
"c 	c #EAE2BB",
"d 	c #F2EBC7",
"e 	c #BDA966",
"f 	c #F6E8C9",
"g 	c #F5D2BA",
"h 	c #F7D6C0",
"i 	c #F8DBBF",
"j 	c #CEAE6F",
"k 	c #695B3E",
"l 	c #2B2416",
"m 	c #594F34",
"n 	c #DAC287",
"o 	c #F6EFD1",
"p 	c #F7F0CE",
"q 	c #F9F4DA",
"r 	c #E8DAA1",
"s 	c #FBF0E6",
"t 	c #F5DAC4",
"u 	c #F6DBC7",
"v 	c #F9E8D8",
"w 	c #564B31",
"x 	c #453B26",
"y 	c #FCF9F5",
"z 	c #FBF6DC",
"A 	c #FAF5D5",
"B 	c #FAF5D3",
"C 	c #FAF2E7",
"D 	c #FCF9F3",
"E 	c #F8F2C9",
"F 	c #F5EFBE",
"G 	c #F5EEBC",
"H 	c #F9F1EA",
"I 	c #F6E4DB",
"J 	c #F6E8DD",
"K 	c #4F442C",
"L 	c #63563A",
"M 	c #FCF7E7",
"N 	c #F2E6A1",
"O 	c #EDE296",
"P 	c #E2CB99",
"Q 	c #F4E7D5",
"R 	c #F4EBDB",
"S 	c #F9F2E2",
"T 	c #DFC78C",
"U 	c #443A25",
"V 	c #9F8952",
"W 	c #F8EACB",
"X 	c #FCF4DF",
"Y 	c #F6E69B",
"Z 	c #F2E393",
"` 	c #D7C064",
" .	c #928453",
"..	c #F5EED8",
"+.	c #F7F0D8",
"@.	c #F6F0D5",
"#.	c #F7F2D4",
"$.	c #FCF9F1",
"%.	c #FCF8ED",
"&.	c #FBE8C4",
"*.	c #EDB668",
"=.	c #F4D385",
"-.	c #F5E094",
";.	c #B99A46",
">.	c #E2D29B",
",.	c #F4EECF",
"'.	c #F5EDCA",
").	c #F6EFC9",
"!.	c #F8F1C9",
"~.	c #FAF2C7",
"{.	c #F8EAA9",
"].	c #F1C776",
"^.	c #E2944F",
"/.	c #EBAE60",
"(.	c #F0CB7B",
"_.	c #BEAE6B",
":.	c #EFE5B6",
"<.	c #F4EFC9",
"[.	c #F6F0C9",
"}.	c #F9F1C4",
"|.	c #F9ECAC",
"1.	c #F4DA89",
"2.	c #E3A152",
"3.	c #D88B47",
"4.	c #B7723A",
"5.	c #ECDFAB",
"6.	c #F7F0CC",
"7.	c #F8F0C5",
"8.	c #F8F1C1",
"9.	c #F8EDAD",
"0.	c #F5DF90",
"a.	c #DAA655",
"        . . . . . . .           ",
"    . . + @ # $ % & * . .       ",
"  . = - ; > , ' ) ! ~ { ] .     ",
"  . ^ / ( _ : < [ } | 1 2 .     ",
". 3 4 5 6 7 8 9 0 a b c d e .   ",
". f g h i j k l m n o p q r .   ",
". s t u v w .     x y z A B .   ",
". % ) [ C l       . D E F G .   ",
". H I J C K       L M N O O .   ",
". P Q R S T U . V W X Y Z ` .   ",
".  ...+.@.#.$.y %.&.*.=.-.;..   ",
"  . >.,.'.).!.~.{.].^./.(..     ",
"  . _.:.<.[.E }.|.1.2.3.4..     ",
"    . . 5.6.7.8.9.0.a.. .       ",
"        . . . . . . .           ",
"                                "};
