/* XPM */
static char * ipod_xpm[] = {
"16 16 55 1",
" 	c None",
".	c #000000",
"+	c #FBFCFC",
"@	c #FBFBFB",
"#	c #FAFAFA",
"$	c #F8F8F8",
"%	c #F7F7F7",
"&	c #F5F5F5",
"*	c #F6F6F6",
"=	c #EEEEEF",
"-	c #FAFAFB",
";	c #C7C3D8",
">	c #B9B5CF",
",	c #B9B4CF",
"'	c #B8B3CE",
")	c #B7B2CD",
"!	c #C6C3D4",
"~	c #E5E5E6",
"{	c #FBFAFB",
"]	c #BFBACC",
"^	c #9B94B1",
"/	c #9B93B1",
"(	c #9A93B0",
"_	c #9992AF",
":	c #B4AFC1",
"<	c #E5E5E5",
"[	c #FBFBFA",
"}	c #D1CEDE",
"|	c #B9B4CE",
"1	c #E6E5E6",
"2	c #F7F6F6",
"3	c #F2F2F2",
"4	c #EEEEED",
"5	c #E9EAE9",
"6	c #E1E1E1",
"7	c #E6E5E5",
"8	c #F6F7F6",
"9	c #D7D7D7",
"0	c #C6C6C6",
"a	c #C5C5C5",
"b	c #D1D1D1",
"c	c #DADADA",
"d	c #C4C4C4",
"e	c #C3C3C3",
"f	c #C2C2C3",
"g	c #CECECE",
"h	c #E5E6E6",
"i	c #C8C8C8",
"j	c #ECECEC",
"k	c #E7E8E7",
"l	c #C3C2C2",
"m	c #ECECEB",
"n	c #E7E8E8",
"o	c #C2C3C2",
"p	c #F6F7F7",
"                ",
"    ........    ",
"   .+@#$%&*=.   ",
"   .-;>,')!~.   ",
"   .{]^/(_:<.   ",
"   .[}>|')!1.   ",
"   .{2345<67.   ",
"   .@890ab67.   ",
"   .{cadefgh.   ",
"   .{iajkle<.   ",
"   .{iamnoe~.   ",
"   .@cadeog1.   ",
"   .[p90ab6h.   ",
"   .[6666666.   ",
"    ........    ",
"                "};
