/* XPM */
static char * pci_xpm[] = {
"16 16 74 1",
" 	c None",
".	c #000000",
"+	c #323232",
"@	c #EDEDED",
"#	c #CCCCCC",
"$	c #333731",
"%	c #4E594C",
"&	c #7B8B77",
"*	c #73826F",
"=	c #3E473D",
"-	c #353E31",
";	c #181D17",
">	c #1A1D1A",
",	c #3B4B37",
"'	c #485C43",
")	c #282C27",
"!	c #262A25",
"~	c #242823",
"{	c #3F4D3C",
"]	c #4D5E49",
"^	c #777F76",
"/	c #CBCFCB",
"(	c #B0B0B0",
"_	c #1D241B",
":	c #969E95",
"<	c #BCBCBC",
"[	c #B4B4B4",
"}	c #535652",
"|	c #F6F6F6",
"1	c #7B7B7B",
"2	c #384235",
"3	c #C2C6C1",
"4	c #888888",
"5	c #263023",
"6	c #556351",
"7	c #C0C0C0",
"8	c #7F7F7F",
"9	c #7C7C7C",
"0	c #171B16",
"a	c #E7E7E7",
"b	c #676767",
"c	c #656E62",
"d	c #CACEC9",
"e	c #878786",
"f	c #191F18",
"g	c #9CA499",
"h	c #828383",
"i	c #585B58",
"j	c #2D352B",
"k	c #C9CDC9",
"l	c #8A8989",
"m	c #2B3528",
"n	c #485145",
"o	c #C2C2C2",
"p	c #8A8A8A",
"q	c #868686",
"r	c #0D0F0C",
"s	c #52624E",
"t	c #131612",
"u	c #191A18",
"v	c #495A45",
"w	c #354330",
"x	c #0C0C0C",
"y	c #0A0A0A",
"z	c #0B0B0B",
"A	c #5F735A",
"B	c #566851",
"C	c #708066",
"D	c #7F836E",
"E	c #9FA489",
"F	c #2F372D",
"G	c #9A9886",
"H	c #C0BEA7",
"I	c #ADADAD",
"  .+.           ",
"  .@............",
"  .#$%&&&&&&&&*.",
"  .#=-;>,')!~{].",
" ..#=^/(_:<[(}].",
".|1#=234567890].",
".ab#=cdefg7ehi].",
" ..#=jklmnopqr].",
"  .#=stuvwxyzt].",
"  .#=AAAAAAAB]].",
"  .#=CACACACB...",
"  .#=DAEAEAEB.  ",
"  .#FG]H]H]HB.  ",
"  .#..........  ",
"  .I.           ",
"  ..            "};
