/* XPM */
static char * removable_xpm[] = {
"16 16 58 1",
" 	c None",
".	c #000000",
"+	c #FFFFFF",
"@	c #D9D9D9",
"#	c #FDFDFD",
"$	c #FCFCFC",
"%	c #FBFBFB",
"&	c #FBFCFC",
"*	c #FCFBFB",
"=	c #FBFCFB",
"-	c #FBFBFC",
";	c #D5D6D5",
">	c #FCFBFC",
",	c #F7F8F8",
"'	c #F7F7F7",
")	c #F8F7F7",
"!	c #F7F8F7",
"~	c #F8F8F8",
"{	c #F7F7F8",
"]	c #F8F7F8",
"^	c #D3D3D2",
"/	c #FAFAFA",
"(	c #F3F3F4",
"_	c #F4F4F4",
":	c #F4F4F3",
"<	c #F3F4F4",
"[	c #F4F3F4",
"}	c #CECECE",
"|	c #F9F9F9",
"1	c #F0F0F0",
"2	c #CCCCCC",
"3	c #ECECEC",
"4	c #EDECEC",
"5	c #ECEDED",
"6	c #ECECED",
"7	c #ECEDEC",
"8	c #C8C8C8",
"9	c #FEFEFE",
"0	c #EBEBEB",
"a	c #E3E3E3",
"b	c #C9C9C9",
"c	c #B9B9B9",
"d	c #A7A7A8",
"e	c #D0D0D0",
"f	c #EAEAEA",
"g	c #7E7E7E",
"h	c #A2A2A2",
"i	c #CDCDCD",
"j	c #E0E0E0",
"k	c #909090",
"l	c #9F9F9F",
"m	c #BDBDBD",
"n	c #9C9C9C",
"o	c #9D9D9C",
"p	c #9D9C9D",
"q	c #9C9D9C",
"r	c #9D9D9D",
"s	c #9C9D9D",
"                ",
" .............. ",
".+++++++++++++@.",
".#$%&%%%%*=-&=;.",
".>,,')!!~'){]~^.",
"./(___:<_(_[_[}.",
".|1111111111112.",
".|1111111111112.",
".'3434354636768.",
".9+++++++__00ab.",
".}ccccccccccccd.",
".}e.......fc'gh.",
".icjjjjjjjecgkl.",
".mnopqqqqrpspon.",
" .............. ",
"                "};
