/* XPM */
static char * usb_xpm[] = {
"20 16 24 1",
" 	c None",
".	c #0D0D0D",
"+	c #000000",
"@	c #C9C9C9",
"#	c #D0D0D0",
"$	c #E2E2E2",
"%	c #3A3A3A",
"&	c #ADADAD",
"*	c #A7A7A7",
"=	c #AAAAAA",
"-	c #B0B0B0",
";	c #BABABA",
">	c #B7B7B7",
",	c #9D9D9D",
"'	c #A1A1A1",
")	c #B2B2B2",
"!	c #919191",
"~	c #7C7C7C",
"{	c #959595",
"]	c #8C8C8C",
"^	c #717171",
"/	c #828282",
"(	c #777777",
"_	c #818282",
"                    ",
"                    ",
"                    ",
"     .+++++++++     ",
"    +@#$$$$$$$%++++ ",
"   +$$$$$$$$$&%*=-;+",
"  +>>>>>>>>>>,%,%')+",
"++!>>>>>>>>>'%~!%{=+",
"]^/!!!!!!!!!'%!~%=+ ",
"++^!!!!!!!!!!%!%~=+ ",
"  +(((((((({%~!!!*+ ",
"  ++_(((((({++++++  ",
"    ++++++++        ",
"                    ",
"                    ",
"                    "};
