/* XPM */
static char * wavelan_xpm[] = {
"16 16 17 1",
" 	c None",
".	c #DF421E",
"+	c #E25F31",
"@	c #E25F32",
"#	c #E57D45",
"$	c #E57D46",
"%	c #E89B59",
"&	c #E89A58",
"*	c #E89A59",
"=	c #E89B58",
"-	c #EBB96D",
";	c #EBB86D",
">	c #EBB96C",
",	c #EED680",
"'	c #EBB86C",
")	c #E26031",
"!	c #E26032",
"                ",
"                ",
"                ",
"       ...      ",
"       + @      ",
"   #$# $ # $#$  ",
"   % % & % * =  ",
"   - - ; > - ;  ",
",, , , , , , ,,,",
" '>; ' ' - ;    ",
"     * * % *    ",
"     # # $ #    ",
"     +)! !!)    ",
"                ",
"                ",
"                "};
