/* XPM */
static char * zip_xpm[] = {
"16 16 168 2",
"  	c None",
". 	c #262626",
"+ 	c #8B8B8C",
"@ 	c #858585",
"# 	c #767677",
"$ 	c #7B7B7D",
"% 	c #7E7E82",
"& 	c #808082",
"* 	c #7F7F82",
"= 	c #7B7B7F",
"- 	c #646465",
"; 	c #605F5F",
"> 	c #282828",
", 	c #878786",
"' 	c #807E7C",
") 	c #747473",
"! 	c #7E7E81",
"~ 	c #848382",
"{ 	c #868484",
"] 	c #878685",
"^ 	c #868585",
"/ 	c #888786",
"( 	c #898988",
"_ 	c #75787D",
": 	c #5B5959",
"< 	c #272727",
"[ 	c #898989",
"} 	c #848381",
"| 	c #838381",
"1 	c #E4E4E4",
"2 	c #ECE1DE",
"3 	c #EEE6E3",
"4 	c #EDEDED",
"5 	c #EAEAEA",
"6 	c #E7E7E7",
"7 	c #E0E0E0",
"8 	c #91959A",
"9 	c #5E5C5B",
"0 	c #5F5E5E",
"a 	c #252527",
"b 	c #858382",
"c 	c #81807E",
"d 	c #E1E0E0",
"e 	c #E8DBD7",
"f 	c #ECE2DE",
"g 	c #E5E5E5",
"h 	c #DFDFDF",
"i 	c #E2E2E2",
"j 	c #DBDBDB",
"k 	c #8F9398",
"l 	c #5C5C5B",
"m 	c #5E5E5E",
"n 	c #252526",
"o 	c #898888",
"p 	c #848280",
"q 	c #818080",
"r 	c #DEDEDE",
"s 	c #D7D7D7",
"t 	c #D6D6D6",
"u 	c #D9D9D9",
"v 	c #5B5B5C",
"w 	c #5D5D5F",
"x 	c #D4D4D5",
"y 	c #8E9298",
"z 	c #5C5C5F",
"A 	c #242527",
"B 	c #828282",
"C 	c #7E7E7D",
"D 	c #838281",
"E 	c #607085",
"F 	c #455778",
"G 	c #4A607E",
"H 	c #4F6D88",
"I 	c #DD9592",
"J 	c #D3D3D3",
"K 	c #CDCDCD",
"L 	c #81858A",
"M 	c #59595C",
"N 	c #232426",
"O 	c #7F7F7F",
"P 	c #7E7D7F",
"Q 	c #808081",
"R 	c #004071",
"S 	c #00285A",
"T 	c #004172",
"U 	c #E68380",
"V 	c #CECECF",
"W 	c #CCCCCE",
"X 	c #7B7B82",
"Y 	c #57585B",
"Z 	c #5B5B60",
"` 	c #202124",
" .	c #7A7A7A",
"..	c #807F7F",
"+.	c #818181",
"@.	c #939598",
"#.	c #808C94",
"$.	c #7B8891",
"%.	c #77848D",
"&.	c #9A9392",
"*.	c #9C9A9B",
"=.	c #979798",
"-.	c #6D6D6E",
";.	c #525259",
">.	c #57585D",
",.	c #1E1E22",
"'.	c #7E7C7C",
").	c #7A797B",
"!.	c #79797C",
"~.	c #7B7B7B",
"{.	c #747374",
"].	c #6E6D70",
"^.	c #6C6C6E",
"/.	c #6A6A6D",
"(.	c #525253",
"_.	c #4D4E54",
":.	c #515258",
"<.	c #1A1B1F",
"[.	c #787878",
"}.	c #838282",
"|.	c #7B7B7C",
"1.	c #77787A",
"2.	c #7A7A7B",
"3.	c #747375",
"4.	c #6F6F71",
"5.	c #6F6E72",
"6.	c #6C6D71",
"7.	c #68686D",
"8.	c #505051",
"9.	c #494950",
"0.	c #4C4D53",
"a.	c #040405",
"b.	c #808080",
"c.	c #828181",
"d.	c #808084",
"e.	c #76777B",
"f.	c #75767A",
"g.	c #737378",
"h.	c #6D6E73",
"i.	c #67686D",
"j.	c #48484A",
"k.	c #46484E",
"l.	c #474850",
"m.	c #4F4F4E",
"n.	c #8B8A88",
"o.	c #C6C6C8",
"p.	c #E8E8E8",
"q.	c #626265",
"r.	c #4E4F4F",
"s.	c #47484F",
"t.	c #35353C",
"u.	c #1C1C1C",
"v.	c #999999",
"w.	c #CBCBCB",
"x.	c #D4D4D4",
"y.	c #DCDCDC",
"z.	c #78787C",
"A.	c #747578",
"B.	c #2B2C30",
"C.	c #14141C",
"D.	c #000000",
"E.	c #2A2A2A",
"F.	c #2E2E2E",
"G.	c #050505",
"H.	c #373737",
"I.	c #3E3E3E",
"J.	c #3D3D3D",
"K.	c #1E1E1E",
"  . . . . . . . . . . . . .     ",
". + @ # $ % & * * * * = - ; .   ",
"> , ' ) ! ~ { ] ^ / ( _ : ; <   ",
". [ } | 1 2 3 4 5 6 7 8 9 0 .   ",
"a ( b c d e f g h i j k l m .   ",
"n o p q 7 h r s t r u k v w a   ",
"a @ ~ ] x r r u s 7 t y v z n   ",
"A B C D E F G H I J K L M z a   ",
"N O P Q R S R T U V W X Y Z A   ",
"`  ...+.@.#.$.%.&.*.=.-.;.>.N   ",
",...'.).!.~.{.].^.^./.(._.:.`   ",
"<.[.}.|.1.2.3.4.5.6.7.8.9.0.,.  ",
"a.B b.c.d.= e.f.g.h.i.j.k.l.<.  ",
"a.m.n.o.5 5 p.h u   q.r.s.t.a.  ",
"  a.u.v.J w.x.y.t z.A.B.C.D.    ",
"      a.E.F.G.H.I.J.K.a.        "};
