/* XPM */
static char * cdrom_xpm[] = {
"16 16 137 2",
"  	c None",
". 	c #000000",
"+ 	c #BABABA",
"@ 	c #F0EEEF",
"# 	c #FAF8FA",
"$ 	c #FBF9FB",
"% 	c #F5F3F7",
"& 	c #DEDDE1",
"* 	c #9B9CA2",
"= 	c #7C7B7B",
"- 	c #F1EEEE",
"; 	c #D2B7BD",
"> 	c #CFB1BF",
", 	c #EBDCE9",
"' 	c #EDE4EF",
") 	c #E6E1ED",
"! 	c #D9D7E7",
"~ 	c #B9BFD2",
"{ 	c #B8C2CD",
"] 	c #828991",
"^ 	c #F3F1F1",
"/ 	c #CEAAB2",
"( 	c #B37E84",
"_ 	c #C8A3AF",
": 	c #E8D7E5",
"< 	c #EFE6F0",
"[ 	c #E6E2EE",
"} 	c #D0D1E2",
"| 	c #B6C1D1",
"1 	c #BCCCD4",
"2 	c #C1CFD0",
"3 	c #C4C2C4",
"4 	c #EBDEE7",
"5 	c #E1C9D6",
"6 	c #CBA5AD",
"7 	c #C8A3A9",
"8 	c #E9DDE4",
"9 	c #F3F0F3",
"0 	c #E9E8ED",
"a 	c #C8CDDA",
"b 	c #BECED5",
"c 	c #CBDCDC",
"d 	c #D6E5E1",
"e 	c #8F9591",
"f 	c #E1E0E1",
"g 	c #E1CFE0",
"h 	c #E5D3E2",
"i 	c #E5D3DD",
"j 	c #A29D9E",
"k 	c #545454",
"l 	c #212121",
"m 	c #474848",
"n 	c #B0B1B3",
"o 	c #DFE9E7",
"p 	c #DDEAE4",
"q 	c #E5EFE7",
"r 	c #C1C9C1",
"s 	c #F2EFF4",
"t 	c #E0D6E5",
"u 	c #E4D8E7",
"v 	c #ECE5ED",
"w 	c #444444",
"x 	c #363636",
"y 	c #F9FAF9",
"z 	c #EAF2E7",
"A 	c #E5EFE2",
"B 	c #E3EEE0",
"C 	c #F4F3F7",
"D 	c #E7E2EE",
"E 	c #F1F0F3",
"F 	c #F9F9F8",
"G 	c #DEEAD9",
"H 	c #D7E4D1",
"I 	c #D6E3CF",
"J 	c #EFEFF5",
"K 	c #E2E3F0",
"L 	c #E4E6F1",
"M 	c #EFF0F3",
"N 	c #3E3E3E",
"O 	c #4F4F4F",
"P 	c #F3F4F1",
"Q 	c #D0D7BE",
"R 	c #C5D0B5",
"S 	c #C4CFB5",
"T 	c #BABDC2",
"U 	c #DEE5ED",
"V 	c #E1E9F0",
"W 	c #EBF1F2",
"X 	c #B6B7B7",
"Y 	c #353535",
"Z 	c #797979",
"` 	c #E2E2E2",
" .	c #F2F0EA",
"..	c #D9D6BA",
"+.	c #D1D2B5",
"@.	c #A7AB91",
"#.	c #707576",
"$.	c #E0EBEE",
"%.	c #E3EEEE",
"&.	c #E0ECE9",
"*.	c #E1EBE5",
"=.	c #F7F8F7",
"-.	c #F7F5F3",
";.	c #E8DCD9",
">.	c #C69F91",
",.	c #D3BDA7",
"'.	c #D8CDB3",
").	c #8A8777",
"!.	c #BBC4C3",
"~.	c #DBE9E6",
"{.	c #DAE7E1",
"].	c #D9E7DC",
"^.	c #DEE8DA",
"/.	c #E5EAD8",
"(.	c #E1DBC1",
"_.	c #CCB19D",
":.	c #B5847E",
"<.	c #C1998B",
"[.	c #CAB6A2",
"}.	c #919996",
"|.	c #CED8D4",
"1.	c #D8E6DD",
"2.	c #DAE7DB",
"3.	c #DFE9DA",
"4.	c #E3E9D6",
"5.	c #E2E0C5",
"6.	c #D4C4AB",
"7.	c #B68E81",
"8.	c #A87C78",
"9.	c #8D6865",
"0.	c #C8D1CA",
"a.	c #DCE8DC",
"b.	c #DEE7D7",
"c.	c #E0E7D3",
"d.	c #E1E0C5",
"e.	c #D6CBB1",
"f.	c #AB9385",
"        . . . . . . .           ",
"    . . + @ # $ % & * . .       ",
"  . = - ; > , ' ) ! ~ { ] .     ",
"  . ^ / ( _ : < [ } | 1 2 .     ",
". 3 4 5 6 7 8 9 0 a b c d e .   ",
". f g h i j k l m n o p q r .   ",
". s t u v w .     x y z A B .   ",
". C ) D E l       . F G H I .   ",
". J K L M N       O P Q R S .   ",
". T U V W X Y . Z `  ...+.@..   ",
". #.$.%.&.*.=.y -.;.>.,.'.)..   ",
"  . !.~.{.].^./.(._.:.<.[..     ",
"  . }.|.1.2.3.4.5.6.7.8.9..     ",
"    . . 0.a.b.c.d.e.f.. .       ",
"        . . . . . . .           ",
"                                "};
