/* XPM */
static char * removable_usb_xpm[] = {
"16 16 61 1",
" 	c None",
".	c #FFFFFF",
"+	c #625B81",
"@	c #414141",
"#	c #000000",
"$	c #717171",
"%	c #D9D9D9",
"&	c #ADA9BC",
"*	c #A7A3B9",
"=	c #FCFBFB",
"-	c #FBFCFB",
";	c #FBFBFC",
">	c #FBFCFC",
",	c #D5D6D5",
"'	c #BDBBCA",
")	c #F7F7F7",
"!	c #F8F7F7",
"~	c #F7F7F8",
"{	c #F8F7F8",
"]	c #F8F8F8",
"^	c #D3D3D2",
"/	c #F1F0F3",
"(	c #F6F6F6",
"_	c #F4F4F4",
":	c #F3F3F4",
"<	c #F4F3F4",
"[	c #CECECE",
"}	c #FAFAFA",
"|	c #7C7695",
"1	c #8C87A3",
"2	c #F0F0F0",
"3	c #CCCCCC",
"4	c #F9F9F9",
"5	c #9B97AD",
"6	c #ECEDED",
"7	c #EDECEC",
"8	c #ECECED",
"9	c #ECECEC",
"0	c #ECEDEC",
"a	c #C8C8C8",
"b	c #FEFEFE",
"c	c #EBEBEB",
"d	c #E3E3E3",
"e	c #C9C9C9",
"f	c #B9B9B9",
"g	c #A7A7A8",
"h	c #D0D0D0",
"i	c #EAEAEA",
"j	c #7E7E7E",
"k	c #A2A2A2",
"l	c #CDCDCD",
"m	c #E0E0E0",
"n	c #909090",
"o	c #9F9F9F",
"p	c #BDBDBD",
"q	c #9C9C9C",
"r	c #9D9D9C",
"s	c #9D9C9D",
"t	c #9C9D9C",
"u	c #9D9D9D",
"v	c #9C9D9D",
"   .+.          ",
" @.+++...###### ",
"$...+.++......%#",
".&*.+.++.=-;>-,#",
".'+.+++..)!~{]^#",
"#./++..(_:_<_<[#",
"#}.|+1.22222223#",
"#4.+++.22222223#",
"#).5+5.6789808a#",
"#b.......__ccde#",
"#[ffffffffffffg#",
"#[h#######if)jk#",
"#lfmmmmmmmhfjno#",
"#pqrsttttusvsrq#",
" ############## ",
"                "};
