/* XPM */
static char * removable_1394_xpm[] = {
"16 16 49 1",
" 	c None",
".	c #FFFFFF",
"+	c #A0741B",
"@	c #000000",
"#	c #D9D9D9",
"$	c #FBFBFC",
"%	c #FBFCFC",
"&	c #FBFCFB",
"*	c #D5D6D5",
"=	c #FCFBFC",
"-	c #F8F7F7",
";	c #F7F7F8",
">	c #F8F7F8",
",	c #F8F8F8",
"'	c #D3D3D2",
")	c #FAFAFA",
"!	c #F3F3F4",
"~	c #F4F4F4",
"{	c #F4F3F4",
"]	c #CECECE",
"^	c #F9F9F9",
"/	c #F0F0F0",
"(	c #CCCCCC",
"_	c #F7F7F7",
":	c #ECECEC",
"<	c #ECECED",
"[	c #ECEDEC",
"}	c #C8C8C8",
"|	c #FEFEFE",
"1	c #EBEBEB",
"2	c #E3E3E3",
"3	c #C9C9C9",
"4	c #B9B9B9",
"5	c #A7A7A8",
"6	c #D0D0D0",
"7	c #EAEAEA",
"8	c #7E7E7E",
"9	c #A2A2A2",
"0	c #CDCDCD",
"a	c #E0E0E0",
"b	c #909090",
"c	c #9F9F9F",
"d	c #BDBDBD",
"e	c #9C9C9C",
"f	c #9D9D9C",
"g	c #9D9C9D",
"h	c #9C9D9C",
"i	c #9D9D9D",
"j	c #9C9D9D",
"  .      .      ",
" .+.@@@@.+.@@@@ ",
".+.+....+++...#@",
"@.+......+.$%&*@",
"@=..++++..-;>,'@",
"@)!.+..+.!~{~{]@",
"@^/.++++./////(@",
"@^/....../////(@",
"@_:.++++.<:<[<}@",
"@|.......~~1123@",
"@]4444444444445@",
"@]6@@@@@@@74_89@",
"@04aaaaaaa648bc@",
"@defghhhhigjgfe@",
" @@@@@@@@@@@@@@ ",
"                "};
