/* XPM */
static char * wavelan_encrypted_xpm[] = {
"16 16 43 1",
" 	c None",
".	c #DF421E",
"+	c #E25F31",
"@	c #E25F32",
"#	c #E57D45",
"$	c #E57D46",
"%	c #E89B59",
"&	c #E89A58",
"*	c #E89A59",
"=	c #E89B58",
"-	c #EBB96D",
";	c #EBB86D",
">	c #EBB96C",
",	c #EED680",
"'	c #BFAC66",
")	c #1D1A0F",
"!	c #090805",
"~	c #000000",
"{	c #494227",
"]	c #040302",
"^	c #B7B7B7",
"/	c #DADADA",
"(	c #D6D6D6",
"_	c #B6B6B6",
":	c #BC9356",
"<	c #DBDBDB",
"[	c #DFDFDF",
"}	c #BCBCBC",
"|	c #472F1B",
"1	c #D7D7D7",
"2	c #E3E3E3",
"3	c #E6E6E6",
"4	c #080402",
"5	c #E7E7E7",
"6	c #EAEAEA",
"7	c #040101",
"8	c #E26032",
"9	c #E26031",
"0	c #B5B5B5",
"a	c #EBEBEB",
"b	c #C5C5C5",
"c	c #BBBBBB",
"d	c #131313",
"       ...      ",
"       + @      ",
"   #$# $ # $#$  ",
"   % % & % * =  ",
"   - - ; > - ;  ",
",')!~{ , , , ,,,",
" ]^/(_~: - ;    ",
"~^<~~[}| % *    ",
"~/1~~234 $ #    ",
"~(<[2567 889    ",
"~0[25ab~        ",
" ~c36b~         ",
"  ~33dd         ",
"  ~333d         ",
"  ~333d         ",
"  ~~~~d         "};
